<svg width="151" height="148" viewBox="0 0 151 148" fill="none" xmlns="http://www.w3.org/2000/svg">
<path opacity="0.3" d="M86.8184 85.3709C104.548 85.3709 118.921 70.9071 118.921 53.0652C118.921 35.2233 104.548 20.7595 86.8184 20.7595C69.0885 20.7595 54.7156 35.2233 54.7156 53.0652C54.7156 70.9071 69.0885 85.3709 86.8184 85.3709Z" fill="#087068"/>
<path d="M94.1559 47.1428C90.7442 42.859 85.1212 43.7165 79.167 44.626C72.6643 45.6189 65.9443 46.6464 61.4873 41.0539L63.7434 39.2313C67.1552 43.5151 72.7782 42.6577 78.7324 41.7482C85.235 40.7553 91.955 39.7277 96.412 45.3203L94.1559 47.1428Z" fill="#DDEAFB"/>
<path d="M76.3452 42.1023L75.3448 45.1642C76.6142 45.0184 77.8941 44.8239 79.167 44.6295C80.2261 44.4664 81.2748 44.3067 82.3062 44.1782L83.217 41.1442C81.7301 41.2934 80.2261 41.5226 78.7324 41.7517C77.9286 41.8732 77.1317 41.9947 76.3452 42.1023Z" fill="#C3DAF9"/>
<path d="M64.4817 41.5155L80.471 28.6155" stroke="white" stroke-width="2" stroke-miterlimit="10"/>
<path d="M67.1207 43.2755L81.6025 31.587" stroke="white" stroke-width="2" stroke-miterlimit="10"/>
<path d="M70.4151 44.5045L82.0785 35.0933" stroke="white" stroke-width="2" stroke-miterlimit="10"/>
<path d="M112.15 65.0731L109.893 66.8956C106.482 62.6118 100.859 63.4692 94.9045 64.3788C88.4018 65.3716 81.6818 66.3957 77.2248 60.8066C72.7678 55.214 75.224 48.8334 77.6008 42.6646C79.7742 37.0165 81.8302 31.6773 78.4184 27.397L80.6745 25.5745C85.1315 31.167 82.6753 37.5476 80.2985 43.7165C78.1252 49.3646 76.0692 54.7037 79.4809 58.9841C82.8927 63.2679 88.5157 62.4104 94.4699 61.5009C100.973 60.5081 107.696 59.4805 112.15 65.0731Z" fill="#339B95"/>
<path d="M99.1097 63.8059L100.055 60.7961C98.2162 60.9281 96.3327 61.2162 94.4733 61.5009C93.6454 61.6258 92.8278 61.7508 92.0171 61.8619L90.8063 64.9446C92.1689 64.7953 93.5419 64.587 94.9045 64.3787C96.3361 64.16 97.7436 63.9483 99.1097 63.8059Z" fill="#35A69E"/>
<path d="M109.421 64.9446L93.4315 77.8481" stroke="white" stroke-width="2" stroke-miterlimit="10"/>
<path d="M106.782 63.1846L92.3 74.8731" stroke="white" stroke-width="2" stroke-miterlimit="10"/>
<path d="M103.487 61.9591L91.8239 71.3703" stroke="white" stroke-width="2" stroke-miterlimit="10"/>
<path d="M79.819 60.765L95.8083 47.8615" stroke="white" stroke-width="2" stroke-miterlimit="10"/>
<path d="M82.4615 62.5285L96.9467 50.8435" stroke="white" stroke-width="2" stroke-miterlimit="10"/>
<path d="M85.7628 63.7644L97.4262 54.3531" stroke="white" stroke-width="2" stroke-miterlimit="10"/>
<path d="M93.9179 45.4905L77.9286 58.394" stroke="white" stroke-width="2" stroke-miterlimit="10"/>
<path d="M91.2754 43.7235L76.7902 55.412" stroke="white" stroke-width="2" stroke-miterlimit="10"/>
<path d="M87.9741 42.4911L76.3107 51.9023" stroke="white" stroke-width="2" stroke-miterlimit="10"/>
<path d="M96.412 45.3237C100.869 50.9163 98.4129 57.2969 96.036 63.4657C93.8627 69.1138 91.8067 74.453 95.2184 78.7333L92.9623 80.5559C88.5053 74.9633 90.9615 68.5827 93.3384 62.4139C95.5117 56.7658 97.5677 51.4266 94.1559 47.1428L96.412 45.3237Z" fill="#DDEAFB"/>
<path d="M23.1371 11.0115L26.6247 8.98767L30.1124 11.0115V15.0662L26.6247 17.0901L23.1371 15.0662V11.0115Z" stroke="#087068" stroke-width="0.75" stroke-miterlimit="10"/>
<path d="M23.1371 15.087L26.6247 17.1144V21.1656L23.1371 23.193" stroke="#087068" stroke-width="0.75" stroke-miterlimit="10"/>
<path d="M23.1371 23.2174L26.6247 21.1935L30.1124 23.2174V27.2721L26.6247 29.2959L23.1371 27.2721V23.2174Z" stroke="#087068" stroke-width="0.75" stroke-miterlimit="10"/>
<path d="M19.6494 29.3202L23.1371 27.2928L26.6247 29.3202V33.3714L23.1371 35.3988L19.6494 33.3714V29.3202Z" stroke="#087068" stroke-width="0.75" stroke-miterlimit="10"/>
<path d="M26.6247 29.3202L30.1124 27.2928L33.6 29.3202V33.3714L30.1124 35.3988L26.6247 33.3714V29.3202Z" stroke="#087068" stroke-width="0.75" stroke-miterlimit="10"/>
<path d="M37.0842 23.2174L40.5718 21.1935L44.0595 23.2174V27.2721L40.5718 29.2959L37.0842 27.2721V23.2174Z" stroke="#087068" stroke-width="0.75" stroke-miterlimit="10"/>
<path d="M33.6 29.3202L37.0842 27.2928" stroke="#087068" stroke-width="0.75" stroke-miterlimit="10"/>
<path d="M12.6742 29.3202L16.1618 27.2928L19.6494 29.3202V33.3714L16.1618 35.3988L12.6742 33.3714V29.3202Z" stroke="#087068" stroke-width="0.75" stroke-miterlimit="10"/>
<path d="M2.21124 23.2174L5.69888 21.1935L9.18652 23.2174V27.2721L5.69888 29.2959L2.21124 27.2721V23.2174Z" stroke="#087068" stroke-width="0.75" stroke-miterlimit="10"/>
<path d="M19.6494 41.512L16.1618 39.4881V35.4334L19.6494 33.4095L23.1371 35.4334" stroke="#087068" stroke-width="0.75" stroke-miterlimit="10"/>
<path d="M33.6 41.5363L37.0842 39.5125L40.5718 41.5363V45.591L37.0842 47.6149L33.6 45.591V41.5363Z" stroke="#087068" stroke-width="0.75" stroke-miterlimit="10"/>
<path d="M37.0842 39.4881L33.6 41.512L30.1124 39.4881V35.4334L33.6 33.4095" stroke="#087068" stroke-width="0.75" stroke-miterlimit="10"/>
<path d="M30.1124 47.6566L33.6 45.6293L37.0842 47.6566V51.7078L33.6 53.7352L30.1124 51.7078V47.6566Z" stroke="#087068" stroke-width="0.75" stroke-miterlimit="10"/>
<path d="M5.69888 41.5363L9.18652 39.5125L12.6742 41.5363V45.591L9.18652 47.6149L5.69888 45.591V41.5363Z" stroke="#087068" stroke-width="0.75" stroke-miterlimit="10"/>
<path d="M9.18652 27.272L12.6742 29.3202" stroke="#087068" stroke-width="0.75" stroke-miterlimit="10"/>
<path d="M12.6742 41.5363L16.1618 39.4882" stroke="#087068" stroke-width="0.75" stroke-miterlimit="10"/>
<path d="M23.7891 23.193C23.7891 23.5575 23.4958 23.8526 23.1336 23.8526C22.7714 23.8526 22.4782 23.5575 22.4782 23.193C22.4782 22.8285 22.7714 22.5334 23.1336 22.5334C23.4958 22.5334 23.7891 22.8285 23.7891 23.193Z" fill="#339B95"/>
<path d="M30.7643 23.193C30.7643 23.5575 30.4711 23.8526 30.1089 23.8526C29.7467 23.8526 29.4535 23.5575 29.4535 23.193C29.4535 22.8285 29.7467 22.5334 30.1089 22.5334C30.4711 22.5334 30.7643 22.8285 30.7643 23.193Z" fill="#339B95"/>
<path d="M30.7643 27.272C30.7643 27.6365 30.4711 27.9316 30.1089 27.9316C29.7467 27.9316 29.4535 27.6365 29.4535 27.272C29.4535 26.9075 29.7467 26.6124 30.1089 26.6124C30.4711 26.6124 30.7643 26.9075 30.7643 27.272Z" fill="#339B95"/>
<path d="M34.252 33.4096C34.252 33.7741 33.9588 34.0692 33.5965 34.0692C33.2343 34.0692 32.9411 33.7741 32.9411 33.4096C32.9411 33.0451 33.2343 32.75 33.5965 32.75C33.9588 32.75 34.252 33.0451 34.252 33.4096Z" fill="#339B95"/>
<path d="M23.7891 35.3988C23.7891 35.7633 23.4958 36.0584 23.1336 36.0584C22.7714 36.0584 22.4782 35.7633 22.4782 35.3988C22.4782 35.0343 22.7714 34.7393 23.1336 34.7393C23.4958 34.7393 23.7891 35.0343 23.7891 35.3988Z" fill="#339B95"/>
<path d="M16.8138 35.3988C16.8138 35.7633 16.5206 36.0584 16.1583 36.0584C15.7961 36.0584 15.5029 35.7633 15.5029 35.3988C15.5029 35.0343 15.7961 34.7393 16.1583 34.7393C16.524 34.7393 16.8138 35.0343 16.8138 35.3988Z" fill="#339B95"/>
<path d="M20.3014 41.5121C20.3014 41.8766 20.0082 42.1717 19.646 42.1717C19.2838 42.1717 18.9905 41.8766 18.9905 41.5121C18.9905 41.1476 19.2838 40.8525 19.646 40.8525C20.0082 40.8525 20.3014 41.1511 20.3014 41.5121Z" fill="#339B95"/>
<path d="M16.8138 27.2929C16.8138 27.6574 16.5206 27.9525 16.1583 27.9525C15.7961 27.9525 15.5029 27.6574 15.5029 27.2929C15.5029 26.9284 15.7961 26.6333 16.1583 26.6333C16.524 26.6368 16.8138 26.9318 16.8138 27.2929Z" fill="#339B95"/>
<path d="M13.3296 33.4096C13.3296 33.7741 13.0364 34.0692 12.6741 34.0692C12.3119 34.0692 12.0187 33.7741 12.0187 33.4096C12.0187 33.0451 12.3119 32.75 12.6741 32.75C13.0364 32.75 13.3296 33.0451 13.3296 33.4096Z" fill="#339B95"/>
<path d="M37.0842 40.1478C37.4462 40.1478 37.7396 39.8525 37.7396 39.4882C37.7396 39.1239 37.4462 38.8286 37.0842 38.8286C36.7222 38.8286 36.4287 39.1239 36.4287 39.4882C36.4287 39.8525 36.7222 40.1478 37.0842 40.1478Z" fill="#339B95"/>
<path d="M30.1124 40.1721C30.4743 40.1721 30.7678 39.8768 30.7678 39.5125C30.7678 39.1482 30.4743 38.8529 30.1124 38.8529C29.7504 38.8529 29.4569 39.1482 29.4569 39.5125C29.4569 39.8768 29.7504 40.1721 30.1124 40.1721Z" fill="#339B95"/>
<path d="M143.718 109.366L145.898 113.16L143.718 116.958H139.364L137.187 113.16L139.364 109.366H143.718Z" stroke="#087068" stroke-width="0.75" stroke-miterlimit="10"/>
<path d="M139.337 109.366L137.16 113.16H132.806L130.626 109.366" stroke="#087068" stroke-width="0.75" stroke-miterlimit="10"/>
<path d="M130.602 109.366L132.779 113.16L130.602 116.958H126.245L124.068 113.16L126.245 109.366H130.602Z" stroke="#087068" stroke-width="0.75" stroke-miterlimit="10"/>
<path d="M124.044 105.572L126.221 109.366L124.044 113.16H119.687L117.51 109.366L119.687 105.572H124.044Z" stroke="#087068" stroke-width="0.75" stroke-miterlimit="10"/>
<path d="M124.044 113.16L126.221 116.958L124.044 120.752H119.687L117.51 116.958L119.687 113.16H124.044Z" stroke="#087068" stroke-width="0.75" stroke-miterlimit="10"/>
<path d="M130.602 124.547L132.779 128.344L130.602 132.139H126.245L124.068 128.344L126.245 124.547H130.602Z" stroke="#087068" stroke-width="0.75" stroke-miterlimit="10"/>
<path d="M124.044 120.752L126.221 124.547" stroke="#087068" stroke-width="0.75" stroke-miterlimit="10"/>
<path d="M124.044 97.9794L126.221 101.774L124.044 105.572H119.687L117.51 101.774L119.687 97.9794H124.044Z" stroke="#087068" stroke-width="0.75" stroke-miterlimit="10"/>
<path d="M130.602 86.5929L132.779 90.3872L130.602 94.1816H126.245L124.068 90.3872L126.245 86.5929H130.602Z" stroke="#087068" stroke-width="0.75" stroke-miterlimit="10"/>
<path d="M110.939 105.571L113.115 101.774H117.469L119.649 105.571L117.469 109.366" stroke="#087068" stroke-width="0.75" stroke-miterlimit="10"/>
<path d="M110.911 120.752L113.091 124.547L110.911 128.345H106.558L104.381 124.547L106.558 120.752H110.911Z" stroke="#087068" stroke-width="0.75" stroke-miterlimit="10"/>
<path d="M113.115 124.547L110.939 120.752L113.115 116.958H117.469L119.649 120.752" stroke="#087068" stroke-width="0.75" stroke-miterlimit="10"/>
<path d="M104.336 116.958L106.516 120.752L104.336 124.547H99.9825L97.8057 120.752L99.9825 116.958H104.336Z" stroke="#087068" stroke-width="0.75" stroke-miterlimit="10"/>
<path d="M110.911 90.3872L113.091 94.1815L110.911 97.9794H106.558L104.381 94.1815L106.558 90.3872H110.911Z" stroke="#087068" stroke-width="0.75" stroke-miterlimit="10"/>
<path d="M126.245 94.1815L124.044 97.9793" stroke="#087068" stroke-width="0.75" stroke-miterlimit="10"/>
<path d="M110.911 97.9794L113.115 101.774" stroke="#087068" stroke-width="0.75" stroke-miterlimit="10"/>
<path d="M130.626 110.077C130.236 110.077 129.919 109.758 129.919 109.366C129.919 108.974 130.236 108.654 130.626 108.654C131.016 108.654 131.333 108.974 131.333 109.366C131.337 109.758 131.019 110.077 130.626 110.077Z" fill="#339B95"/>
<path d="M130.626 117.67C130.236 117.67 129.919 117.35 129.919 116.958C129.919 116.566 130.236 116.246 130.626 116.246C131.016 116.246 131.333 116.566 131.333 116.958C131.337 117.35 131.019 117.67 130.626 117.67Z" fill="#339B95"/>
<path d="M126.245 117.67C125.855 117.67 125.538 117.35 125.538 116.958C125.538 116.566 125.855 116.246 126.245 116.246C126.635 116.246 126.952 116.566 126.952 116.958C126.952 117.35 126.635 117.67 126.245 117.67Z" fill="#339B95"/>
<path d="M119.649 121.464C120.04 121.464 120.356 121.145 120.356 120.752C120.356 120.359 120.04 120.041 119.649 120.041C119.259 120.041 118.942 120.359 118.942 120.752C118.942 121.145 119.259 121.464 119.649 121.464Z" fill="#339B95"/>
<path d="M117.51 110.077C117.121 110.077 116.803 109.758 116.803 109.366C116.803 108.974 117.121 108.654 117.51 108.654C117.9 108.654 118.218 108.974 118.218 109.366C118.218 109.758 117.9 110.077 117.51 110.077Z" fill="#339B95"/>
<path d="M117.51 102.485C117.121 102.485 116.803 102.166 116.803 101.774C116.803 101.381 117.121 101.062 117.51 101.062C117.9 101.062 118.218 101.381 118.218 101.774C118.218 102.166 117.9 102.485 117.51 102.485Z" fill="#339B95"/>
<path d="M110.939 106.283C111.329 106.283 111.646 105.965 111.646 105.572C111.646 105.178 111.329 104.86 110.939 104.86C110.548 104.86 110.232 105.178 110.232 105.572C110.232 105.965 110.548 106.283 110.939 106.283Z" fill="#339B95"/>
<path d="M126.221 102.485C125.831 102.485 125.514 102.166 125.514 101.774C125.514 101.381 125.831 101.062 126.221 101.062C126.611 101.062 126.928 101.381 126.928 101.774C126.928 102.166 126.611 102.485 126.221 102.485Z" fill="#339B95"/>
<path d="M119.649 98.691C120.04 98.691 120.356 98.3724 120.356 97.9794C120.356 97.5863 120.04 97.2677 119.649 97.2677C119.259 97.2677 118.942 97.5863 118.942 97.9794C118.942 98.3724 119.259 98.691 119.649 98.691Z" fill="#339B95"/>
<path d="M113.115 125.262C112.726 125.262 112.408 124.942 112.408 124.55C112.408 124.158 112.726 123.838 113.115 123.838C113.505 123.838 113.823 124.158 113.823 124.55C113.823 124.942 113.505 125.262 113.115 125.262Z" fill="#339B95"/>
<path d="M113.091 117.67C112.701 117.67 112.384 117.35 112.384 116.958C112.384 116.566 112.701 116.246 113.091 116.246C113.481 116.246 113.799 116.566 113.799 116.958C113.799 117.35 113.481 117.67 113.091 117.67Z" fill="#339B95"/>
<path d="M118.1 48.6182L114.33 50.8087L110.559 48.6182V44.2372L114.33 42.0432L118.1 44.2372V48.6182Z" stroke="#087068" stroke-width="0.75" stroke-miterlimit="10"/>
<path d="M118.1 44.2095L114.33 42.019V37.6345L118.1 35.444" stroke="#087068" stroke-width="0.75" stroke-miterlimit="10"/>
<path d="M118.1 35.4161L114.33 37.6101L110.559 35.4161V31.0351L114.33 28.8446L118.1 31.0351V35.4161Z" stroke="#087068" stroke-width="0.75" stroke-miterlimit="10"/>
<path d="M121.874 28.8169L118.1 31.0109L114.33 28.8169V24.4359L118.1 22.2454L121.874 24.4359V28.8169Z" stroke="#087068" stroke-width="0.75" stroke-miterlimit="10"/>
<path d="M114.33 28.8169L110.559 31.0109L106.785 28.8169V24.4359L110.559 22.2454L114.33 24.4359V28.8169Z" stroke="#087068" stroke-width="0.75" stroke-miterlimit="10"/>
<path d="M103.015 35.4161L99.2442 37.6101L95.4703 35.4161V31.0351L99.2442 28.8446L103.015 31.0351V35.4161Z" stroke="#087068" stroke-width="0.75" stroke-miterlimit="10"/>
<path d="M106.785 28.8169L103.015 31.0109" stroke="#087068" stroke-width="0.75" stroke-miterlimit="10"/>
<path d="M129.419 28.8169L125.645 31.0109L121.874 28.8169V24.4359L125.645 22.2454L129.419 24.4359V28.8169Z" stroke="#087068" stroke-width="0.75" stroke-miterlimit="10"/>
<path d="M140.734 35.4161L136.96 37.6101L133.189 35.4161V31.0351L136.96 28.8446L140.734 31.0351V35.4161Z" stroke="#087068" stroke-width="0.75" stroke-miterlimit="10"/>
<path d="M121.874 15.6287L125.645 17.8226V22.2037L121.874 24.3976L118.1 22.2037" stroke="#087068" stroke-width="0.75" stroke-miterlimit="10"/>
<path d="M106.785 15.6044L103.015 17.7949L99.2442 15.6044V11.2234L103.015 9.02942L106.785 11.2234V15.6044Z" stroke="#087068" stroke-width="0.75" stroke-miterlimit="10"/>
<path d="M103.015 17.8226L106.785 15.6287L110.559 17.8226V22.2037L106.785 24.3976" stroke="#087068" stroke-width="0.75" stroke-miterlimit="10"/>
<path d="M110.559 8.98772L106.785 11.1782L103.015 8.98772V4.6067L106.785 2.41272L110.559 4.6067V8.98772Z" stroke="#087068" stroke-width="0.75" stroke-miterlimit="10"/>
<path d="M136.96 15.6044L133.189 17.7949L129.419 15.6044V11.2234L133.189 9.02942L136.96 11.2234V15.6044Z" stroke="#087068" stroke-width="0.75" stroke-miterlimit="10"/>
<path d="M133.189 31.0352L129.419 28.8169" stroke="#087068" stroke-width="0.75" stroke-miterlimit="10"/>
<path d="M129.419 15.6044L125.645 17.8227" stroke="#087068" stroke-width="0.75" stroke-miterlimit="10"/>
<path d="M117.393 35.444C117.393 35.0517 117.71 34.7323 118.1 34.7323C118.49 34.7323 118.807 35.0517 118.807 35.444C118.807 35.8362 118.49 36.1556 118.1 36.1556C117.71 36.1556 117.393 35.8397 117.393 35.444Z" fill="#339B95"/>
<path d="M109.849 35.444C109.849 35.0517 110.166 34.7323 110.556 34.7323C110.946 34.7323 111.263 35.0517 111.263 35.444C111.263 35.8362 110.946 36.1556 110.556 36.1556C110.166 36.1556 109.849 35.8397 109.849 35.444Z" fill="#339B95"/>
<path d="M109.849 31.0351C109.849 30.6429 110.166 30.3235 110.556 30.3235C110.946 30.3235 111.263 30.6429 111.263 31.0351C111.263 31.4274 110.946 31.7468 110.556 31.7468C110.166 31.7468 109.849 31.4274 109.849 31.0351Z" fill="#339B95"/>
<path d="M106.785 25.1093C107.176 25.1093 107.492 24.7907 107.492 24.3977C107.492 24.0047 107.176 23.686 106.785 23.686C106.395 23.686 106.078 24.0047 106.078 24.3977C106.078 24.7907 106.395 25.1093 106.785 25.1093Z" fill="#339B95"/>
<path d="M117.393 22.2453C117.393 21.8531 117.71 21.5337 118.1 21.5337C118.49 21.5337 118.807 21.8531 118.807 22.2453C118.807 22.6376 118.49 22.957 118.1 22.957C117.71 22.957 117.393 22.6376 117.393 22.2453Z" fill="#339B95"/>
<path d="M124.938 22.2453C124.938 21.8531 125.255 21.5337 125.645 21.5337C126.035 21.5337 126.352 21.8531 126.352 22.2453C126.352 22.6376 126.035 22.957 125.645 22.957C125.255 22.957 124.938 22.6376 124.938 22.2453Z" fill="#339B95"/>
<path d="M121.874 16.3403C122.265 16.3403 122.581 16.0217 122.581 15.6286C122.581 15.2356 122.265 14.917 121.874 14.917C121.484 14.917 121.167 15.2356 121.167 15.6286C121.167 16.0217 121.484 16.3403 121.874 16.3403Z" fill="#339B95"/>
<path d="M124.938 31.0109C124.938 30.6186 125.255 30.2992 125.645 30.2992C126.035 30.2992 126.352 30.6186 126.352 31.0109C126.352 31.4031 126.035 31.7225 125.645 31.7225C125.255 31.7225 124.938 31.4031 124.938 31.0109Z" fill="#339B95"/>
<path d="M129.419 25.1093C129.809 25.1093 130.126 24.7907 130.126 24.3977C130.126 24.0047 129.809 23.686 129.419 23.686C129.028 23.686 128.712 24.0047 128.712 24.3977C128.712 24.7907 129.028 25.1093 129.419 25.1093Z" fill="#339B95"/>
<path d="M102.308 17.8226C102.308 17.4303 102.625 17.111 103.015 17.111C103.405 17.111 103.722 17.4303 103.722 17.8226C103.722 18.2149 103.405 18.5343 103.015 18.5343C102.625 18.5343 102.308 18.2149 102.308 17.8226Z" fill="#339B95"/>
<path d="M109.849 17.7949C109.849 17.4026 110.166 17.0833 110.556 17.0833C110.946 17.0833 111.263 17.4026 111.263 17.7949C111.263 18.1872 110.946 18.5066 110.556 18.5066C110.166 18.51 109.849 18.1907 109.849 17.7949Z" fill="#339B95"/>
<path d="M103.422 122.682H88.6192V134.374H103.422V122.682Z" fill="#107A73"/>
<path d="M79.3705 138.634V134.909C79.3705 133.583 80.4399 132.507 81.7577 132.507H110.283C111.601 132.507 112.67 133.583 112.67 134.909V138.634H79.3705Z" fill="#0A827A"/>
<path d="M67.8969 145.771V141.154C67.8969 139.509 69.2215 138.176 70.8567 138.176H121.181C122.816 138.176 124.141 139.509 124.141 141.154V145.771H67.8969Z" fill="white"/>
<path opacity="0.5" d="M118.504 42.2723L112.281 52.4091C121.84 58.3523 127.549 68.6418 127.549 79.9311C127.549 97.7537 113.14 112.254 95.4289 112.254H61.3286V116.041C61.3286 117.392 62.4153 118.485 63.7572 118.485H73.8683C80.4261 122.203 87.8568 124.168 95.4289 124.168C119.67 124.168 139.388 104.322 139.388 79.9311C139.388 64.4829 131.582 50.4026 118.504 42.2723Z" fill="white"/>
<path d="M112.936 107.019C107.896 110.327 101.883 112.254 95.4289 112.254H61.3286V116.042C61.3286 117.392 62.4153 118.485 63.7572 118.485H73.8683C80.4262 122.203 87.8568 124.168 95.4289 124.168C116.055 124.168 133.407 109.796 138.122 90.481C129.364 101.715 118.856 105.651 112.936 107.019Z" fill="white"/>
<path d="M114.757 13.0112L111.344 20.6133L121.454 25.2096L124.867 17.6076L114.757 13.0112Z" fill="#0A827A"/>
<path d="M122.245 16.4187L118.833 24.0208L121.445 25.2081L124.857 17.6061L122.245 16.4187Z" fill="#0A6D67"/>
<path d="M108.7 16.6314L84.9339 69.5706L102.397 77.5098L126.163 24.5707L108.7 16.6314Z" fill="#107A73"/>
<path d="M119.153 21.3827L95.3864 74.3219L102.397 77.509L126.163 24.5699L119.153 21.3827Z" fill="white"/>
<path d="M83.6167 79.6001L80.2039 87.2021L84.341 89.083L87.7538 81.4809L83.6167 79.6001Z" fill="#0A827A"/>
<path d="M91.6598 83.2545L88.247 90.8566L92.3841 92.7374L95.797 85.1354L91.6598 83.2545Z" fill="#0A827A"/>
<path d="M94.368 84.4901L90.9552 92.0922L92.3824 92.741L95.7953 85.139L94.368 84.4901Z" fill="#0A6D67"/>
<path d="M86.4432 80.8705L83.0312 88.4734L84.3423 89.0692L87.7543 81.4663L86.4432 80.8705Z" fill="#0A6D67"/>
<path d="M83.4105 72.9657L80.0432 80.4666L97.5064 88.4058L100.874 80.905L83.4105 72.9657Z" fill="#107A73"/>
<path d="M93.7927 77.685L90.4253 85.1858L97.505 88.4044L100.872 80.9036L93.7927 77.685Z" fill="white"/>
<path d="M82.7701 64.9921L79.2351 72.8662L103.706 83.9912L107.241 76.1171L82.7701 64.9921Z" fill="#0A827A"/>
<path d="M93.3547 69.8037L89.8197 77.6779L93.1237 79.18L96.6587 71.3058L93.3547 69.8037Z" fill="#63CBC4"/>
<path d="M89.5619 68.0801L86.0269 75.9542L88.5764 77.1133L92.1114 69.2392L89.5619 68.0801Z" fill="#63CBC4"/>
<path d="M126.979 50.8585C127.86 44.9197 123.79 39.3869 117.889 38.5006C111.987 37.6143 106.489 41.7101 105.608 47.6489C104.727 53.5876 108.798 59.1205 114.699 60.0068C120.601 60.8931 126.099 56.7973 126.979 50.8585Z" fill="white"/>
<path d="M122.937 49.2501C122.937 52.9403 119.967 55.9292 116.299 55.9292C112.632 55.9292 109.662 52.9403 109.662 49.2501C109.662 45.5599 112.632 42.5709 116.299 42.5709C119.963 42.5709 122.937 45.5599 122.937 49.2501Z" fill="#0A6D67"/>
<path d="M122.019 49.25C122.019 52.4299 119.459 55.0057 116.299 55.0057C113.14 55.0057 110.58 52.4299 110.58 49.25C110.58 46.0701 113.14 43.4943 116.299 43.4943C119.456 43.4943 122.019 46.0736 122.019 49.25Z" fill="#0A827A"/>
<path d="M114.951 108.21C114.951 107.252 114.178 106.474 113.226 106.474H60.8664C59.9143 106.474 59.1415 107.252 59.1415 108.21V110.522C59.1415 111.48 59.9143 112.258 60.8664 112.258H113.222C114.174 112.258 114.947 111.48 114.947 110.522V108.21H114.951Z" fill="#107A73"/>
<path d="M59.1415 109.366V110.522C59.1415 111.48 59.9143 112.258 60.8664 112.258H113.222C114.175 112.258 114.947 111.48 114.947 110.522V109.366H59.1415Z" fill="white"/>
<path d="M138.122 85.5514C145.234 85.5514 151 79.7495 151 72.5924C151 65.4353 145.234 59.6333 138.122 59.6333C131.01 59.6333 125.245 65.4353 125.245 72.5924C125.245 79.7495 131.01 85.5514 138.122 85.5514Z" fill="#087068"/>
<path d="M139.423 72.5923C139.423 73.3144 138.84 73.9011 138.122 73.9011C137.405 73.9011 136.822 73.3144 136.822 72.5923C136.822 71.8703 137.405 71.2836 138.122 71.2836C138.84 71.2836 139.423 71.8703 139.423 72.5923Z" fill="#34A59E"/>
<path d="M146.45 72.5924C146.45 73.9671 142.721 75.0849 138.122 75.0849C133.524 75.0849 129.795 73.9706 129.795 72.5924C129.795 71.2177 133.524 70.0999 138.122 70.0999C142.721 70.1033 146.45 71.2177 146.45 72.5924Z" stroke="white" stroke-miterlimit="10"/>
<path d="M144.011 66.6665C144.977 67.6385 143.124 71.0822 139.875 74.3524C136.622 77.626 133.203 79.4902 132.237 78.5147C131.271 77.5427 133.124 74.0989 136.373 70.8288C139.623 67.5587 143.045 65.6945 144.011 66.6665Z" stroke="white" stroke-miterlimit="10"/>
<path d="M144.011 78.5182C143.045 79.4902 139.623 77.626 136.373 74.3559C133.12 71.0823 131.268 67.642 132.237 66.67C133.203 65.698 136.625 67.5622 139.875 70.8323C143.124 74.106 144.977 77.5462 144.011 78.5182Z" stroke="white" stroke-miterlimit="10"/>
<path d="M138.122 64.2122C139.488 64.2122 140.599 67.9648 140.599 72.5923C140.599 77.2198 139.492 80.9725 138.122 80.9725C136.756 80.9725 135.645 77.2198 135.645 72.5923C135.649 67.9648 136.756 64.2122 138.122 64.2122Z" stroke="white" stroke-miterlimit="10"/>
<path d="M36.7117 42.9772C36.7117 42.9772 32.3754 49.9444 36.4874 49.9444C40.5995 49.9479 36.7117 42.9772 36.7117 42.9772Z" fill="#00433E"/>
<path d="M55.9644 18.6836C55.9644 18.6836 40.2545 34.7844 38.8781 36.1973C37.5016 37.6067 37.6534 38.1934 37.5879 39.0022C37.5223 39.8111 36.5426 40.9636 36.5426 40.9636L37.205 41.6197L37.8673 42.2758C37.8673 42.2758 38.9919 41.2691 39.7957 41.1893C40.5995 41.1094 41.1825 41.2517 42.5589 39.8423C43.9353 38.4329 59.6452 22.3287 59.6452 22.3287L55.9644 18.6836Z" fill="#FFFEFF"/>
<path d="M56.2507 18.0935L59.1692 15.1045C60.1799 14.0666 61.8358 14.0527 62.8672 15.0698L63.1156 15.3163C64.1471 16.3334 64.1609 17.9998 63.1501 19.0377L60.2317 22.0267L56.2507 18.0935Z" fill="white"/>
<path d="M45.5774 30.4797C42.7245 33.4027 39.6922 36.5097 39.2127 37.0027C38.2744 37.9643 38.3779 38.367 38.333 38.9189C38.2882 39.4709 37.6189 40.2589 37.6189 40.2589L38.0708 40.7067L38.5227 41.1546C38.5227 41.1546 39.292 40.4672 39.8405 40.4117C40.389 40.3561 40.7892 40.4533 41.7275 39.4917C42.3519 38.853 47.2712 33.8124 50.5173 30.4797H45.5774Z" fill="#36A79F"/>
<path d="M60.8285 23.2695C60.5284 23.5785 60.0385 23.5819 59.7315 23.2799L55.0123 18.6177C54.7053 18.3157 54.7018 17.8227 55.002 17.5138C55.3021 17.2048 55.7919 17.2013 56.099 17.5034L60.8181 22.1656C61.1252 22.4711 61.1286 22.964 60.8285 23.2695Z" fill="#33A59D" fill-opacity="0.4"/>
<path d="M21.3295 110.65V144.584C21.3295 145.782 28.667 147.448 37.7155 147.448C46.7641 147.448 54.1016 145.782 54.1016 144.584V110.65H21.3295Z" fill="#63CBC4"/>
<path d="M23.0543 122.453V142.949C23.0543 144.022 29.6191 145.511 37.7155 145.511C45.812 145.511 52.3767 144.022 52.3767 142.949V122.453H23.0543Z" fill="#107A73"/>
<path d="M30.2332 128.067C30.2332 129.181 29.3362 130.084 28.2289 130.084C27.1215 130.084 26.2246 129.181 26.2246 128.067C26.2246 126.953 27.1215 126.05 28.2289 126.05C29.3362 126.05 30.2332 126.953 30.2332 128.067Z" fill="white"/>
<path d="M31.3336 134.777C31.3336 135.388 30.8403 135.885 30.2331 135.885C29.626 135.885 29.1327 135.388 29.1327 134.777C29.1327 134.166 29.626 133.67 30.2331 133.67C30.8403 133.67 31.3336 134.166 31.3336 134.777Z" fill="white"/>
<path d="M39.6129 128.761C39.9939 128.761 40.3028 128.45 40.3028 128.067C40.3028 127.683 39.9939 127.373 39.6129 127.373C39.2318 127.373 38.9229 127.683 38.9229 128.067C38.9229 128.45 39.2318 128.761 39.6129 128.761Z" fill="white"/>
<path d="M43.5214 134.777C45.0455 134.777 46.2811 133.534 46.2811 132C46.2811 130.466 45.0455 129.223 43.5214 129.223C41.9972 129.223 40.7616 130.466 40.7616 132C40.7616 133.534 41.9972 134.777 43.5214 134.777Z" fill="white"/>
<path d="M49.7895 126.446C49.7895 126.956 49.3789 127.373 48.8684 127.373C48.3613 127.373 47.9473 126.959 47.9473 126.446C47.9473 125.935 48.3578 125.519 48.8684 125.519C49.3789 125.522 49.7895 125.935 49.7895 126.446Z" fill="white"/>
<path d="M50.0206 136.572C50.0206 137.211 49.5066 137.728 48.8718 137.728C48.2371 137.728 47.7231 137.211 47.7231 136.572C47.7231 135.933 48.2371 135.416 48.8718 135.416C49.5031 135.416 50.0206 135.933 50.0206 136.572Z" fill="white"/>
<path d="M27.4906 140.044C27.4906 140.745 26.9249 141.318 26.2246 141.318C25.5243 141.318 24.9586 140.748 24.9586 140.044C24.9586 139.339 25.5243 138.77 26.2246 138.77C26.9214 138.77 27.4906 139.339 27.4906 140.044Z" fill="white"/>
<path d="M26.2246 139.433C26.2246 140.026 25.7451 140.505 25.1586 140.505C24.5687 140.505 24.0927 140.023 24.0927 139.433V115.892C24.0927 115.299 24.5722 114.82 25.1586 114.82C25.7485 114.82 26.2246 115.302 26.2246 115.892V139.433Z" fill="#FFFEFF"/>
<path d="M36.0424 107.411C36.0424 107.411 38.9712 102.968 41.6585 97.2053C44.3424 91.4426 53.4737 83.1562 63.6745 84.2948C63.6745 84.2948 63.2398 89.3632 58.6034 95.7993C53.353 103.089 43.1626 104.266 36.0424 107.411Z" fill="#146D67"/>
<path d="M59.9971 86.4541C59.9971 86.4541 46.7744 95.8827 36.0424 107.408" stroke="white" stroke-width="0.75" stroke-miterlimit="10"/>
<path d="M55.5608 85.1731C55.5608 85.1731 54.895 87.3254 54.4534 90.6754" stroke="white" stroke-width="0.75" stroke-miterlimit="10"/>
<path d="M52.1939 92.4875C52.1939 92.4875 56.0851 93.4179 60.7146 92.4875" stroke="white" stroke-width="0.75" stroke-miterlimit="10"/>
<path d="M49.7136 88.2523C49.7136 88.2523 48.8787 91.4044 48.758 95.355" stroke="white" stroke-width="0.75" stroke-miterlimit="10"/>
<path d="M45.5049 98.1981C45.5049 98.1981 52.7148 98.6078 57.0304 97.667" stroke="white" stroke-width="0.75" stroke-miterlimit="10"/>
<path d="M43.8284 93.7511C43.8284 93.7511 42.9004 97.6079 42.7555 100.708" stroke="white" stroke-width="0.75" stroke-miterlimit="10"/>
<path d="M40.3683 102.992C40.3683 102.992 46.5537 102.93 50.162 102.26" stroke="white" stroke-width="0.75" stroke-miterlimit="10"/>
<path d="M36.9669 101.624C36.9669 101.624 36.5012 90.6962 29.4018 85.2738C22.2988 79.8513 14.4163 79.4451 11.8428 77.4213C11.8428 77.4213 11.6013 86.2458 15.3029 90.4532C19.0009 94.6642 30.8023 95.8792 36.9669 101.624Z" fill="#146D67"/>
<path d="M15.81 82.5591C15.81 82.5591 31.2198 88.1759 36.9669 101.628" stroke="white" stroke-width="0.75" stroke-miterlimit="10"/>
<path d="M12.8605 85.5724C12.8605 85.5724 18.656 86.8013 23.658 86.6659" stroke="white" stroke-width="0.75" stroke-miterlimit="10"/>
<path d="M21.1156 80.8303C21.1156 80.8303 24.241 84.3365 25.1586 87.6865" stroke="white" stroke-width="0.75" stroke-miterlimit="10"/>
<path d="M17.8177 92.3731C17.8177 92.3731 25.9417 90.4985 30.2331 91.9391" stroke="white" stroke-width="0.75" stroke-miterlimit="10"/>
<path d="M27.739 84.1039C27.739 84.1039 30.9231 89.3875 31.2922 93.0325" stroke="white" stroke-width="0.75" stroke-miterlimit="10"/>
<path d="M25.7485 95.6641C25.7485 95.6641 31.0438 95.244 33.9036 96.223" stroke="white" stroke-width="0.75" stroke-miterlimit="10"/>
<path d="M32.8411 88.9502C32.8411 88.9502 34.4383 93.9596 34.6556 97.313" stroke="white" stroke-width="0.75" stroke-miterlimit="10"/>
<path d="M37.4983 90.5539C37.4983 90.5539 38.7643 77.1609 36.0046 69.5202C33.2448 61.8794 26.4592 55.7939 22.7819 55.0753C22.7819 55.0753 18.2973 61.1851 21.8608 69.0515C25.4243 76.9179 35.0835 80.2367 37.4983 90.5539Z" fill="#146D67"/>
<path d="M25.4863 60.1923C25.4863 60.1923 35.656 73.1756 37.4947 90.5539" stroke="white" stroke-width="0.75" stroke-miterlimit="10"/>
<path d="M20.4808 62.9174C20.4808 62.9174 26.473 64.122 30.7195 68.6974" stroke="white" stroke-width="0.75" stroke-miterlimit="10"/>
<path d="M31.4922 61.6781C31.4922 61.6781 32.7169 66.2605 31.7061 70.6901" stroke="white" stroke-width="0.75" stroke-miterlimit="10"/>
<path d="M22.837 70.9608C22.837 70.9608 29.7916 72.3425 33.7001 75.3002" stroke="white" stroke-width="0.75" stroke-miterlimit="10"/>
<path d="M36.2873 70.3811C36.2873 70.3811 35.9458 75.5883 34.9385 78.7717" stroke="white" stroke-width="0.75" stroke-miterlimit="10"/>
<path d="M29.7364 78.5391C29.7364 78.5391 34.9557 81.3892 36.2287 83.2915" stroke="white" stroke-width="0.75" stroke-miterlimit="10"/>
<path d="M26.7524 72.6618C24.3238 71.4607 22.4886 69.3535 21.2743 67.5726C21.4398 68.0586 21.633 68.5516 21.8573 69.0515C25.4208 76.9214 35.0799 80.2366 37.4947 90.5539C37.3809 82.4341 34.3934 76.4388 26.7524 72.6618Z" fill="#48B7AF"/>
<path d="M37.7155 86.9158C37.7155 86.9158 36.6392 90.5157 36.7669 96.2228C36.8945 101.93 36.1321 105.7 35.7596 108.394C35.387 111.088 36.3356 123.366 36.4219 126.751C36.5081 130.136 37.0704 134.663 36.553 135.416C36.0355 136.169 34.697 138.426 32.9308 139.335C31.1646 140.245 28.7912 141.981 28.7912 141.981C28.7912 141.981 31.2922 140.505 32.3719 140.286C33.4517 140.068 34.7453 139.245 35.4767 138.377C36.208 137.509 37.1601 136.162 37.4154 136.079C37.6707 135.996 37.1118 138.669 37.719 140.043C38.3227 141.418 39.1402 142.38 39.2713 143.352C39.2713 143.352 39.3576 142.328 38.9264 141.158C38.4952 139.988 38.1502 138.901 38.1053 138.033C38.0605 137.166 38.1053 135.343 38.4503 135.885C38.7953 136.426 40.6512 140.03 42.0725 140.505C43.4938 140.981 45.0047 140.693 46.9435 141.314C46.9435 141.314 46.0396 140.533 44.915 140.04C43.7939 139.547 42.414 140.2 41.7689 139.332C41.1238 138.464 39.223 136.034 38.9229 135.208C38.6228 134.381 37.888 134.208 37.7155 132.344C37.543 130.479 37.1981 121.061 36.9393 118.937C36.6806 116.812 36.5081 109.175 36.6806 107.915C36.8531 106.655 37.7569 101.232 37.7155 98.9306C37.6741 96.629 36.9842 92.3834 37.7155 86.9158Z" fill="white"/>
<path d="M36.9669 91.9946C36.9669 91.9946 38.1157 82.5313 38.1157 76.3729C38.1157 70.2145 40.6443 51.8121 54.0981 53.7805C54.0981 53.7805 52.2594 55.5162 51.6833 65.469C51.1107 75.4183 45.4773 86.9297 36.9669 91.9946Z" fill="#146D67"/>
<path d="M50.6519 55.1899C50.6519 55.1899 43.2937 59.3523 40.7616 73.7485C38.233 88.1448 36.9669 91.9912 36.9669 91.9912" stroke="white" stroke-width="0.75" stroke-miterlimit="10"/>
<path d="M44.7874 56.5577C44.7874 56.5577 43.1764 60.4111 43.5214 64.445" stroke="white" stroke-width="0.75" stroke-miterlimit="10"/>
<path d="M41.8448 69.062C41.8448 69.062 46.7675 68.3989 51.8144 63.6326" stroke="white" stroke-width="0.75" stroke-miterlimit="10"/>
<path d="M40.427 75.6335C40.427 75.6335 45.5774 74.8906 50.5794 72.2245" stroke="white" stroke-width="0.75" stroke-miterlimit="10"/>
<path d="M39.6129 66.0522C39.6129 66.0522 40.0027 69.7598 41.2446 71.374" stroke="white" stroke-width="0.75" stroke-miterlimit="10"/>
<path d="M38.1812 74.4949C38.1812 74.4949 38.2537 80.4554 39.1748 82.3057" stroke="white" stroke-width="0.75" stroke-miterlimit="10"/>
<path d="M47.2298 80.6949C47.2298 80.6949 42.9039 83.6874 38.7849 84.2393" stroke="white" stroke-width="0.75" stroke-miterlimit="10"/>
<path d="M56.4577 111.116C56.4577 112.074 55.685 112.851 54.7329 112.851H20.6982C19.7461 112.851 18.9733 112.074 18.9733 111.116V106.648C18.9733 105.69 19.7461 104.912 20.6982 104.912H54.7363C55.6884 104.912 56.4612 105.69 56.4612 106.648V111.116H56.4577Z" fill="#FFFEFF"/>
</svg>
