<svg width="185" height="124" viewBox="0 0 185 124" fill="none" xmlns="http://www.w3.org/2000/svg">
<path d="M183.757 123.933H1.24436C0.568888 123.933 0.0189819 123.191 0.0189819 122.279C0.0189819 121.368 0.568888 120.626 1.24436 120.626H183.757C184.432 120.626 184.982 121.368 184.982 122.279C184.982 123.191 184.432 123.933 183.757 123.933Z" fill="#371D3F"/>
<path d="M154.82 103.46H148.537V106.335H154.82V103.46Z" fill="#AD6B34"/>
<path d="M153.449 103.46H147.922V106.335H153.449V103.46Z" fill="#915426"/>
<path opacity="0.8" d="M111.948 52.9288H110.829V44.72C110.829 42.1084 108.696 39.9759 106.07 39.9759C102.829 39.9759 100.197 37.3526 100.197 34.1217V17.8853C100.197 13.1471 96.3293 9.29683 91.5821 9.29683C86.829 9.29683 82.9667 13.1471 82.9667 17.8853V22.8047H81.8473V17.8853C81.8473 12.5336 86.2136 8.18091 91.5821 8.18091C96.9505 8.18091 101.317 12.5336 101.317 17.8853V34.1217C101.317 36.7333 103.45 38.86 106.07 38.86C109.311 38.86 111.942 41.4891 111.942 44.7142V52.9288H111.948Z" fill="white"/>
<path opacity="0.8" d="M39.339 41.7927H38.2196V20.7012C38.2196 15.0047 42.8672 10.3658 48.5873 10.3658C54.3074 10.3658 58.9551 14.9989 58.9551 20.7012V27.5428C58.9551 29.1144 60.2386 30.3939 61.8151 30.3939C63.3917 30.3939 64.6752 29.1144 64.6752 27.5428V8.22742C64.6752 4.19024 67.9689 0.906738 72.0188 0.906738C76.0686 0.906738 79.3623 4.19024 79.3623 8.22742V22.7987H78.2429V8.22742C78.2429 4.8037 75.4473 2.02266 72.0188 2.02266C68.5843 2.02266 65.7887 4.80954 65.7887 8.22742V27.5428C65.7887 29.7279 64.0071 31.5099 61.8093 31.5099C59.6173 31.5099 57.8298 29.7337 57.8298 27.5428V20.7012C57.8298 15.6182 53.6803 11.4817 48.5815 11.4817C43.4826 11.4817 39.3331 15.6182 39.3331 20.7012V41.7927H39.339Z" fill="white"/>
<path opacity="0.8" d="M43.8166 68.5514C43.2246 68.3703 42.832 67.8211 42.832 67.2018V39.4031H34.7323V67.2018C34.7323 67.8211 34.328 68.3703 33.7302 68.5514C26.6152 70.7599 21.5104 77.5138 21.8327 85.4071C22.1844 93.9664 29.0884 101.018 37.6627 101.567C47.5323 102.198 55.7374 94.3987 55.7374 84.6943C55.7433 77.1049 50.7264 70.6898 43.8166 68.5514Z" fill="white"/>
<path opacity="0.5" d="M43.8166 68.5514C43.2305 68.3703 42.8261 67.8153 42.8261 67.2018V39.4031H42.2694V67.2018C42.2694 68.0723 42.8261 68.8202 43.6525 69.0772C50.5507 71.2156 55.1807 77.4846 55.1807 84.6943C55.1807 93.7035 47.8195 101.042 38.7822 101.042C38.4247 101.042 38.0613 101.03 37.6979 101.007C29.4577 100.475 22.7295 93.6158 22.3954 85.3779C22.0907 77.9812 26.8144 71.2799 33.8943 69.0831C34.7265 68.826 35.2833 68.0723 35.2833 67.2018V39.4031H34.7265V67.2018C34.7265 67.8211 34.3221 68.3645 33.7243 68.5514C26.6093 70.7599 21.5046 77.5138 21.8328 85.4129C22.1844 93.9664 29.0826 101.018 37.6628 101.573C38.0379 101.597 38.413 101.608 38.7822 101.608C48.1477 101.608 55.7375 94.0365 55.7375 84.706C55.7433 77.1049 50.7206 70.6898 43.8166 68.5514Z" fill="white"/>
<path d="M33.7712 83.3855C33.7712 83.3855 34.9903 83.7244 37.6393 83.3855C40.2943 83.0466 53.4811 78.2499 54.2781 83.5549L52.977 87.9836C52.977 87.9836 46.2957 88.9943 44.5258 88.9417C42.7558 88.8891 38.8115 88.2348 37.9675 87.7323C35.4474 86.2425 33.7712 83.3855 33.7712 83.3855Z" fill="url(#paint0_linear_219_17)"/>
<path d="M54.3484 84.9804C54.3484 87.2473 53.862 89.3915 52.9828 91.337C50.5506 96.7355 45.1118 100.492 38.7821 100.492C31.5558 100.492 25.4899 95.5904 23.7375 88.9416C23.3976 87.6796 23.2159 86.3475 23.2159 84.9804C23.2159 84.2033 23.2745 83.4263 23.3917 82.6784C25.5016 82.398 28.0921 82.3746 31.1573 82.8946C40.7338 84.5188 44.0686 86.9259 49.3843 85.9386C51.9631 85.4536 53.1587 84.4604 54.2781 83.5548C54.325 84.028 54.3484 84.4954 54.3484 84.9804Z" fill="url(#paint1_linear_219_17)"/>
<path d="M52.977 91.3371C50.5448 96.7356 45.106 100.492 38.7763 100.492C31.55 100.492 25.484 95.5904 23.7317 88.9417C26.2401 91.4831 30.3016 93.715 37.3053 94.5855C49.4312 96.0929 52.7426 91.5591 52.977 91.3371Z" fill="url(#paint2_linear_219_17)"/>
<path d="M29.7097 87.1305C29.7097 87.4401 29.4577 87.6855 29.1529 87.6855C28.8423 87.6855 28.5961 87.4343 28.5961 87.1305C28.5961 86.8208 28.8481 86.5754 29.1529 86.5754C29.4577 86.5754 29.7097 86.8208 29.7097 87.1305Z" fill="url(#paint3_linear_219_17)"/>
<path d="M36.7133 91.2145C36.7133 91.5241 36.4613 91.7695 36.1566 91.7695C35.8518 91.7695 35.5998 91.5183 35.5998 91.2145C35.5998 90.9048 35.8518 90.6594 36.1566 90.6594C36.4613 90.6594 36.7133 90.9048 36.7133 91.2145Z" fill="url(#paint4_linear_219_17)"/>
<path d="M45.5865 91.7694C45.5865 91.933 45.4517 92.0674 45.2876 92.0674C45.1235 92.0674 44.9887 91.933 44.9887 91.7694C44.9887 91.6058 45.1235 91.4714 45.2876 91.4714C45.4517 91.4714 45.5865 91.6058 45.5865 91.7694Z" fill="url(#paint5_linear_219_17)"/>
<path d="M45.5865 97.4136C45.7516 97.4136 45.8854 97.2802 45.8854 97.1156C45.8854 96.951 45.7516 96.8176 45.5865 96.8176C45.4215 96.8176 45.2876 96.951 45.2876 97.1156C45.2876 97.2802 45.4215 97.4136 45.5865 97.4136Z" fill="url(#paint6_linear_219_17)"/>
<path d="M46.6826 93.4286C46.948 93.4286 47.1631 93.2141 47.1631 92.9495C47.1631 92.6849 46.948 92.4705 46.6826 92.4705C46.4171 92.4705 46.202 92.6849 46.202 92.9495C46.202 93.2141 46.4171 93.4286 46.6826 93.4286Z" fill="url(#paint7_linear_219_17)"/>
<path d="M40.7514 95.3043C40.7514 95.4679 40.6166 95.6023 40.4525 95.6023C40.2884 95.6023 40.1536 95.4679 40.1536 95.3043C40.1536 95.1407 40.2884 95.0063 40.4525 95.0063C40.6225 95.0122 40.7514 95.1407 40.7514 95.3043Z" fill="url(#paint8_linear_219_17)"/>
<path d="M35.8928 98.0037C36.0578 98.0037 36.1917 97.8702 36.1917 97.7057C36.1917 97.5411 36.0578 97.4077 35.8928 97.4077C35.7277 97.4077 35.5939 97.5411 35.5939 97.7057C35.5939 97.8702 35.7277 98.0037 35.8928 98.0037Z" fill="url(#paint9_linear_219_17)"/>
<path d="M31.0342 94.352C31.1993 94.352 31.3331 94.2186 31.3331 94.0541C31.3331 93.8895 31.1993 93.7561 31.0342 93.7561C30.8691 93.7561 30.7353 93.8895 30.7353 94.0541C30.7353 94.2186 30.8691 94.352 31.0342 94.352Z" fill="url(#paint10_linear_219_17)"/>
<path d="M44.7309 89.3916C45.2034 89.3916 45.5865 89.0097 45.5865 88.5385C45.5865 88.0674 45.2034 87.6855 44.7309 87.6855C44.2583 87.6855 43.8752 88.0674 43.8752 88.5385C43.8752 89.0097 44.2583 89.3916 44.7309 89.3916Z" fill="url(#paint11_linear_219_17)"/>
<path d="M41.1558 81.0312C41.4439 81.0312 41.6774 80.7984 41.6774 80.5112C41.6774 80.224 41.4439 79.9912 41.1558 79.9912C40.8677 79.9912 40.6342 80.224 40.6342 80.5112C40.6342 80.7984 40.8677 81.0312 41.1558 81.0312Z" fill="url(#paint12_linear_219_17)"/>
<path d="M37.1998 80.511C37.1998 80.9842 36.8188 81.364 36.3441 81.364C35.8694 81.364 35.4884 80.9842 35.4884 80.511C35.4884 80.0377 35.8694 79.658 36.3441 79.658C36.8188 79.658 37.1998 80.0377 37.1998 80.511Z" fill="url(#paint13_linear_219_17)"/>
<path d="M43.0723 73.2778C43.0723 73.7511 42.6913 74.1308 42.2166 74.1308C41.7419 74.1308 41.3609 73.7511 41.3609 73.2778C41.3609 72.8046 41.7419 72.4248 42.2166 72.4248C42.6913 72.4248 43.0723 72.8046 43.0723 73.2778Z" fill="url(#paint14_linear_219_17)"/>
<path d="M40.8218 77.9226C41.2943 77.9226 41.6774 77.5407 41.6774 77.0696C41.6774 76.5985 41.2943 76.2166 40.8218 76.2166C40.3492 76.2166 39.9661 76.5985 39.9661 77.0696C39.9661 77.5407 40.3492 77.9226 40.8218 77.9226Z" fill="url(#paint15_linear_219_17)"/>
<path d="M33.8884 76.8828C33.8884 77.356 33.5074 77.7358 33.0327 77.7358C32.558 77.7358 32.177 77.356 32.177 76.8828C32.177 76.4095 32.558 76.0298 33.0327 76.0298C33.5016 76.0298 33.8884 76.4095 33.8884 76.8828Z" fill="url(#paint16_linear_219_17)"/>
<path opacity="0.8" d="M43.1074 39.403C43.7287 39.403 44.2268 38.9005 44.2268 38.2871C44.2268 37.6678 43.7228 37.1711 43.1074 37.1711H34.4569C33.8357 37.1711 33.3375 37.6736 33.3375 38.2871C33.3375 38.9064 33.8415 39.403 34.4569 39.403H34.7324H42.8261H43.1074Z" fill="white"/>
<path opacity="0.4" d="M38.7822 39.4031V101.603C38.4071 101.603 38.0437 101.591 37.6686 101.567C29.0943 101.018 22.1903 93.9664 21.8386 85.4071C21.5104 77.508 26.6152 70.7599 33.7302 68.5456C34.328 68.3645 34.7324 67.8153 34.7324 67.1959V39.4031H38.7822Z" fill="url(#paint17_linear_219_17)"/>
<path opacity="0.3" d="M52.8129 84.6125C52.8129 92.3597 46.5067 98.6463 38.7353 98.6463C36.9888 98.6463 35.3126 98.3308 33.7712 97.7523C34.2108 97.7932 34.6562 97.8108 35.1075 97.8108C42.8789 97.8108 49.1851 91.5242 49.1851 83.777C49.1851 77.7651 45.3932 72.6353 40.0657 70.6372C47.21 71.3091 52.8129 77.3094 52.8129 84.6125Z" fill="url(#paint18_linear_219_17)"/>
<path opacity="0.5" d="M41.9646 37.1711H40.8042V39.403H41.9646V37.1711Z" fill="white"/>
<path opacity="0.5" d="M41.4899 40.3086H40.1536V70.6371H41.4899V40.3086Z" fill="url(#paint19_linear_219_17)"/>
<path opacity="0.5" d="M42.8261 39.4031H34.7324V40.3087H42.8261V39.4031Z" fill="#78BDC1"/>
<path d="M38.7879 91.3431C29.1176 91.3431 21.692 89.3157 21.6158 89.2924C21.3169 89.2106 21.147 88.9009 21.229 88.6088C21.3111 88.3108 21.6217 88.1414 21.9147 88.2232C21.985 88.2407 29.2759 90.233 38.7879 90.233C48.9447 90.233 55.5791 88.2465 55.6436 88.229C55.9366 88.1355 56.2531 88.305 56.341 88.5971C56.4289 88.8892 56.2648 89.2047 55.9718 89.2924C55.9014 89.3099 49.1088 91.3431 38.7879 91.3431Z" fill="#BCBCBC"/>
<path d="M56.3586 88.7256C56.3703 88.971 56.2179 89.2047 55.9659 89.2806C55.9483 89.2865 55.5967 89.3916 54.9462 89.5552C54.782 89.5961 54.6062 89.637 54.407 89.6838C51.8282 90.2855 46.2194 91.3372 38.7879 91.3372C38.6063 91.3372 38.4129 91.3372 38.2312 91.3314C31.0751 91.2729 25.2319 90.1278 22.8173 89.5844C22.6122 89.5319 22.4305 89.4968 22.2781 89.4501C21.8678 89.3566 21.6334 89.2923 21.6276 89.2865C21.3697 89.2164 21.2056 88.9768 21.2173 88.7256C21.4107 88.7782 21.8151 88.8833 22.4012 89.0177C22.5711 89.0528 22.747 89.0937 22.9462 89.1346C25.736 89.7363 31.4092 90.7471 38.237 90.7997C38.4187 90.8055 38.6063 90.8055 38.7938 90.8055C45.9264 90.8055 51.4238 89.8707 54.2956 89.2339C54.4831 89.193 54.6648 89.1579 54.8289 89.117C55.5967 88.9418 56.1183 88.7957 56.3586 88.7256Z" fill="#8C8C8C"/>
<path d="M23.4679 89.304L14.9228 120.217C14.8584 120.468 14.6298 120.626 14.3895 120.626C14.3367 120.626 14.2899 120.62 14.243 120.602C13.9441 120.521 13.7682 120.211 13.8503 119.919L22.3953 89.0002C22.4774 88.7022 22.788 88.5269 23.081 88.6087C23.3741 88.6964 23.5558 89.0002 23.4679 89.304Z" fill="#BCBCBC"/>
<path d="M63.5322 120.608C63.5322 120.608 63.5263 120.608 63.5205 120.614C63.4736 120.626 63.4267 120.632 63.3798 120.632C63.1395 120.632 62.911 120.468 62.8465 120.223L54.3015 89.3039C54.2194 89.006 54.3894 88.6963 54.6883 88.6204C54.9872 88.5386 55.2978 88.708 55.374 89.0118L63.9249 119.93C64.0069 120.217 63.8311 120.526 63.5322 120.608Z" fill="#BCBCBC"/>
<path d="M22.9345 89.1347L22.8114 89.5845L14.2429 120.608C13.944 120.527 13.7682 120.217 13.8503 119.925L22.2722 89.4502L22.3894 89.0178C22.5535 89.0529 22.7352 89.0938 22.9345 89.1347Z" fill="#8C8C8C"/>
<path d="M63.5322 120.608C63.5322 120.608 63.5264 120.608 63.5205 120.614C63.4736 120.626 63.4267 120.632 63.3799 120.632C63.1396 120.632 62.911 120.468 62.8465 120.223L54.407 89.6895L54.3015 89.3039C54.2956 89.2806 54.2898 89.2572 54.2898 89.2397C54.4773 89.1988 54.659 89.1637 54.8231 89.1228L54.9462 89.561L63.5322 120.608Z" fill="#8C8C8C"/>
<path opacity="0.8" d="M84.6136 20.4146V64.1809C84.6136 66.3601 82.8437 68.1246 80.6635 68.1246H80.6576C78.4774 68.1246 76.7074 66.3601 76.7074 64.1809V20.4146H84.6136Z" fill="white"/>
<path d="M83.5528 39.5838C83.5528 39.5838 83.67 39.1339 82.9433 38.8301C82.1345 38.4913 80.4876 39.1281 79.6261 39.0171L81.4781 40.1622L83.5176 40.7465L83.5528 39.5838Z" fill="url(#paint20_linear_219_17)"/>
<path d="M83.5587 39.5899V64.0876C83.5587 65.6826 82.2635 66.9738 80.6635 66.9738C79.8605 66.9738 79.1397 66.6525 78.6122 66.1266C78.0847 65.6008 77.7624 64.888 77.7624 64.0817V38.9472C78.2605 38.8596 78.7939 38.8304 79.3448 38.8888C80.6166 39.0465 81.777 39.9521 82.662 40.0047C83.0019 40.0339 83.4473 39.9405 83.5587 39.5899Z" fill="url(#paint21_linear_219_17)"/>
<path d="M83.5587 51.0994V64.0814C83.5587 65.6765 82.2635 66.9677 80.6635 66.9677C79.8605 66.9677 79.1397 66.6463 78.6122 66.1205C78.0847 65.5947 77.7624 64.8819 77.7624 64.0756V50.5911C78.1961 50.667 78.6591 50.7897 79.1338 50.9767C80.8569 51.6252 82.3865 51.4733 83.5587 51.0994Z" fill="url(#paint22_linear_219_17)"/>
<path d="M81.7243 42.3825C82.0868 42.3825 82.3807 42.0895 82.3807 41.7281C82.3807 41.3667 82.0868 41.0737 81.7243 41.0737C81.3618 41.0737 81.0679 41.3667 81.0679 41.7281C81.0679 42.0895 81.3618 42.3825 81.7243 42.3825Z" fill="url(#paint23_linear_219_17)"/>
<path d="M81.3608 37.1945C81.3608 37.4457 81.1557 37.6502 80.9037 37.6502C80.6517 37.6502 80.4466 37.4457 80.4466 37.1945C80.4466 36.9433 80.6517 36.7388 80.9037 36.7388C81.1557 36.7388 81.3608 36.9433 81.3608 37.1945Z" fill="url(#paint24_linear_219_17)"/>
<path d="M79.1338 36.2421C79.1338 36.3531 79.0458 36.4408 78.9345 36.4408C78.8231 36.4408 78.7352 36.3531 78.7352 36.2421C78.7352 36.1311 78.8231 36.0435 78.9345 36.0435C79.0458 36.0376 79.1338 36.1311 79.1338 36.2421Z" fill="url(#paint25_linear_219_17)"/>
<path d="M79.5499 38.2579C79.7312 38.2579 79.8781 38.1114 79.8781 37.9307C79.8781 37.75 79.7312 37.6035 79.5499 37.6035C79.3687 37.6035 79.2217 37.75 79.2217 37.9307C79.2217 38.1114 79.3687 38.2579 79.5499 38.2579Z" fill="url(#paint26_linear_219_17)"/>
<path d="M82.2166 37.8137C82.2166 37.9014 82.1462 37.9773 82.0525 37.9773C81.9587 37.9773 81.8884 37.9072 81.8884 37.8137C81.8884 37.7203 81.9587 37.6501 82.0525 37.6501C82.1462 37.6501 82.2166 37.7261 82.2166 37.8137Z" fill="url(#paint27_linear_219_17)"/>
<path d="M83.2657 40.4605C83.2657 40.6416 83.1191 40.7877 82.9375 40.7877C82.7558 40.7877 82.6093 40.6416 82.6093 40.4605C82.6093 40.2794 82.7558 40.1333 82.9375 40.1333C83.1191 40.1391 83.2657 40.2852 83.2657 40.4605Z" fill="url(#paint28_linear_219_17)"/>
<path d="M80.1067 41.7927C80.1067 41.8978 80.0246 41.9796 79.9191 41.9796C79.8137 41.9796 79.7316 41.8978 79.7316 41.7927C79.7316 41.6875 79.8137 41.6057 79.9191 41.6057C80.0246 41.6057 80.1067 41.6934 80.1067 41.7927Z" fill="url(#paint29_linear_219_17)"/>
<path d="M81.3785 40.4604C81.3785 40.6123 81.2554 40.735 81.103 40.735C80.9507 40.735 80.8276 40.6123 80.8276 40.4604C80.8276 40.3085 80.9507 40.1858 81.103 40.1858C81.2496 40.1858 81.3785 40.3085 81.3785 40.4604Z" fill="url(#paint30_linear_219_17)"/>
<path d="M82.3572 43.3059C82.3572 43.411 82.2752 43.4928 82.1697 43.4928C82.0642 43.4928 81.9821 43.411 81.9821 43.3059C81.9821 43.2007 82.0642 43.1189 82.1697 43.1189C82.2693 43.1189 82.3572 43.2065 82.3572 43.3059Z" fill="url(#paint31_linear_219_17)"/>
<path d="M79.9191 43.4401C79.9191 43.5453 79.8371 43.6271 79.7316 43.6271C79.6261 43.6271 79.544 43.5453 79.544 43.4401C79.544 43.335 79.6261 43.2532 79.7316 43.2532C79.8371 43.2532 79.9191 43.335 79.9191 43.4401Z" fill="url(#paint32_linear_219_17)"/>
<path d="M80.2707 42.5755C80.2707 42.6106 80.2414 42.6398 80.2063 42.6398C80.1711 42.6398 80.1418 42.6106 80.1418 42.5755C80.1418 42.5404 80.1711 42.5112 80.2063 42.5112C80.2414 42.5112 80.2707 42.5404 80.2707 42.5755Z" fill="url(#paint33_linear_219_17)"/>
<path d="M78.5418 41.2376C78.5418 41.2727 78.5125 41.3019 78.4774 41.3019C78.4422 41.3019 78.4129 41.2727 78.4129 41.2376C78.4129 41.2026 78.4422 41.1733 78.4774 41.1733C78.5125 41.1733 78.5418 41.1967 78.5418 41.2376Z" fill="url(#paint34_linear_219_17)"/>
<path d="M78.9638 39.8645C78.9638 40.0982 78.7763 40.2852 78.5419 40.2852C78.3074 40.2852 78.1199 40.0982 78.1199 39.8645C78.1199 39.6308 78.3074 39.4438 78.5419 39.4438C78.7704 39.4438 78.9638 39.6308 78.9638 39.8645Z" fill="url(#paint35_linear_219_17)"/>
<path opacity="0.4" d="M80.6575 20.4146V68.1246H80.6517C78.4715 68.1246 76.7015 66.3601 76.7015 64.1809V20.4146H80.6575Z" fill="url(#paint36_linear_219_17)"/>
<path opacity="0.5" d="M84.0569 20.4146V64.1809C84.0569 66.0505 82.5331 67.5695 80.6635 67.5695C78.788 67.5695 77.2642 66.0505 77.2642 64.1809V20.4146H76.7074V64.1809C76.7074 66.3601 78.4774 68.1246 80.6635 68.1246C82.8437 68.1246 84.6136 66.3601 84.6136 64.1809V20.4146H84.0569Z" fill="white"/>
<path opacity="0.8" d="M84.7015 20.4144H76.6077C75.8634 20.4144 75.2598 19.8126 75.2598 19.0706C75.2598 18.3286 75.8634 17.7268 76.6077 17.7268H84.7015C85.4458 17.7268 86.0495 18.3286 86.0495 19.0706C86.0553 19.8067 85.4517 20.4144 84.7015 20.4144Z" fill="white"/>
<path opacity="0.5" d="M84.6136 20.4146H76.7015V21.4545H84.6136V20.4146Z" fill="#78BDC1"/>
<path opacity="0.5" d="M83.7579 17.7212H82.4685V20.4088H83.7579V17.7212Z" fill="white"/>
<path opacity="0.5" d="M83.0781 21.4487H81.7359V60.8857H83.0781V21.4487Z" fill="url(#paint37_linear_219_17)"/>
<path opacity="0.8" d="M121.314 97.9859H101.411C99.3301 97.9859 97.9645 95.8125 98.8788 93.9429L106.404 78.5946C107.06 77.2508 107.406 75.7844 107.406 74.2887V50.1182H115.318V74.2828C115.318 75.7785 115.658 77.2508 116.321 78.5888L123.846 93.9371C124.76 95.8067 123.4 97.9859 121.314 97.9859Z" fill="white"/>
<g opacity="0.5">
<path d="M123.846 93.9429L116.321 78.5946C115.664 77.2508 115.318 75.7844 115.318 74.2887V50.1182H114.762V74.2828C114.762 75.8545 115.125 77.4261 115.816 78.8342L123.348 94.1825C123.688 94.8836 123.646 95.7015 123.23 96.3617C122.82 97.0219 122.105 97.4192 121.314 97.4192H101.411C100.625 97.4192 99.9103 97.0219 99.4942 96.3617C99.0781 95.7015 99.037 94.8836 99.377 94.1825L106.908 78.8342C107.6 77.4261 107.963 75.8486 107.963 74.2828V50.1182H107.406V74.2828C107.406 75.7785 107.066 77.2508 106.404 78.5888L98.8788 93.9371C97.9645 95.8008 99.3242 97.9801 101.411 97.9801H121.314C123.4 97.9859 124.76 95.8067 123.846 93.9429Z" fill="white"/>
</g>
<path opacity="0.5" d="M113.806 50.9771H112.552V73.7278H113.806V50.9771Z" fill="url(#paint38_linear_219_17)"/>
<path d="M110.577 66.8745C110.577 66.8745 111.351 67.3711 112.183 67.155C112.968 66.9505 114.287 66.9446 114.334 67.7334C114.334 67.7334 114.129 69.1239 114.082 69.1239C114.035 69.1239 111.427 68.2709 111.298 68.154C111.181 68.043 110.577 66.8745 110.577 66.8745Z" fill="url(#paint39_linear_219_17)"/>
<path d="M120.212 97.0802H102.524C100.514 97.0802 98.7908 96.3265 100.274 93.4929C100.274 93.4929 101.868 90.2269 103.544 86.7974C105.373 83.0523 107.289 79.1028 107.348 78.9392L107.658 78.203C108.238 76.8592 108.397 75.422 108.397 73.9614V67.9085C108.397 67.1081 109.745 66.7049 110.665 66.8919C111.556 67.0672 111.878 68.0254 113.162 68.1364C113.689 68.1831 114.211 68.0896 114.34 67.7332V73.9614C114.34 75.422 114.498 76.8592 115.078 78.203L115.389 78.9392C115.447 79.1145 117.651 83.6307 119.573 87.5861C121.103 90.7119 122.463 93.4929 122.463 93.4929C123.945 96.3324 122.222 97.0802 120.212 97.0802Z" fill="url(#paint40_linear_219_17)"/>
<path d="M120.212 97.0804H102.524C100.514 97.0804 98.7908 96.3268 100.274 93.4931C100.274 93.4931 101.868 90.2272 103.544 86.7976C105.115 86.8852 107.084 87.1482 109.575 87.6681C113.777 88.5504 117.088 88.2758 119.573 87.5922C121.103 90.7179 122.463 93.499 122.463 93.499C123.945 96.3326 122.222 97.0804 120.212 97.0804Z" fill="url(#paint41_linear_219_17)"/>
<path opacity="0.4" d="M111.362 50.1182V97.9859H101.411C99.3301 97.9859 97.9645 95.8125 98.8788 93.9429L106.404 78.5946C107.06 77.2508 107.406 75.7844 107.406 74.2887V50.1182H111.362Z" fill="url(#paint42_linear_219_17)"/>
<path d="M111.52 73.1845C112.038 73.1845 112.458 72.766 112.458 72.2497C112.458 71.7335 112.038 71.3149 111.52 71.3149C111.003 71.3149 110.583 71.7335 110.583 72.2497C110.583 72.766 111.003 73.1845 111.52 73.1845Z" fill="url(#paint43_linear_219_17)"/>
<path d="M113.583 70.4501C113.583 70.7072 113.378 70.9116 113.12 70.9116C112.863 70.9116 112.657 70.7072 112.657 70.4501C112.657 70.193 112.863 69.9885 113.12 69.9885C113.378 69.9885 113.583 70.193 113.583 70.4501Z" fill="url(#paint44_linear_219_17)"/>
<path d="M112.869 75.3929C113.092 75.3929 113.273 75.2125 113.273 74.9898C113.273 74.7672 113.092 74.5867 112.869 74.5867C112.645 74.5867 112.464 74.7672 112.464 74.9898C112.464 75.2125 112.645 75.3929 112.869 75.3929Z" fill="url(#paint45_linear_219_17)"/>
<path d="M113.583 69.3636C113.807 69.3636 113.988 69.1831 113.988 68.9605C113.988 68.7379 113.807 68.5574 113.583 68.5574C113.36 68.5574 113.179 68.7379 113.179 68.9605C113.179 69.1831 113.36 69.3636 113.583 69.3636Z" fill="url(#paint46_linear_219_17)"/>
<path d="M109.979 67.2486C110.202 67.2486 110.384 67.0682 110.384 66.8455C110.384 66.6229 110.202 66.4424 109.979 66.4424C109.756 66.4424 109.575 66.6229 109.575 66.8455C109.575 67.0682 109.756 67.2486 109.979 67.2486Z" fill="url(#paint47_linear_219_17)"/>
<path d="M109.815 75.2178C109.815 75.3522 109.709 75.4574 109.575 75.4574C109.44 75.4574 109.334 75.3522 109.334 75.2178C109.334 75.0834 109.44 74.9783 109.575 74.9783C109.704 74.9783 109.815 75.0834 109.815 75.2178Z" fill="url(#paint48_linear_219_17)"/>
<path d="M109.815 70.6895C109.815 70.8239 109.709 70.929 109.575 70.929C109.44 70.929 109.334 70.8239 109.334 70.6895C109.334 70.5551 109.44 70.45 109.575 70.45C109.704 70.45 109.815 70.5551 109.815 70.6895Z" fill="url(#paint49_linear_219_17)"/>
<path opacity="0.5" d="M115.318 50.1182H107.406V50.977H115.318V50.1182Z" fill="#78BDC1"/>
<path opacity="0.8" d="M115.676 50.1181H107.055C106.416 50.1181 105.906 49.604 105.906 48.973C105.906 48.3362 106.422 47.8279 107.055 47.8279H115.676C116.315 47.8279 116.825 48.342 116.825 48.973C116.825 49.604 116.309 50.1181 115.676 50.1181Z" fill="white"/>
<path opacity="0.5" d="M114.597 47.822H113.46V50.1181H114.597V47.822Z" fill="white"/>
<path d="M92.4085 15.1917H89.8004V87.6623H92.4085V15.1917Z" fill="#BCBCBC"/>
<path d="M92.0275 15.1917H91.5411V87.6623H92.0275V15.1917Z" fill="#E8E8E8"/>
<path d="M91.1015 15.1917H89.8004V87.6623H91.1015V15.1917Z" fill="#A0A0A0"/>
<path d="M94.448 87.1306H87.7491V117.617H94.448V87.1306Z" fill="#BCBCBC"/>
<path d="M90.4451 87.1306H87.7491V117.617H90.4451V87.1306Z" fill="#AAAAAA"/>
<path d="M93.8443 87.1306H91.6114V116.676H93.8443V87.1306Z" fill="#E8E8E8"/>
<path opacity="0.5" d="M92.4084 28.3899H89.8003V28.6002H92.4084V28.3899Z" fill="#727272"/>
<path opacity="0.5" d="M84.6135 30.6626H76.7014V31.241H84.6135V30.6626Z" fill="#78BDC1"/>
<path d="M85.0531 24.5864H76.1682V30.6626H85.0531V24.5864Z" fill="#BCBCBC"/>
<path d="M78.6824 24.5864H76.1682V30.6626H78.6824V24.5864Z" fill="#A0A0A0"/>
<path d="M84.3732 24.5864H83.5527V30.6626H84.3732V24.5864Z" fill="#E8E8E8"/>
<path d="M95.3739 27.5952H85.0531V28.0217H95.3739V27.5952Z" fill="#BCBCBC"/>
<path opacity="0.5" d="M95.3739 27.8054H85.0531V28.0158H95.3739V27.8054Z" fill="#727272"/>
<path d="M92.6194 26.9292H89.5835V28.3898H92.6194V26.9292Z" fill="#BCBCBC"/>
<path d="M90.8318 26.9292H89.5835V28.3898H90.8318V26.9292Z" fill="#A0A0A0"/>
<path opacity="0.5" d="M92.215 26.9292H91.834V28.3898H92.215V26.9292Z" fill="#E8E8E8"/>
<path d="M96.4113 25.7724V29.8447C96.4113 30.1251 96.1768 30.3588 95.8897 30.3588C95.5966 30.3588 95.3739 30.1251 95.3739 29.8447V25.7724C95.3739 25.4803 95.5966 25.2524 95.8897 25.2524C96.1768 25.2524 96.4113 25.4803 96.4113 25.7724Z" fill="#BCBCBC"/>
<path d="M95.8897 25.2524V30.3588C95.5966 30.3588 95.3739 30.1251 95.3739 29.8447V25.7724C95.3739 25.4803 95.5966 25.2524 95.8897 25.2524Z" fill="#8C8C8C"/>
<path opacity="0.5" d="M89.7954 57.2957H92.4034V57.0853H89.7954V57.2957Z" fill="#727272"/>
<path opacity="0.5" d="M107.409 59.9395H115.321V59.361H107.409V59.9395Z" fill="#78BDC1"/>
<path d="M106.97 59.3599H115.855V53.2836H106.97V59.3599Z" fill="#BCBCBC"/>
<path d="M107.68 59.3599H110.194V53.2836H107.68V59.3599Z" fill="#A0A0A0"/>
<path d="M114.187 59.3599H115.008V53.2836H114.187V59.3599Z" fill="#E8E8E8"/>
<path d="M86.8316 56.7175H106.969V56.291H86.8316V56.7175Z" fill="#BCBCBC"/>
<path opacity="0.5" d="M86.8316 56.7148H106.969V56.5045H86.8316V56.7148Z" fill="#727272"/>
<path d="M89.5844 57.0867H92.6203V55.626H89.5844V57.0867Z" fill="#BCBCBC"/>
<path d="M89.587 57.0867H90.9877V55.626H89.587V57.0867Z" fill="#A0A0A0"/>
<path opacity="0.5" d="M91.8439 57.0867H92.2249V55.626H91.8439V57.0867Z" fill="#E8E8E8"/>
<path d="M85.7917 54.471V58.5433C85.7917 58.8237 86.0261 59.0574 86.3133 59.0574C86.6063 59.0574 86.829 58.8237 86.829 58.5433V54.471C86.829 54.1789 86.6063 53.951 86.3133 53.951C86.0261 53.9452 85.7917 54.1789 85.7917 54.471Z" fill="#8C8C8C"/>
<path d="M86.3191 53.9451V59.0573C86.6122 59.0573 86.8349 58.8236 86.8349 58.5431V54.4709C86.829 54.1788 86.6063 53.9451 86.3191 53.9451Z" fill="#BCBCBC"/>
<path d="M102.36 120.479H75.7462C74.6913 120.479 73.8356 119.626 73.8356 118.575C73.8356 117.523 74.6913 116.67 75.7462 116.67H102.36C103.415 116.67 104.271 117.523 104.271 118.575C104.271 119.626 103.415 120.479 102.36 120.479Z" fill="#BCBCBC"/>
<path d="M92.4026 120.479H75.7462C74.6913 120.479 73.8356 119.626 73.8356 118.575C73.8356 117.523 74.6913 116.67 75.7462 116.67H92.4026V120.479Z" fill="#AAAAAA"/>
<path d="M100.408 116.676H98.5916V120.48H100.408V116.676Z" fill="#E8E8E8"/>
<path opacity="0.8" d="M46.1141 120.48H31.5676C31.3683 120.48 31.1984 120.34 31.1632 120.147L29.8328 113.229C29.7859 112.972 29.9793 112.739 30.2372 112.739H47.4386C47.6965 112.739 47.8958 112.972 47.843 113.229L46.5126 120.147C46.4833 120.34 46.3075 120.48 46.1141 120.48Z" fill="white"/>
<path d="M46.3544 116.226L45.7449 119.41C45.7156 119.586 45.5573 119.714 45.3815 119.714H32.3061C32.1244 119.714 31.972 119.592 31.9427 119.41L31.3332 116.226H46.3544Z" fill="url(#paint50_linear_219_17)"/>
<path opacity="0.5" d="M38.9815 109.361C38.9815 109.361 39.4387 113.106 38.5771 115.075C37.3522 117.88 31.4797 117.184 32.8336 118.622C33.6951 119.539 40.7691 117.967 44.6489 119.095" stroke="white" stroke-width="0.7145" stroke-miterlimit="10" stroke-linecap="round"/>
<g opacity="0.5">
<path d="M47.3389 113.229L46.0437 119.989H31.6379L30.3427 113.229H47.3389ZM47.4386 112.739H30.243C29.9851 112.739 29.7859 112.972 29.8386 113.229L31.169 120.147C31.2042 120.34 31.38 120.48 31.5734 120.48H46.114C46.3133 120.48 46.4833 120.34 46.5184 120.147L47.8488 113.229C47.8957 112.972 47.7023 112.739 47.4386 112.739Z" fill="white"/>
</g>
<path opacity="0.4" d="M38.9874 112.738V120.485H31.5735C31.3683 120.485 31.2042 120.345 31.1691 120.147L30.4892 116.606L29.8387 113.223C29.7918 112.972 29.9852 112.732 30.2431 112.732H38.9874V112.738Z" fill="url(#paint51_linear_219_17)"/>
<path opacity="0.5" d="M41.1206 111.027H36.8305C36.684 111.027 36.5668 110.91 36.5668 110.764C36.5668 110.618 36.684 110.501 36.8305 110.501H41.1206C41.2672 110.501 41.3844 110.618 41.3844 110.764C41.3844 110.91 41.2672 111.027 41.1206 111.027Z" fill="white"/>
<path opacity="0.5" d="M41.3845 110.764C41.3845 110.618 41.2672 110.507 41.1266 110.501H41.1207H36.8424H36.8365C36.69 110.501 36.5728 110.618 36.5728 110.764C36.5728 110.91 36.69 111.027 36.8365 111.027H36.8424V112.738H41.1266V111.027C41.2672 111.027 41.3845 110.91 41.3845 110.764Z" fill="white"/>
<path d="M38.9873 103.566C38.9873 103.566 37.0357 106.382 37.0474 107.731C37.0533 108.655 37.5397 109.139 38.0203 109.397C38.6181 109.712 39.3507 109.712 39.9485 109.397C40.4291 109.145 40.9155 108.66 40.9214 107.731C40.939 106.382 38.9873 103.566 38.9873 103.566Z" fill="url(#paint52_linear_219_17)"/>
<path d="M38.9874 104.565C38.9874 104.565 37.5515 106.639 37.5574 107.632C37.5632 108.31 37.9207 108.666 38.2724 108.853C38.7119 109.087 39.2511 109.087 39.6965 108.853C40.0541 108.666 40.4116 108.31 40.4116 107.632C40.4233 106.639 38.9874 104.565 38.9874 104.565Z" fill="url(#paint53_linear_219_17)"/>
<path opacity="0.5" d="M40.4936 110.501H40.095V111.027H40.4936V110.501Z" fill="white"/>
<path opacity="0.5" d="M40.2943 111.026H39.632V112.627H40.2943V111.026Z" fill="url(#paint54_linear_219_17)"/>
<path opacity="0.5" d="M109.528 44.7724C109.528 45.5845 108.871 46.2389 108.057 46.2389C107.242 46.2389 106.586 45.5845 106.586 44.7724C106.586 43.9603 107.242 43.3059 108.057 43.3059C108.871 43.3059 109.528 43.9661 109.528 44.7724Z" fill="white"/>
<path opacity="0.5" d="M109.159 44.5504C109.159 45.0178 108.778 45.3975 108.309 45.3975C107.84 45.3975 107.459 45.0178 107.459 44.5504C107.459 44.083 107.84 43.7032 108.309 43.7032C108.778 43.6973 109.159 44.083 109.159 44.5504Z" fill="white"/>
<path opacity="0.5" d="M114.803 44.5502C114.803 44.9768 114.457 45.3273 114.023 45.3273C113.595 45.3273 113.244 44.9826 113.244 44.5502C113.244 44.1179 113.589 43.7732 114.023 43.7732C114.457 43.7732 114.803 44.1237 114.803 44.5502Z" fill="white"/>
<path opacity="0.5" d="M114.609 44.4333C114.609 44.6787 114.41 44.8831 114.158 44.8831C113.912 44.8831 113.706 44.6845 113.706 44.4333C113.706 44.1879 113.906 43.9834 114.158 43.9834C114.41 43.9834 114.609 44.182 114.609 44.4333Z" fill="white"/>
<path opacity="0.5" d="M114.486 40.706C114.486 41.4246 113.9 42.0088 113.179 42.0088C112.458 42.0088 111.872 41.4246 111.872 40.706C111.872 39.9873 112.458 39.4031 113.179 39.4031C113.9 39.4031 114.486 39.9873 114.486 40.706Z" fill="white"/>
<path opacity="0.5" d="M114.158 40.5071C114.158 40.9219 113.818 41.2608 113.402 41.2608C112.986 41.2608 112.646 40.9219 112.646 40.5071C112.646 40.0923 112.986 39.7534 113.402 39.7534C113.818 39.7534 114.158 40.0923 114.158 40.5071Z" fill="white"/>
<path opacity="0.5" d="M110.893 37.9776C110.893 38.4391 110.518 38.8131 110.055 38.8131C109.592 38.8131 109.217 38.4391 109.217 37.9776C109.217 37.516 109.592 37.1421 110.055 37.1421C110.518 37.1421 110.893 37.516 110.893 37.9776Z" fill="white"/>
<path opacity="0.5" d="M110.682 37.8489C110.682 38.1177 110.466 38.3339 110.196 38.3339C109.926 38.3339 109.71 38.1177 109.71 37.8489C109.71 37.5802 109.926 37.364 110.196 37.364C110.466 37.364 110.682 37.586 110.682 37.8489Z" fill="white"/>
<path opacity="0.5" d="M81.7359 14.3562C81.7359 14.8178 81.3608 15.1917 80.8978 15.1917C80.4348 15.1917 80.0597 14.8178 80.0597 14.3562C80.0597 13.8947 80.4348 13.5208 80.8978 13.5208C81.3608 13.5208 81.7359 13.8947 81.7359 14.3562Z" fill="white"/>
<path opacity="0.5" d="M81.5249 14.2276C81.5249 14.4964 81.3081 14.7125 81.0385 14.7125C80.7689 14.7125 80.552 14.4964 80.552 14.2276C80.552 13.9589 80.7689 13.7427 81.0385 13.7427C81.3081 13.7485 81.5249 13.9647 81.5249 14.2276Z" fill="white"/>
<path opacity="0.5" d="M82.5447 9.84575C82.5447 10.1145 82.322 10.3365 82.0524 10.3365C81.7828 10.3365 81.5601 10.1145 81.5601 9.84575C81.5601 9.577 81.7828 9.35498 82.0524 9.35498C82.322 9.36082 82.5447 9.577 82.5447 9.84575Z" fill="white"/>
<path opacity="0.5" d="M82.4216 9.77551C82.4216 9.93325 82.2927 10.0559 82.1403 10.0559C81.9821 10.0559 81.8531 9.92741 81.8531 9.77551C81.8531 9.6236 81.9821 9.49506 82.1403 9.49506C82.2927 9.48922 82.4216 9.61776 82.4216 9.77551Z" fill="white"/>
<path opacity="0.5" d="M85.1234 15.9688C85.1234 16.2376 84.9007 16.4596 84.6311 16.4596C84.3615 16.4596 84.1388 16.2376 84.1388 15.9688C84.1388 15.7 84.3615 15.478 84.6311 15.478C84.9066 15.4839 85.1234 15.7 85.1234 15.9688Z" fill="white"/>
<path opacity="0.5" d="M84.719 16.1732C84.8744 16.1732 85.0004 16.0476 85.0004 15.8927C85.0004 15.7379 84.8744 15.6123 84.719 15.6123C84.5637 15.6123 84.4377 15.7379 84.4377 15.8927C84.4377 16.0476 84.5637 16.1732 84.719 16.1732Z" fill="white"/>
<path opacity="0.5" d="M77.5865 13.7487C77.5865 14.2395 77.1879 14.631 76.7015 14.631C76.2092 14.631 75.8165 14.2337 75.8165 13.7487C75.8165 13.2638 76.215 12.8665 76.7015 12.8665C77.1938 12.8607 77.5865 13.258 77.5865 13.7487Z" fill="white"/>
<path opacity="0.5" d="M77.3637 13.6084C77.3637 13.8888 77.1352 14.1225 76.848 14.1225C76.5608 14.1225 76.3322 13.8947 76.3322 13.6084C76.3322 13.3221 76.5608 13.0942 76.848 13.0942C77.1352 13.0942 77.3637 13.3279 77.3637 13.6084Z" fill="white"/>
<path opacity="0.5" d="M82.2809 11.7971C82.2809 12.4047 81.7827 12.9013 81.1732 12.9013C80.5637 12.9013 80.0655 12.4047 80.0655 11.7971C80.0655 11.1895 80.5637 10.6929 81.1732 10.6929C81.7827 10.6929 82.2809 11.1895 82.2809 11.7971Z" fill="white"/>
<path opacity="0.5" d="M81.9996 11.6276C81.9996 11.9781 81.7124 12.2644 81.3608 12.2644C81.0091 12.2644 80.722 11.9781 80.722 11.6276C80.722 11.277 81.0091 10.9907 81.3608 10.9907C81.7124 10.9907 81.9996 11.277 81.9996 11.6276Z" fill="white"/>
<path opacity="0.5" d="M36.1449 36.0378C36.7567 36.0378 37.2526 35.5434 37.2526 34.9336C37.2526 34.3237 36.7567 33.8293 36.1449 33.8293C35.5331 33.8293 35.0372 34.3237 35.0372 34.9336C35.0372 35.5434 35.5331 36.0378 36.1449 36.0378Z" fill="white"/>
<path opacity="0.5" d="M36.9713 34.7643C36.9713 35.1148 36.6841 35.4011 36.3325 35.4011C35.9808 35.4011 35.6936 35.1148 35.6936 34.7643C35.6936 34.4137 35.9808 34.1274 36.3325 34.1274C36.6841 34.1274 36.9713 34.4137 36.9713 34.7643Z" fill="white"/>
<path opacity="0.5" d="M42.8321 33.8295C42.8321 34.6942 42.1288 35.3894 41.2672 35.3894C40.3998 35.3894 39.7024 34.6883 39.7024 33.8295C39.7024 32.9648 40.4057 32.2695 41.2672 32.2695C42.1288 32.2695 42.8321 32.9648 42.8321 33.8295Z" fill="white"/>
<path opacity="0.5" d="M42.4335 33.5897C42.4335 34.0863 42.0291 34.4953 41.5251 34.4953C41.0269 34.4953 40.6166 34.0921 40.6166 33.5897C40.6166 33.0931 41.021 32.6841 41.5251 32.6841C42.0291 32.6841 42.4335 33.0931 42.4335 33.5897Z" fill="white"/>
<path opacity="0.5" d="M40.8042 31.3348C41.2671 31.3348 41.6423 30.9607 41.6423 30.4993C41.6423 30.0379 41.2671 29.6638 40.8042 29.6638C40.3414 29.6638 39.9662 30.0379 39.9662 30.4993C39.9662 30.9607 40.3414 31.3348 40.8042 31.3348Z" fill="white"/>
<path opacity="0.5" d="M41.4314 30.3707C41.4314 30.6394 41.2146 30.8556 40.945 30.8556C40.6754 30.8556 40.4585 30.6394 40.4585 30.3707C40.4585 30.1019 40.6754 29.8857 40.945 29.8857C41.2146 29.8857 41.4314 30.1019 41.4314 30.3707Z" fill="white"/>
<path opacity="0.5" d="M37.4284 32.2697C37.4284 32.5209 37.2233 32.7254 36.9713 32.7254C36.7193 32.7254 36.5141 32.5209 36.5141 32.2697C36.5141 32.0185 36.7193 31.814 36.9713 31.814C37.2233 31.814 37.4284 32.0185 37.4284 32.2697Z" fill="white"/>
<path opacity="0.5" d="M37.3171 32.1994C37.3171 32.3455 37.1999 32.4623 37.0533 32.4623C36.9068 32.4623 36.7896 32.3455 36.7896 32.1994C36.7896 32.0533 36.9068 31.9365 37.0533 31.9365C37.194 31.9306 37.3171 32.0533 37.3171 32.1994Z" fill="white"/>
<path opacity="0.8" d="M178.589 79.6812V117.225C178.589 119.101 177.059 120.626 175.172 120.626H151.899C150.018 120.626 148.488 119.106 148.488 117.225V79.6812H178.589Z" fill="white"/>
<path opacity="0.5" d="M177.98 79.6812V117.225C177.98 118.762 176.725 120.018 175.172 120.018H151.899C150.358 120.018 149.098 118.768 149.098 117.225V79.6812H148.488V117.225C148.488 119.101 150.012 120.626 151.899 120.626H175.172C177.054 120.626 178.589 119.106 178.589 117.225V79.6812H177.98Z" fill="white"/>
<path opacity="0.5" d="M178.583 79.6812H148.488V80.9607H178.583V79.6812Z" fill="#78BDC1"/>
<path d="M177.394 100.504V116.863C177.394 118.271 176.251 119.41 174.838 119.41H152.233C150.821 119.41 149.678 118.271 149.678 116.863V99.1194C151.993 98.4826 158.475 97.1271 165.438 99.3881C170.794 101.129 174.967 100.919 177.394 100.504Z" fill="url(#paint55_linear_219_17)"/>
<path d="M169.728 102.637C169.728 103.314 169.177 103.858 168.503 103.858C167.823 103.858 167.278 103.309 167.278 102.637C167.278 101.959 167.829 101.416 168.503 101.416C169.183 101.416 169.728 101.965 169.728 102.637Z" fill="url(#paint56_linear_219_17)"/>
<path d="M165.068 101.199C165.068 101.877 164.517 102.42 163.843 102.42C163.164 102.42 162.619 101.871 162.619 101.199C162.619 100.521 163.169 99.9781 163.843 99.9781C164.523 99.9722 165.068 100.521 165.068 101.199Z" fill="url(#paint57_linear_219_17)"/>
<path d="M170.953 108.041C170.953 108.718 170.402 109.262 169.728 109.262C169.048 109.262 168.503 108.713 168.503 108.041C168.503 107.363 169.054 106.82 169.728 106.82C170.407 106.814 170.953 107.363 170.953 108.041Z" fill="url(#paint58_linear_219_17)"/>
<path d="M158.469 112.516C158.469 113.194 157.918 113.737 157.244 113.737C156.564 113.737 156.019 113.188 156.019 112.516C156.019 111.839 156.57 111.295 157.244 111.295C157.918 111.295 158.469 111.839 158.469 112.516Z" fill="url(#paint59_linear_219_17)"/>
<path d="M166.909 117.062C166.909 117.36 166.668 117.599 166.369 117.599C166.07 117.599 165.83 117.36 165.83 117.062C165.83 116.764 166.07 116.524 166.369 116.524C166.668 116.524 166.909 116.764 166.909 117.062Z" fill="url(#paint60_linear_219_17)"/>
<path d="M168.778 115.619C168.778 115.917 168.538 116.156 168.239 116.156C167.94 116.156 167.7 115.917 167.7 115.619C167.7 115.321 167.94 115.081 168.239 115.081C168.532 115.081 168.778 115.326 168.778 115.619Z" fill="url(#paint61_linear_219_17)"/>
<path d="M165.83 113.457C166.351 113.457 166.774 113.036 166.774 112.516C166.774 111.997 166.351 111.575 165.83 111.575C165.309 111.575 164.887 111.997 164.887 112.516C164.887 113.036 165.309 113.457 165.83 113.457Z" fill="url(#paint62_linear_219_17)"/>
<path opacity="0.5" d="M148.506 74.3003L160.679 115.525C160.813 115.987 161.089 116.366 161.44 116.641C162.085 117.149 162.613 117.792 162.847 118.581L162.876 118.68C163.035 119.212 163.58 119.521 164.119 119.375C164.189 119.37 164.248 119.346 164.318 119.311C164.781 119.095 164.98 118.54 164.834 118.049L164.822 118.002C164.588 117.214 164.681 116.39 164.951 115.613C165.103 115.192 165.121 114.725 164.986 114.263L152.813 73.0383L148.506 74.3003Z" fill="white"/>
<path d="M147.216 73.6284C147.375 74.16 147.937 74.4697 148.465 74.312L152.784 73.0441C153.317 72.8864 153.628 72.3197 153.47 71.7938C153.317 71.268 152.761 70.97 152.239 71.1103L147.873 72.3898C147.357 72.5533 147.058 73.1026 147.216 73.6284Z" fill="#77411D"/>
<path d="M147.873 72.3897L152.239 71.1102C152.239 71.1102 151.999 69.1588 150.838 67.5463C150.387 66.927 150.252 65.478 150.211 64.701C150.164 63.8597 149.672 63.0709 148.893 62.7496C148.435 62.5626 147.92 62.5217 147.416 62.6678L147.345 62.6912C146.835 62.8431 146.425 63.1527 146.144 63.5558C145.663 64.2511 145.675 65.1742 146.097 65.9104C146.484 66.5823 147.158 67.8735 147.117 68.6388C147.011 70.6195 147.873 72.3897 147.873 72.3897Z" fill="#77411D"/>
<path d="M147.375 62.6853L150.621 73.6809L152.778 73.05C153.312 72.8922 153.622 72.3255 153.464 71.7997C153.312 71.2738 152.755 70.9759 152.233 71.1161C152.233 71.1161 151.993 69.1647 150.832 67.5521C150.381 66.9328 150.246 65.4839 150.205 64.7068C150.158 63.8655 149.666 63.0768 148.887 62.7554C148.43 62.5685 147.914 62.5276 147.41 62.6736L147.375 62.6853Z" fill="#915426"/>
<path opacity="0.4" d="M148.506 74.3002L160.679 115.525C160.813 115.987 161.089 116.366 161.44 116.641C162.085 117.149 162.613 117.792 162.847 118.581L162.876 118.68C163.035 119.212 163.58 119.521 164.119 119.375L150.627 73.6809L148.506 74.3002Z" fill="url(#paint63_linear_219_17)"/>
<path opacity="0.5" d="M148.749 75.1484L153.05 73.8862L152.802 73.0455L148.501 74.3077L148.749 75.1484Z" fill="#78BDC1"/>
<path opacity="0.4" d="M163.539 79.6812V120.626H151.899C150.018 120.626 148.488 119.106 148.488 117.225V79.6812H163.539Z" fill="url(#paint64_linear_219_17)"/>
<path opacity="0.5" d="M175.671 80.9607H170.982V116.547H175.671V80.9607Z" fill="url(#paint65_linear_219_17)"/>
<path opacity="0.8" d="M179.439 79.6814H147.644C146.701 79.6814 145.939 78.9218 145.939 77.9812C145.939 77.0405 146.701 76.281 147.644 76.281H179.439C180.383 76.281 181.144 77.0405 181.144 77.9812C181.144 78.9218 180.383 79.6814 179.439 79.6814Z" fill="white"/>
<path opacity="0.5" d="M176.989 76.281H172.541V79.6872H176.989V76.281Z" fill="white"/>
<path opacity="0.4" d="M152.731 116.18H150.885C150.727 116.18 150.604 116.057 150.604 115.899C150.604 115.741 150.727 115.619 150.885 115.619H152.731C152.89 115.619 153.013 115.741 153.013 115.899C153.013 116.057 152.884 116.18 152.731 116.18Z" fill="#7F5030"/>
<path opacity="0.4" d="M153.652 117.623H150.879C150.721 117.623 150.598 117.5 150.598 117.342C150.598 117.184 150.721 117.062 150.879 117.062H153.652C153.81 117.062 153.933 117.184 153.933 117.342C153.933 117.5 153.81 117.623 153.652 117.623Z" fill="#7F5030"/>
<path opacity="0.4" d="M153.651 83.0057H150.879C150.721 83.0057 150.598 82.883 150.598 82.7253C150.598 82.5675 150.721 82.4448 150.879 82.4448H153.651C153.81 82.4448 153.933 82.5675 153.933 82.7253C153.933 82.883 153.81 83.0057 153.651 83.0057Z" fill="#7F5030"/>
<path opacity="0.4" d="M152.731 84.4488H150.885C150.727 84.4488 150.604 84.3261 150.604 84.1684C150.604 84.0106 150.727 83.8879 150.885 83.8879H152.731C152.89 83.8879 153.013 84.0106 153.013 84.1684C153.013 84.3203 152.884 84.4488 152.731 84.4488Z" fill="#7F5030"/>
<path opacity="0.4" d="M152.731 85.8919H150.885C150.727 85.8919 150.604 85.7692 150.604 85.6115C150.604 85.4537 150.727 85.3311 150.885 85.3311H152.731C152.89 85.3311 153.013 85.4537 153.013 85.6115C153.013 85.7634 152.884 85.8919 152.731 85.8919Z" fill="#7F5030"/>
<path opacity="0.4" d="M153.652 87.335H150.879C150.721 87.335 150.598 87.2124 150.598 87.0546C150.598 86.8969 150.721 86.7742 150.879 86.7742H153.652C153.81 86.7742 153.933 86.8969 153.933 87.0546C153.933 87.2065 153.81 87.335 153.652 87.335Z" fill="#7F5030"/>
<path opacity="0.4" d="M152.731 88.7779H150.885C150.727 88.7779 150.604 88.6552 150.604 88.4975C150.604 88.3397 150.727 88.217 150.885 88.217H152.731C152.89 88.217 153.013 88.3397 153.013 88.4975C153.013 88.6494 152.884 88.7779 152.731 88.7779Z" fill="#7F5030"/>
<path opacity="0.4" d="M152.731 90.2213H150.885C150.727 90.2213 150.604 90.0986 150.604 89.9408C150.604 89.7831 150.727 89.6604 150.885 89.6604H152.731C152.89 89.6604 153.013 89.7831 153.013 89.9408C153.013 90.0927 152.884 90.2213 152.731 90.2213Z" fill="#7F5030"/>
<path opacity="0.4" d="M153.652 91.6585H150.879C150.721 91.6585 150.598 91.5358 150.598 91.3781C150.598 91.2203 150.721 91.0977 150.879 91.0977H153.652C153.81 91.0977 153.933 91.2203 153.933 91.3781C153.933 91.5358 153.81 91.6585 153.652 91.6585Z" fill="#7F5030"/>
<path opacity="0.4" d="M152.731 93.1017H150.885C150.727 93.1017 150.604 92.979 150.604 92.8212C150.604 92.6635 150.727 92.5408 150.885 92.5408H152.731C152.89 92.5408 153.013 92.6635 153.013 92.8212C153.013 92.979 152.884 93.1017 152.731 93.1017Z" fill="#7F5030"/>
<path opacity="0.4" d="M152.731 94.5445H150.885C150.727 94.5445 150.604 94.416 150.604 94.2641C150.604 94.1063 150.727 93.9836 150.885 93.9836H152.731C152.89 93.9836 153.013 94.1063 153.013 94.2641C153.013 94.4218 152.884 94.5445 152.731 94.5445Z" fill="#7F5030"/>
<path opacity="0.4" d="M153.652 95.9879H150.879C150.721 95.9879 150.598 95.8652 150.598 95.7074C150.598 95.5497 150.721 95.427 150.879 95.427H153.652C153.81 95.427 153.933 95.5497 153.933 95.7074C153.933 95.8652 153.81 95.9879 153.652 95.9879Z" fill="#7F5030"/>
<path opacity="0.4" d="M152.731 97.4308H150.885C150.727 97.4308 150.604 97.3022 150.604 97.1503C150.604 96.9926 150.727 96.8699 150.885 96.8699H152.731C152.89 96.8699 153.013 96.9926 153.013 97.1503C153.013 97.3022 152.884 97.4308 152.731 97.4308Z" fill="#7F5030"/>
<path opacity="0.4" d="M152.731 98.8739H150.885C150.727 98.8739 150.604 98.7512 150.604 98.5934C150.604 98.4357 150.727 98.313 150.885 98.313H152.731C152.89 98.313 153.013 98.4357 153.013 98.5934C153.013 98.7453 152.884 98.8739 152.731 98.8739Z" fill="#7F5030"/>
<path opacity="0.4" d="M153.652 100.317H150.879C150.721 100.317 150.598 100.189 150.598 100.037C150.598 99.879 150.721 99.7563 150.879 99.7563H153.652C153.81 99.7563 153.933 99.879 153.933 100.037C153.933 100.189 153.81 100.317 153.652 100.317Z" fill="#7F5030"/>
<path opacity="0.4" d="M152.731 101.76H150.885C150.727 101.76 150.604 101.637 150.604 101.48C150.604 101.322 150.727 101.199 150.885 101.199H152.731C152.89 101.199 153.013 101.322 153.013 101.48C153.013 101.632 152.884 101.76 152.731 101.76Z" fill="#7F5030"/>
<path opacity="0.4" d="M152.731 103.197H150.885C150.727 103.197 150.604 103.075 150.604 102.917C150.604 102.759 150.727 102.636 150.885 102.636H152.731C152.89 102.636 153.013 102.759 153.013 102.917C153.013 103.075 152.884 103.197 152.731 103.197Z" fill="#7F5030"/>
<path opacity="0.4" d="M153.652 104.64H150.879C150.721 104.64 150.598 104.518 150.598 104.36C150.598 104.202 150.721 104.08 150.879 104.08H153.652C153.81 104.08 153.933 104.202 153.933 104.36C153.933 104.518 153.81 104.64 153.652 104.64Z" fill="#7F5030"/>
<path opacity="0.4" d="M152.731 106.084H150.885C150.727 106.084 150.604 105.961 150.604 105.803C150.604 105.646 150.727 105.523 150.885 105.523H152.731C152.89 105.523 153.013 105.646 153.013 105.803C153.013 105.961 152.884 106.084 152.731 106.084Z" fill="#7F5030"/>
<path opacity="0.4" d="M152.731 107.527H150.885C150.727 107.527 150.604 107.404 150.604 107.246C150.604 107.089 150.727 106.966 150.885 106.966H152.731C152.89 106.966 153.013 107.089 153.013 107.246C153.013 107.404 152.884 107.527 152.731 107.527Z" fill="#7F5030"/>
<path opacity="0.4" d="M153.652 108.97H150.879C150.721 108.97 150.598 108.847 150.598 108.69C150.598 108.532 150.721 108.409 150.879 108.409H153.652C153.81 108.409 153.933 108.532 153.933 108.69C153.933 108.847 153.81 108.97 153.652 108.97Z" fill="#7F5030"/>
<path opacity="0.4" d="M152.731 110.413H150.885C150.727 110.413 150.604 110.29 150.604 110.132C150.604 109.975 150.727 109.852 150.885 109.852H152.731C152.89 109.852 153.013 109.975 153.013 110.132C153.013 110.284 152.884 110.413 152.731 110.413Z" fill="#7F5030"/>
<path opacity="0.4" d="M152.731 111.856H150.885C150.727 111.856 150.604 111.733 150.604 111.576C150.604 111.418 150.727 111.295 150.885 111.295H152.731C152.89 111.295 153.013 111.418 153.013 111.576C153.013 111.728 152.884 111.856 152.731 111.856Z" fill="#7F5030"/>
<path opacity="0.4" d="M153.652 113.299H150.879C150.721 113.299 150.598 113.176 150.598 113.019C150.598 112.861 150.721 112.738 150.879 112.738H153.652C153.81 112.738 153.933 112.861 153.933 113.019C153.933 113.171 153.81 113.299 153.652 113.299Z" fill="#7F5030"/>
<path opacity="0.4" d="M152.731 114.742H150.885C150.727 114.742 150.604 114.62 150.604 114.462C150.604 114.304 150.727 114.181 150.885 114.181H152.731C152.89 114.181 153.013 114.304 153.013 114.462C153.013 114.614 152.884 114.742 152.731 114.742Z" fill="#7F5030"/>
<path d="M120.353 93.1018H116.871V97.6823H120.353V93.1018Z" fill="#AD6B34"/>
<path d="M118.612 93.1018H116.871V97.6823H118.612V93.1018Z" fill="#915426"/>
<path opacity="0.8" d="M120.634 96.4729V114.135C120.634 115.251 119.726 116.156 118.606 116.156C117.487 116.156 116.578 115.251 116.578 114.135V96.4729H120.634Z" fill="white"/>
<path d="M120.095 106.294C120.095 106.294 120.153 106.06 119.784 105.908C119.368 105.733 118.524 106.06 118.085 106.002L119.034 106.592L120.077 106.89L120.095 106.294Z" fill="url(#paint66_linear_219_17)"/>
<path d="M120.095 106.294V114.082C120.095 114.9 119.433 115.56 118.612 115.56C117.792 115.56 117.129 114.9 117.129 114.082V105.967C117.381 105.92 117.657 105.909 117.938 105.938C118.589 106.014 119.186 106.481 119.638 106.51C119.814 106.528 120.036 106.475 120.095 106.294Z" fill="url(#paint67_linear_219_17)"/>
<path d="M119.497 107.393C119.497 107.58 119.345 107.726 119.163 107.726C118.975 107.726 118.829 107.574 118.829 107.393C118.829 107.206 118.981 107.06 119.163 107.06C119.345 107.06 119.497 107.211 119.497 107.393Z" fill="url(#paint68_linear_219_17)"/>
<path d="M119.778 106.908C119.869 106.908 119.942 106.835 119.942 106.744C119.942 106.654 119.869 106.581 119.778 106.581C119.688 106.581 119.614 106.654 119.614 106.744C119.614 106.835 119.688 106.908 119.778 106.908Z" fill="url(#paint69_linear_219_17)"/>
<path d="M118.231 107.521C118.283 107.521 118.325 107.479 118.325 107.428C118.325 107.376 118.283 107.334 118.231 107.334C118.179 107.334 118.137 107.376 118.137 107.428C118.137 107.479 118.179 107.521 118.231 107.521Z" fill="url(#paint70_linear_219_17)"/>
<path d="M118.981 106.744C118.981 106.82 118.917 106.884 118.841 106.884C118.764 106.884 118.7 106.82 118.7 106.744C118.7 106.668 118.764 106.604 118.841 106.604C118.917 106.604 118.981 106.668 118.981 106.744Z" fill="url(#paint71_linear_219_17)"/>
<path d="M119.479 108.205C119.479 108.257 119.438 108.298 119.386 108.298C119.333 108.298 119.292 108.257 119.292 108.205C119.292 108.152 119.333 108.111 119.386 108.111C119.438 108.105 119.479 108.152 119.479 108.205Z" fill="url(#paint72_linear_219_17)"/>
<path d="M118.231 108.269C118.231 108.322 118.19 108.363 118.137 108.363C118.085 108.363 118.044 108.322 118.044 108.269C118.044 108.216 118.085 108.176 118.137 108.176C118.19 108.176 118.231 108.216 118.231 108.269Z" fill="url(#paint73_linear_219_17)"/>
<path d="M118.413 107.831C118.413 107.848 118.395 107.866 118.378 107.866C118.36 107.866 118.342 107.848 118.342 107.831C118.342 107.813 118.36 107.796 118.378 107.796C118.395 107.796 118.413 107.808 118.413 107.831Z" fill="url(#paint74_linear_219_17)"/>
<path d="M117.528 107.141C117.528 107.159 117.51 107.177 117.493 107.177C117.475 107.177 117.457 107.159 117.457 107.141C117.457 107.124 117.475 107.106 117.493 107.106C117.51 107.106 117.528 107.124 117.528 107.141Z" fill="url(#paint75_linear_219_17)"/>
<path d="M117.739 106.44C117.739 106.557 117.645 106.656 117.522 106.656C117.405 106.656 117.305 106.563 117.305 106.44C117.305 106.323 117.405 106.224 117.522 106.224C117.645 106.224 117.739 106.318 117.739 106.44Z" fill="url(#paint76_linear_219_17)"/>
<path opacity="0.4" d="M118.612 96.4729V116.156C117.493 116.156 116.584 115.251 116.584 114.135V96.4729H118.612Z" fill="url(#paint77_linear_219_17)"/>
<path opacity="0.5" d="M120.353 96.4729V114.135C120.353 115.093 119.573 115.87 118.612 115.87C117.651 115.87 116.871 115.093 116.871 114.135V96.4729H116.584V114.135C116.584 115.251 117.493 116.156 118.612 116.156C119.731 116.156 120.64 115.251 120.64 114.135V96.4729H120.353Z" fill="white"/>
<path opacity="0.8" d="M120.681 96.4728H116.531C116.151 96.4728 115.84 96.1632 115.84 95.7834C115.84 95.4037 116.151 95.094 116.531 95.094H120.681C121.062 95.094 121.372 95.4037 121.372 95.7834C121.372 96.1632 121.068 96.4728 120.681 96.4728Z" fill="white"/>
<path opacity="0.5" d="M120.634 96.4729H116.584V97.0046H120.634V96.4729Z" fill="#78BDC1"/>
<path opacity="0.5" d="M120.2 95.094H119.538V96.4728H120.2V95.094Z" fill="white"/>
<path opacity="0.5" d="M119.866 97.0044H119.181V112.446H119.866V97.0044Z" fill="url(#paint78_linear_219_17)"/>
<path d="M129.185 93.1018H125.704V97.6823H129.185V93.1018Z" fill="#AD6B34"/>
<path d="M127.444 93.1018H125.704V97.6823H127.444V93.1018Z" fill="#915426"/>
<path opacity="0.8" d="M129.472 96.4729V114.135C129.472 115.251 128.564 116.156 127.444 116.156C126.325 116.156 125.416 115.251 125.416 114.135V96.4729H129.472Z" fill="white"/>
<path d="M128.927 106.294C128.927 106.294 128.986 106.06 128.616 105.908C128.2 105.733 127.356 106.06 126.917 106.002L127.866 106.592L128.909 106.89L128.927 106.294Z" fill="url(#paint79_linear_219_17)"/>
<path d="M128.927 106.294V114.082C128.927 114.9 128.265 115.56 127.444 115.56C126.624 115.56 125.961 114.9 125.961 114.082V105.967C126.213 105.92 126.489 105.909 126.77 105.938C127.421 106.014 128.019 106.481 128.47 106.51C128.646 106.528 128.874 106.475 128.927 106.294Z" fill="url(#paint80_linear_219_17)"/>
<path d="M128.329 107.393C128.329 107.58 128.177 107.726 127.995 107.726C127.808 107.726 127.661 107.574 127.661 107.393C127.661 107.206 127.813 107.06 127.995 107.06C128.177 107.06 128.329 107.211 128.329 107.393Z" fill="url(#paint81_linear_219_17)"/>
<path d="M128.781 106.744C128.781 106.838 128.704 106.908 128.616 106.908C128.523 106.908 128.452 106.832 128.452 106.744C128.452 106.657 128.529 106.581 128.616 106.581C128.704 106.581 128.781 106.651 128.781 106.744Z" fill="url(#paint82_linear_219_17)"/>
<path d="M127.063 107.521C127.115 107.521 127.157 107.479 127.157 107.428C127.157 107.376 127.115 107.334 127.063 107.334C127.012 107.334 126.97 107.376 126.97 107.428C126.97 107.479 127.012 107.521 127.063 107.521Z" fill="url(#paint83_linear_219_17)"/>
<path d="M127.667 106.884C127.745 106.884 127.808 106.822 127.808 106.744C127.808 106.667 127.745 106.604 127.667 106.604C127.589 106.604 127.526 106.667 127.526 106.744C127.526 106.822 127.589 106.884 127.667 106.884Z" fill="url(#paint84_linear_219_17)"/>
<path d="M128.312 108.205C128.312 108.257 128.271 108.298 128.218 108.298C128.165 108.298 128.124 108.257 128.124 108.205C128.124 108.152 128.165 108.111 128.218 108.111C128.271 108.105 128.312 108.152 128.312 108.205Z" fill="url(#paint85_linear_219_17)"/>
<path d="M127.063 108.269C127.063 108.322 127.022 108.363 126.97 108.363C126.917 108.363 126.876 108.322 126.876 108.269C126.876 108.216 126.917 108.176 126.97 108.176C127.022 108.176 127.063 108.216 127.063 108.269Z" fill="url(#paint86_linear_219_17)"/>
<path d="M127.245 107.831C127.245 107.848 127.227 107.866 127.21 107.866C127.192 107.866 127.175 107.848 127.175 107.831C127.175 107.813 127.192 107.796 127.21 107.796C127.227 107.796 127.245 107.808 127.245 107.831Z" fill="url(#paint87_linear_219_17)"/>
<path d="M126.36 107.141C126.36 107.159 126.342 107.177 126.325 107.177C126.307 107.177 126.29 107.159 126.29 107.141C126.29 107.124 126.307 107.106 126.325 107.106C126.342 107.106 126.36 107.124 126.36 107.141Z" fill="url(#paint88_linear_219_17)"/>
<path d="M126.577 106.44C126.577 106.557 126.483 106.656 126.36 106.656C126.243 106.656 126.143 106.563 126.143 106.44C126.143 106.323 126.237 106.224 126.36 106.224C126.477 106.224 126.577 106.318 126.577 106.44Z" fill="url(#paint89_linear_219_17)"/>
<path opacity="0.4" d="M127.444 96.4729V116.156C126.325 116.156 125.416 115.251 125.416 114.135V96.4729H127.444Z" fill="url(#paint90_linear_219_17)"/>
<path opacity="0.5" d="M129.185 96.4729V114.135C129.185 115.093 128.405 115.87 127.444 115.87C126.483 115.87 125.704 115.093 125.704 114.135V96.4729H125.416V114.135C125.416 115.251 126.325 116.156 127.444 116.156C128.564 116.156 129.472 115.251 129.472 114.135V96.4729H129.185Z" fill="white"/>
<path opacity="0.8" d="M129.519 96.4728H125.37C124.989 96.4728 124.678 96.1632 124.678 95.7834C124.678 95.4037 124.989 95.094 125.37 95.094H129.519C129.9 95.094 130.211 95.4037 130.211 95.7834C130.211 96.1632 129.9 96.4728 129.519 96.4728Z" fill="white"/>
<path opacity="0.5" d="M129.466 96.4729H125.416V97.0046H129.466V96.4729Z" fill="#78BDC1"/>
<path opacity="0.5" d="M129.033 95.094H128.37V96.4728H129.033V95.094Z" fill="white"/>
<path opacity="0.5" d="M128.698 97.0044H128.013V112.446H128.698V97.0044Z" fill="url(#paint91_linear_219_17)"/>
<path d="M138.017 93.1018H134.536V97.6823H138.017V93.1018Z" fill="#AD6B34"/>
<path d="M136.277 93.1018H134.536V97.6823H136.277V93.1018Z" fill="#915426"/>
<path opacity="0.8" d="M138.304 96.4729V114.135C138.304 115.251 137.396 116.156 136.276 116.156C135.157 116.156 134.249 115.251 134.249 114.135V96.4729H138.304Z" fill="white"/>
<path d="M137.759 106.294C137.759 106.294 137.818 106.06 137.449 105.908C137.033 105.733 136.189 106.06 135.749 106.002L136.698 106.592L137.742 106.89L137.759 106.294Z" fill="url(#paint92_linear_219_17)"/>
<path d="M137.759 106.294V114.082C137.759 114.9 137.097 115.56 136.276 115.56C135.456 115.56 134.794 114.9 134.794 114.082V105.967C135.046 105.92 135.321 105.909 135.602 105.938C136.253 106.014 136.851 106.481 137.302 106.51C137.478 106.528 137.706 106.475 137.759 106.294Z" fill="url(#paint93_linear_219_17)"/>
<path d="M137.161 107.393C137.161 107.58 137.009 107.726 136.827 107.726C136.646 107.726 136.493 107.574 136.493 107.393C136.493 107.206 136.646 107.06 136.827 107.06C137.009 107.06 137.161 107.211 137.161 107.393Z" fill="url(#paint94_linear_219_17)"/>
<path d="M137.613 106.744C137.613 106.838 137.537 106.908 137.449 106.908C137.355 106.908 137.285 106.832 137.285 106.744C137.285 106.657 137.361 106.581 137.449 106.581C137.537 106.581 137.613 106.651 137.613 106.744Z" fill="url(#paint95_linear_219_17)"/>
<path d="M135.995 107.428C135.995 107.48 135.954 107.521 135.901 107.521C135.849 107.521 135.808 107.48 135.808 107.428C135.808 107.375 135.849 107.334 135.901 107.334C135.954 107.334 135.995 107.375 135.995 107.428Z" fill="url(#paint96_linear_219_17)"/>
<path d="M136.505 106.884C136.583 106.884 136.646 106.822 136.646 106.744C136.646 106.667 136.583 106.604 136.505 106.604C136.427 106.604 136.364 106.667 136.364 106.744C136.364 106.822 136.427 106.884 136.505 106.884Z" fill="url(#paint97_linear_219_17)"/>
<path d="M137.144 108.205C137.144 108.257 137.103 108.298 137.05 108.298C136.997 108.298 136.956 108.257 136.956 108.205C136.956 108.152 136.997 108.111 137.05 108.111C137.103 108.105 137.144 108.152 137.144 108.205Z" fill="url(#paint98_linear_219_17)"/>
<path d="M135.901 108.269C135.901 108.322 135.86 108.363 135.808 108.363C135.755 108.363 135.714 108.322 135.714 108.269C135.714 108.216 135.755 108.176 135.808 108.176C135.855 108.176 135.901 108.216 135.901 108.269Z" fill="url(#paint99_linear_219_17)"/>
<path d="M136.077 107.831C136.077 107.848 136.06 107.866 136.042 107.866C136.025 107.866 136.007 107.848 136.007 107.831C136.007 107.813 136.025 107.796 136.042 107.796C136.066 107.796 136.077 107.808 136.077 107.831Z" fill="url(#paint100_linear_219_17)"/>
<path d="M135.192 107.141C135.192 107.159 135.175 107.177 135.157 107.177C135.139 107.177 135.122 107.159 135.122 107.141C135.122 107.124 135.139 107.106 135.157 107.106C135.175 107.106 135.192 107.124 135.192 107.141Z" fill="url(#paint101_linear_219_17)"/>
<path d="M135.409 106.44C135.409 106.557 135.309 106.656 135.192 106.656C135.075 106.656 134.975 106.563 134.975 106.44C134.975 106.323 135.075 106.224 135.192 106.224C135.309 106.224 135.409 106.318 135.409 106.44Z" fill="url(#paint102_linear_219_17)"/>
<path opacity="0.4" d="M136.276 96.4729V116.156C135.157 116.156 134.249 115.251 134.249 114.135V96.4729H136.276Z" fill="url(#paint103_linear_219_17)"/>
<path opacity="0.5" d="M138.017 96.4729V114.135C138.017 115.093 137.238 115.87 136.276 115.87C135.315 115.87 134.536 115.093 134.536 114.135V96.4729H134.249V114.135C134.249 115.251 135.157 116.156 136.276 116.156C137.396 116.156 138.304 115.251 138.304 114.135V96.4729H138.017Z" fill="white"/>
<path opacity="0.8" d="M138.351 96.4728H134.202C133.821 96.4728 133.51 96.1632 133.51 95.7834C133.51 95.4037 133.821 95.094 134.202 95.094H138.351C138.732 95.094 139.043 95.4037 139.043 95.7834C139.043 96.1632 138.732 96.4728 138.351 96.4728Z" fill="white"/>
<path opacity="0.5" d="M138.298 96.4729H134.249V97.0046H138.298V96.4729Z" fill="#78BDC1"/>
<path opacity="0.5" d="M137.871 95.094H137.208V96.4728H137.871V95.094Z" fill="white"/>
<path opacity="0.5" d="M137.537 97.0044H136.851V112.446H137.537V97.0044Z" fill="url(#paint104_linear_219_17)"/>
<path d="M144.388 102.8C144.388 103.052 144.177 103.262 143.925 103.262H110.958C110.706 103.262 110.495 103.052 110.495 102.8C110.495 102.543 110.706 102.339 110.958 102.339H143.925C144.177 102.333 144.388 102.543 144.388 102.8Z" fill="#BCBCBC"/>
<path d="M144.388 102.801C144.388 103.052 144.177 103.262 143.925 103.262H110.958C110.706 103.262 110.495 103.052 110.495 102.801H144.388Z" fill="#8C8C8C"/>
<path d="M145.285 119.387C145.285 119.691 145.161 119.96 144.962 120.158C144.763 120.351 144.488 120.48 144.189 120.48H110.7C110.096 120.48 109.598 119.989 109.598 119.387C109.598 119.083 109.721 118.809 109.921 118.61C110.114 118.417 110.395 118.289 110.694 118.289H144.183C144.792 118.289 145.285 118.78 145.285 119.387Z" fill="#BCBCBC"/>
<path d="M145.285 119.387C145.285 119.691 145.161 119.96 144.962 120.158C144.763 120.351 144.488 120.48 144.189 120.48H110.7C110.096 120.48 109.598 119.989 109.598 119.387H145.285Z" fill="#8C8C8C"/>
<path d="M113.877 103.256H112.81V118.289H113.877V103.256Z" fill="#BCBCBC"/>
<path d="M113.343 103.256H112.81V118.289H113.343V103.256Z" fill="#8C8C8C"/>
<path d="M142.079 103.256H141.012V118.289H142.079V103.256Z" fill="#BCBCBC"/>
<path d="M141.545 103.256H141.012V118.289H141.545V103.256Z" fill="#8C8C8C"/>
<defs>
<linearGradient id="paint0_linear_219_17" x1="44.0252" y1="81.3413" x2="44.0252" y2="89.6335" gradientUnits="userSpaceOnUse">
<stop stop-color="#1DA6EC"/>
<stop offset="1" stop-color="#1DD7EC"/>
</linearGradient>
<linearGradient id="paint1_linear_219_17" x1="38.7797" y1="83.0939" x2="38.7797" y2="102.064" gradientUnits="userSpaceOnUse">
<stop stop-color="#1DA6EC"/>
<stop offset="1" stop-color="#1DD7EC"/>
</linearGradient>
<linearGradient id="paint2_linear_219_17" x1="38.3554" y1="89.3377" x2="38.3554" y2="101.501" gradientUnits="userSpaceOnUse">
<stop stop-color="#1DA6EC"/>
<stop offset="1" stop-color="#1DD7EC"/>
</linearGradient>
<linearGradient id="paint3_linear_219_17" x1="29.1516" y1="86.6121" x2="29.1516" y2="87.7845" gradientUnits="userSpaceOnUse">
<stop stop-color="#1DA6EC"/>
<stop offset="1" stop-color="#1DD7EC"/>
</linearGradient>
<linearGradient id="paint4_linear_219_17" x1="36.1538" y1="90.6938" x2="36.1538" y2="91.8661" gradientUnits="userSpaceOnUse">
<stop stop-color="#1DA6EC"/>
<stop offset="1" stop-color="#1DD7EC"/>
</linearGradient>
<linearGradient id="paint5_linear_219_17" x1="45.2891" y1="91.4935" x2="45.2891" y2="92.1162" gradientUnits="userSpaceOnUse">
<stop stop-color="#1DA6EC"/>
<stop offset="1" stop-color="#1DD7EC"/>
</linearGradient>
<linearGradient id="paint6_linear_219_17" x1="45.5857" y1="96.8392" x2="45.5857" y2="97.462" gradientUnits="userSpaceOnUse">
<stop stop-color="#1DA6EC"/>
<stop offset="1" stop-color="#1DD7EC"/>
</linearGradient>
<linearGradient id="paint7_linear_219_17" x1="46.685" y1="92.5032" x2="46.685" y2="93.5168" gradientUnits="userSpaceOnUse">
<stop stop-color="#1DA6EC"/>
<stop offset="1" stop-color="#1DD7EC"/>
</linearGradient>
<linearGradient id="paint8_linear_219_17" x1="40.4575" y1="95.0302" x2="40.4575" y2="95.653" gradientUnits="userSpaceOnUse">
<stop stop-color="#1DA6EC"/>
<stop offset="1" stop-color="#1DD7EC"/>
</linearGradient>
<linearGradient id="paint9_linear_219_17" x1="35.8921" y1="97.4306" x2="35.8921" y2="98.0534" gradientUnits="userSpaceOnUse">
<stop stop-color="#1DA6EC"/>
<stop offset="1" stop-color="#1DD7EC"/>
</linearGradient>
<linearGradient id="paint10_linear_219_17" x1="31.0359" y1="93.778" x2="31.0359" y2="94.4008" gradientUnits="userSpaceOnUse">
<stop stop-color="#1DA6EC"/>
<stop offset="1" stop-color="#1DD7EC"/>
</linearGradient>
<linearGradient id="paint11_linear_219_17" x1="44.7308" y1="87.7454" x2="44.7308" y2="89.5405" gradientUnits="userSpaceOnUse">
<stop stop-color="#1DA6EC"/>
<stop offset="1" stop-color="#1DD7EC"/>
</linearGradient>
<linearGradient id="paint12_linear_219_17" x1="41.1566" y1="80.0259" x2="41.1566" y2="81.1224" gradientUnits="userSpaceOnUse">
<stop stop-color="#1DA6EC"/>
<stop offset="1" stop-color="#1DD7EC"/>
</linearGradient>
<linearGradient id="paint13_linear_219_17" x1="36.3457" y1="79.7165" x2="36.3457" y2="81.5116" gradientUnits="userSpaceOnUse">
<stop stop-color="#1DA6EC"/>
<stop offset="1" stop-color="#1DD7EC"/>
</linearGradient>
<linearGradient id="paint14_linear_219_17" x1="42.2197" y1="72.4808" x2="42.2197" y2="74.2759" gradientUnits="userSpaceOnUse">
<stop stop-color="#1DA6EC"/>
<stop offset="1" stop-color="#1DD7EC"/>
</linearGradient>
<linearGradient id="paint15_linear_219_17" x1="40.824" y1="76.273" x2="40.824" y2="78.0682" gradientUnits="userSpaceOnUse">
<stop stop-color="#1DA6EC"/>
<stop offset="1" stop-color="#1DD7EC"/>
</linearGradient>
<linearGradient id="paint16_linear_219_17" x1="33.0307" y1="76.0877" x2="33.0307" y2="77.8829" gradientUnits="userSpaceOnUse">
<stop stop-color="#1DA6EC"/>
<stop offset="1" stop-color="#1DD7EC"/>
</linearGradient>
<linearGradient id="paint17_linear_219_17" x1="31.5477" y1="70.5032" x2="45.0561" y2="70.5032" gradientUnits="userSpaceOnUse">
<stop stop-color="white"/>
<stop offset="1" stop-color="white" stop-opacity="0"/>
</linearGradient>
<linearGradient id="paint18_linear_219_17" x1="43.2911" y1="72.7063" x2="43.2911" y2="86.0694" gradientUnits="userSpaceOnUse">
<stop stop-color="white"/>
<stop offset="1" stop-color="white" stop-opacity="0"/>
</linearGradient>
<linearGradient id="paint19_linear_219_17" x1="40.824" y1="42.5469" x2="40.824" y2="57.0187" gradientUnits="userSpaceOnUse">
<stop stop-color="white"/>
<stop offset="1" stop-color="white" stop-opacity="0"/>
</linearGradient>
<linearGradient id="paint20_linear_219_17" x1="81.5948" y1="38.3729" x2="81.5948" y2="40.4834" gradientUnits="userSpaceOnUse">
<stop stop-color="#FF7F1A"/>
<stop offset="0.0334" stop-color="#FD7B1C"/>
<stop offset="0.264" stop-color="#F56029"/>
<stop offset="0.4999" stop-color="#EE4D33"/>
<stop offset="0.742" stop-color="#EA4238"/>
<stop offset="1" stop-color="#E93E3A"/>
</linearGradient>
<linearGradient id="paint21_linear_219_17" x1="80.6595" y1="65.1926" x2="80.6595" y2="41.3294" gradientUnits="userSpaceOnUse">
<stop stop-color="#5B0340"/>
<stop offset="0.018" stop-color="#600540"/>
<stop offset="0.1729" stop-color="#8A163E"/>
<stop offset="0.3313" stop-color="#AC253D"/>
<stop offset="0.4916" stop-color="#C7303B"/>
<stop offset="0.6546" stop-color="#DA383B"/>
<stop offset="0.8218" stop-color="#E53C3A"/>
<stop offset="1" stop-color="#E93E3A"/>
</linearGradient>
<linearGradient id="paint22_linear_219_17" x1="80.6595" y1="33.1341" x2="80.6595" y2="72.4398" gradientUnits="userSpaceOnUse">
<stop stop-color="#5B0340"/>
<stop offset="0.018" stop-color="#600540"/>
<stop offset="0.1729" stop-color="#8A163E"/>
<stop offset="0.3313" stop-color="#AC253D"/>
<stop offset="0.4916" stop-color="#C7303B"/>
<stop offset="0.6546" stop-color="#DA383B"/>
<stop offset="0.8218" stop-color="#E53C3A"/>
<stop offset="1" stop-color="#E93E3A"/>
</linearGradient>
<linearGradient id="paint23_linear_219_17" x1="81.7268" y1="42.5539" x2="81.7268" y2="40.9176" gradientUnits="userSpaceOnUse">
<stop stop-color="#5B0340"/>
<stop offset="0.018" stop-color="#600540"/>
<stop offset="0.1729" stop-color="#8A163E"/>
<stop offset="0.3313" stop-color="#AC253D"/>
<stop offset="0.4916" stop-color="#C7303B"/>
<stop offset="0.6546" stop-color="#DA383B"/>
<stop offset="0.8218" stop-color="#E53C3A"/>
<stop offset="1" stop-color="#E93E3A"/>
</linearGradient>
<linearGradient id="paint24_linear_219_17" x1="80.9005" y1="37.7724" x2="80.9005" y2="36.6292" gradientUnits="userSpaceOnUse">
<stop stop-color="#5B0340"/>
<stop offset="0.018" stop-color="#600540"/>
<stop offset="0.1729" stop-color="#8A163E"/>
<stop offset="0.3313" stop-color="#AC253D"/>
<stop offset="0.4916" stop-color="#C7303B"/>
<stop offset="0.6546" stop-color="#DA383B"/>
<stop offset="0.8218" stop-color="#E53C3A"/>
<stop offset="1" stop-color="#E93E3A"/>
</linearGradient>
<linearGradient id="paint25_linear_219_17" x1="78.9322" y1="36.491" x2="78.9322" y2="35.9915" gradientUnits="userSpaceOnUse">
<stop stop-color="#5B0340"/>
<stop offset="0.018" stop-color="#600540"/>
<stop offset="0.1729" stop-color="#8A163E"/>
<stop offset="0.3313" stop-color="#AC253D"/>
<stop offset="0.4916" stop-color="#C7303B"/>
<stop offset="0.6546" stop-color="#DA383B"/>
<stop offset="0.8218" stop-color="#E53C3A"/>
<stop offset="1" stop-color="#E93E3A"/>
</linearGradient>
<linearGradient id="paint26_linear_219_17" x1="79.5487" y1="38.3406" x2="79.5487" y2="37.5301" gradientUnits="userSpaceOnUse">
<stop stop-color="#5B0340"/>
<stop offset="0.018" stop-color="#600540"/>
<stop offset="0.1729" stop-color="#8A163E"/>
<stop offset="0.3313" stop-color="#AC253D"/>
<stop offset="0.4916" stop-color="#C7303B"/>
<stop offset="0.6546" stop-color="#DA383B"/>
<stop offset="0.8218" stop-color="#E53C3A"/>
<stop offset="1" stop-color="#E93E3A"/>
</linearGradient>
<linearGradient id="paint27_linear_219_17" x1="82.0525" y1="38.0197" x2="82.0525" y2="37.6161" gradientUnits="userSpaceOnUse">
<stop stop-color="#5B0340"/>
<stop offset="0.018" stop-color="#600540"/>
<stop offset="0.1729" stop-color="#8A163E"/>
<stop offset="0.3313" stop-color="#AC253D"/>
<stop offset="0.4916" stop-color="#C7303B"/>
<stop offset="0.6546" stop-color="#DA383B"/>
<stop offset="0.8218" stop-color="#E53C3A"/>
<stop offset="1" stop-color="#E93E3A"/>
</linearGradient>
<linearGradient id="paint28_linear_219_17" x1="82.9394" y1="40.8713" x2="82.9394" y2="40.0607" gradientUnits="userSpaceOnUse">
<stop stop-color="#5B0340"/>
<stop offset="0.018" stop-color="#600540"/>
<stop offset="0.1729" stop-color="#8A163E"/>
<stop offset="0.3313" stop-color="#AC253D"/>
<stop offset="0.4916" stop-color="#C7303B"/>
<stop offset="0.6546" stop-color="#DA383B"/>
<stop offset="0.8218" stop-color="#E53C3A"/>
<stop offset="1" stop-color="#E93E3A"/>
</linearGradient>
<linearGradient id="paint29_linear_219_17" x1="79.921" y1="42.0271" x2="79.921" y2="41.5639" gradientUnits="userSpaceOnUse">
<stop stop-color="#5B0340"/>
<stop offset="0.018" stop-color="#600540"/>
<stop offset="0.1729" stop-color="#8A163E"/>
<stop offset="0.3313" stop-color="#AC253D"/>
<stop offset="0.4916" stop-color="#C7303B"/>
<stop offset="0.6546" stop-color="#DA383B"/>
<stop offset="0.8218" stop-color="#E53C3A"/>
<stop offset="1" stop-color="#E93E3A"/>
</linearGradient>
<linearGradient id="paint30_linear_219_17" x1="81.0986" y1="40.8119" x2="81.0986" y2="40.1191" gradientUnits="userSpaceOnUse">
<stop stop-color="#5B0340"/>
<stop offset="0.018" stop-color="#600540"/>
<stop offset="0.1729" stop-color="#8A163E"/>
<stop offset="0.3313" stop-color="#AC253D"/>
<stop offset="0.4916" stop-color="#C7303B"/>
<stop offset="0.6546" stop-color="#DA383B"/>
<stop offset="0.8218" stop-color="#E53C3A"/>
<stop offset="1" stop-color="#E93E3A"/>
</linearGradient>
<linearGradient id="paint31_linear_219_17" x1="82.1687" y1="43.5403" x2="82.1687" y2="43.0771" gradientUnits="userSpaceOnUse">
<stop stop-color="#5B0340"/>
<stop offset="0.018" stop-color="#600540"/>
<stop offset="0.1729" stop-color="#8A163E"/>
<stop offset="0.3313" stop-color="#AC253D"/>
<stop offset="0.4916" stop-color="#C7303B"/>
<stop offset="0.6546" stop-color="#DA383B"/>
<stop offset="0.8218" stop-color="#E53C3A"/>
<stop offset="1" stop-color="#E93E3A"/>
</linearGradient>
<linearGradient id="paint32_linear_219_17" x1="79.7348" y1="43.6706" x2="79.7348" y2="43.2075" gradientUnits="userSpaceOnUse">
<stop stop-color="#5B0340"/>
<stop offset="0.018" stop-color="#600540"/>
<stop offset="0.1729" stop-color="#8A163E"/>
<stop offset="0.3313" stop-color="#AC253D"/>
<stop offset="0.4916" stop-color="#C7303B"/>
<stop offset="0.6546" stop-color="#DA383B"/>
<stop offset="0.8218" stop-color="#E53C3A"/>
<stop offset="1" stop-color="#E93E3A"/>
</linearGradient>
<linearGradient id="paint33_linear_219_17" x1="80.2059" y1="42.6603" x2="80.2059" y2="42.4939" gradientUnits="userSpaceOnUse">
<stop stop-color="#5B0340"/>
<stop offset="0.018" stop-color="#600540"/>
<stop offset="0.1729" stop-color="#8A163E"/>
<stop offset="0.3313" stop-color="#AC253D"/>
<stop offset="0.4916" stop-color="#C7303B"/>
<stop offset="0.6546" stop-color="#DA383B"/>
<stop offset="0.8218" stop-color="#E53C3A"/>
<stop offset="1" stop-color="#E93E3A"/>
</linearGradient>
<linearGradient id="paint34_linear_219_17" x1="78.4728" y1="41.3186" x2="78.4728" y2="41.1522" gradientUnits="userSpaceOnUse">
<stop stop-color="#5B0340"/>
<stop offset="0.018" stop-color="#600540"/>
<stop offset="0.1729" stop-color="#8A163E"/>
<stop offset="0.3313" stop-color="#AC253D"/>
<stop offset="0.4916" stop-color="#C7303B"/>
<stop offset="0.6546" stop-color="#DA383B"/>
<stop offset="0.8218" stop-color="#E53C3A"/>
<stop offset="1" stop-color="#E93E3A"/>
</linearGradient>
<linearGradient id="paint35_linear_219_17" x1="78.5397" y1="40.3913" x2="78.5397" y2="39.342" gradientUnits="userSpaceOnUse">
<stop stop-color="#5B0340"/>
<stop offset="0.018" stop-color="#600540"/>
<stop offset="0.1729" stop-color="#8A163E"/>
<stop offset="0.3313" stop-color="#AC253D"/>
<stop offset="0.4916" stop-color="#C7303B"/>
<stop offset="0.6546" stop-color="#DA383B"/>
<stop offset="0.8218" stop-color="#E53C3A"/>
<stop offset="1" stop-color="#E93E3A"/>
</linearGradient>
<linearGradient id="paint36_linear_219_17" x1="78.6756" y1="44.2685" x2="82.7944" y2="44.2685" gradientUnits="userSpaceOnUse">
<stop stop-color="white"/>
<stop offset="1" stop-color="white" stop-opacity="0"/>
</linearGradient>
<linearGradient id="paint37_linear_219_17" x1="82.4105" y1="20.6668" x2="82.4105" y2="47.2493" gradientUnits="userSpaceOnUse">
<stop stop-color="white"/>
<stop offset="1" stop-color="white" stop-opacity="0"/>
</linearGradient>
<linearGradient id="paint38_linear_219_17" x1="113.179" y1="50.9069" x2="113.179" y2="71.2921" gradientUnits="userSpaceOnUse">
<stop stop-color="white"/>
<stop offset="1" stop-color="white" stop-opacity="0"/>
</linearGradient>
<linearGradient id="paint39_linear_219_17" x1="112.458" y1="67.0173" x2="112.458" y2="69.0078" gradientUnits="userSpaceOnUse">
<stop stop-color="#59CA0A"/>
<stop offset="0.1238" stop-color="#46B914"/>
<stop offset="0.3329" stop-color="#2BA121"/>
<stop offset="0.5467" stop-color="#18902A"/>
<stop offset="0.7662" stop-color="#0D8630"/>
<stop offset="1" stop-color="#098332"/>
</linearGradient>
<linearGradient id="paint40_linear_219_17" x1="111.367" y1="68.7637" x2="111.367" y2="95.458" gradientUnits="userSpaceOnUse">
<stop stop-color="#59CA0A"/>
<stop offset="0.1238" stop-color="#46BE14"/>
<stop offset="0.3329" stop-color="#2BAE21"/>
<stop offset="0.5467" stop-color="#18A32A"/>
<stop offset="0.7662" stop-color="#0D9C30"/>
<stop offset="1" stop-color="#099A32"/>
</linearGradient>
<linearGradient id="paint41_linear_219_17" x1="111.367" y1="79.9419" x2="111.367" y2="104.623" gradientUnits="userSpaceOnUse">
<stop stop-color="#59CA0A"/>
<stop offset="0.1238" stop-color="#46BE14"/>
<stop offset="0.3329" stop-color="#2BAE21"/>
<stop offset="0.5467" stop-color="#18A32A"/>
<stop offset="0.7662" stop-color="#0D9C30"/>
<stop offset="1" stop-color="#099A32"/>
</linearGradient>
<linearGradient id="paint42_linear_219_17" x1="104.243" y1="74.0513" x2="112.899" y2="74.0513" gradientUnits="userSpaceOnUse">
<stop stop-color="white"/>
<stop offset="1" stop-color="white" stop-opacity="0"/>
</linearGradient>
<linearGradient id="paint43_linear_219_17" x1="111.133" y1="72.2518" x2="113.012" y2="72.2518" gradientUnits="userSpaceOnUse">
<stop stop-color="#59CA0A"/>
<stop offset="0.1238" stop-color="#46B914"/>
<stop offset="0.3329" stop-color="#2BA121"/>
<stop offset="0.5467" stop-color="#18902A"/>
<stop offset="0.7662" stop-color="#0D8630"/>
<stop offset="1" stop-color="#098332"/>
</linearGradient>
<linearGradient id="paint44_linear_219_17" x1="112.931" y1="70.4499" x2="113.857" y2="70.4499" gradientUnits="userSpaceOnUse">
<stop stop-color="#59CA0A"/>
<stop offset="0.1238" stop-color="#46B914"/>
<stop offset="0.3329" stop-color="#2BA121"/>
<stop offset="0.5467" stop-color="#18902A"/>
<stop offset="0.7662" stop-color="#0D8630"/>
<stop offset="1" stop-color="#098332"/>
</linearGradient>
<linearGradient id="paint45_linear_219_17" x1="112.701" y1="74.9882" x2="113.511" y2="74.9882" gradientUnits="userSpaceOnUse">
<stop stop-color="#59CA0A"/>
<stop offset="0.1238" stop-color="#46B914"/>
<stop offset="0.3329" stop-color="#2BA121"/>
<stop offset="0.5467" stop-color="#18902A"/>
<stop offset="0.7662" stop-color="#0D8630"/>
<stop offset="1" stop-color="#098332"/>
</linearGradient>
<linearGradient id="paint46_linear_219_17" x1="113.418" y1="68.9588" x2="114.227" y2="68.9588" gradientUnits="userSpaceOnUse">
<stop stop-color="#59CA0A"/>
<stop offset="0.1238" stop-color="#46B914"/>
<stop offset="0.3329" stop-color="#2BA121"/>
<stop offset="0.5467" stop-color="#18902A"/>
<stop offset="0.7662" stop-color="#0D8630"/>
<stop offset="1" stop-color="#098332"/>
</linearGradient>
<linearGradient id="paint47_linear_219_17" x1="109.812" y1="66.8443" x2="110.621" y2="66.8443" gradientUnits="userSpaceOnUse">
<stop stop-color="#59CA0A"/>
<stop offset="0.1238" stop-color="#46B914"/>
<stop offset="0.3329" stop-color="#2BA121"/>
<stop offset="0.5467" stop-color="#18902A"/>
<stop offset="0.7662" stop-color="#0D8630"/>
<stop offset="1" stop-color="#098332"/>
</linearGradient>
<linearGradient id="paint48_linear_219_17" x1="109.475" y1="75.2162" x2="109.954" y2="75.2162" gradientUnits="userSpaceOnUse">
<stop stop-color="#59CA0A"/>
<stop offset="0.1238" stop-color="#46B914"/>
<stop offset="0.3329" stop-color="#2BA121"/>
<stop offset="0.5467" stop-color="#18902A"/>
<stop offset="0.7662" stop-color="#0D8630"/>
<stop offset="1" stop-color="#098332"/>
</linearGradient>
<linearGradient id="paint49_linear_219_17" x1="109.475" y1="70.6885" x2="109.954" y2="70.6885" gradientUnits="userSpaceOnUse">
<stop stop-color="#59CA0A"/>
<stop offset="0.1238" stop-color="#46B914"/>
<stop offset="0.3329" stop-color="#2BA121"/>
<stop offset="0.5467" stop-color="#18902A"/>
<stop offset="0.7662" stop-color="#0D8630"/>
<stop offset="1" stop-color="#098332"/>
</linearGradient>
<linearGradient id="paint50_linear_219_17" x1="31.3267" y1="117.967" x2="46.3558" y2="117.967" gradientUnits="userSpaceOnUse">
<stop stop-color="#1DA6EC"/>
<stop offset="1" stop-color="#1DD7EC"/>
</linearGradient>
<linearGradient id="paint51_linear_219_17" x1="34.7197" y1="116.608" x2="39.2624" y2="116.608" gradientUnits="userSpaceOnUse">
<stop stop-color="white"/>
<stop offset="1" stop-color="white" stop-opacity="0"/>
</linearGradient>
<linearGradient id="paint52_linear_219_17" x1="38.9887" y1="109.705" x2="38.9887" y2="103.143" gradientUnits="userSpaceOnUse">
<stop stop-color="#FFF33B"/>
<stop offset="0.1245" stop-color="#FAC73B"/>
<stop offset="0.2625" stop-color="#F59D3B"/>
<stop offset="0.4038" stop-color="#F07B3A"/>
<stop offset="0.5467" stop-color="#ED603A"/>
<stop offset="0.692" stop-color="#EB4D3A"/>
<stop offset="0.8412" stop-color="#E9423A"/>
<stop offset="1" stop-color="#E93E3A"/>
</linearGradient>
<linearGradient id="paint53_linear_219_17" x1="38.9887" y1="109.083" x2="38.9887" y2="104.252" gradientUnits="userSpaceOnUse">
<stop stop-color="#FFF33B"/>
<stop offset="0.1245" stop-color="#FAC73B"/>
<stop offset="0.2625" stop-color="#F59D3B"/>
<stop offset="0.4038" stop-color="#F07B3A"/>
<stop offset="0.5467" stop-color="#ED603A"/>
<stop offset="0.692" stop-color="#EB4D3A"/>
<stop offset="0.8412" stop-color="#E9423A"/>
<stop offset="1" stop-color="#E93E3A"/>
</linearGradient>
<linearGradient id="paint54_linear_219_17" x1="39.9648" y1="110.968" x2="39.9648" y2="112.579" gradientUnits="userSpaceOnUse">
<stop stop-color="white"/>
<stop offset="1" stop-color="white" stop-opacity="0"/>
</linearGradient>
<linearGradient id="paint55_linear_219_17" x1="149.684" y1="108.771" x2="177.395" y2="108.771" gradientUnits="userSpaceOnUse">
<stop stop-color="#FFF33B"/>
<stop offset="0.1187" stop-color="#FFE130"/>
<stop offset="0.3289" stop-color="#FEC620"/>
<stop offset="0.544" stop-color="#FDB315"/>
<stop offset="0.7648" stop-color="#FDA80E"/>
<stop offset="1" stop-color="#FDA40C"/>
</linearGradient>
<linearGradient id="paint56_linear_219_17" x1="167.277" y1="102.639" x2="169.729" y2="102.639" gradientUnits="userSpaceOnUse">
<stop stop-color="#FFF33B"/>
<stop offset="0.1187" stop-color="#FFE130"/>
<stop offset="0.3289" stop-color="#FEC620"/>
<stop offset="0.544" stop-color="#FDB315"/>
<stop offset="0.7648" stop-color="#FDA80E"/>
<stop offset="1" stop-color="#FDA40C"/>
</linearGradient>
<linearGradient id="paint57_linear_219_17" x1="162.618" y1="101.197" x2="165.07" y2="101.197" gradientUnits="userSpaceOnUse">
<stop stop-color="#FFF33B"/>
<stop offset="0.1187" stop-color="#FFE130"/>
<stop offset="0.3289" stop-color="#FEC620"/>
<stop offset="0.544" stop-color="#FDB315"/>
<stop offset="0.7648" stop-color="#FDA80E"/>
<stop offset="1" stop-color="#FDA40C"/>
</linearGradient>
<linearGradient id="paint58_linear_219_17" x1="168.503" y1="108.038" x2="170.955" y2="108.038" gradientUnits="userSpaceOnUse">
<stop stop-color="#FFF33B"/>
<stop offset="0.1187" stop-color="#FFE130"/>
<stop offset="0.3289" stop-color="#FEC620"/>
<stop offset="0.544" stop-color="#FDB315"/>
<stop offset="0.7648" stop-color="#FDA80E"/>
<stop offset="1" stop-color="#FDA40C"/>
</linearGradient>
<linearGradient id="paint59_linear_219_17" x1="156.015" y1="112.516" x2="158.467" y2="112.516" gradientUnits="userSpaceOnUse">
<stop stop-color="#FFF33B"/>
<stop offset="0.1187" stop-color="#FFE130"/>
<stop offset="0.3289" stop-color="#FEC620"/>
<stop offset="0.544" stop-color="#FDB315"/>
<stop offset="0.7648" stop-color="#FDA80E"/>
<stop offset="1" stop-color="#FDA40C"/>
</linearGradient>
<linearGradient id="paint60_linear_219_17" x1="165.829" y1="117.064" x2="166.909" y2="117.064" gradientUnits="userSpaceOnUse">
<stop stop-color="#FFF33B"/>
<stop offset="0.1187" stop-color="#FFE130"/>
<stop offset="0.3289" stop-color="#FEC620"/>
<stop offset="0.544" stop-color="#FDB315"/>
<stop offset="0.7648" stop-color="#FDA80E"/>
<stop offset="1" stop-color="#FDA40C"/>
</linearGradient>
<linearGradient id="paint61_linear_219_17" x1="167.696" y1="115.621" x2="168.776" y2="115.621" gradientUnits="userSpaceOnUse">
<stop stop-color="#FFF33B"/>
<stop offset="0.1187" stop-color="#FFE130"/>
<stop offset="0.3289" stop-color="#FEC620"/>
<stop offset="0.544" stop-color="#FDB315"/>
<stop offset="0.7648" stop-color="#FDA80E"/>
<stop offset="1" stop-color="#FDA40C"/>
</linearGradient>
<linearGradient id="paint62_linear_219_17" x1="164.884" y1="112.516" x2="166.773" y2="112.516" gradientUnits="userSpaceOnUse">
<stop stop-color="#FFF33B"/>
<stop offset="0.1187" stop-color="#FFE130"/>
<stop offset="0.3289" stop-color="#FEC620"/>
<stop offset="0.544" stop-color="#FDB315"/>
<stop offset="0.7648" stop-color="#FDA80E"/>
<stop offset="1" stop-color="#FDA40C"/>
</linearGradient>
<linearGradient id="paint63_linear_219_17" x1="157.37" y1="96.5268" x2="155.253" y2="97.152" gradientUnits="userSpaceOnUse">
<stop stop-color="white"/>
<stop offset="1" stop-color="white" stop-opacity="0"/>
</linearGradient>
<linearGradient id="paint64_linear_219_17" x1="157.979" y1="100.156" x2="171.02" y2="100.156" gradientUnits="userSpaceOnUse">
<stop stop-color="white"/>
<stop offset="1" stop-color="white" stop-opacity="0"/>
</linearGradient>
<linearGradient id="paint65_linear_219_17" x1="173.324" y1="80.8691" x2="173.324" y2="109.193" gradientUnits="userSpaceOnUse">
<stop stop-color="white"/>
<stop offset="1" stop-color="white" stop-opacity="0"/>
</linearGradient>
<linearGradient id="paint66_linear_219_17" x1="119.09" y1="105.674" x2="119.09" y2="106.756" gradientUnits="userSpaceOnUse">
<stop stop-color="#FF663B"/>
<stop offset="0.1428" stop-color="#FE6F2E"/>
<stop offset="0.4168" stop-color="#FE7C1B"/>
<stop offset="0.6992" stop-color="#FD8310"/>
<stop offset="1" stop-color="#FD860C"/>
</linearGradient>
<linearGradient id="paint67_linear_219_17" x1="118.611" y1="114.955" x2="118.611" y2="106.771" gradientUnits="userSpaceOnUse">
<stop stop-color="#FFF33B"/>
<stop offset="0.1187" stop-color="#FFE130"/>
<stop offset="0.3289" stop-color="#FEC620"/>
<stop offset="0.544" stop-color="#FDB315"/>
<stop offset="0.7648" stop-color="#FDA80E"/>
<stop offset="1" stop-color="#FDA40C"/>
</linearGradient>
<linearGradient id="paint68_linear_219_17" x1="119.158" y1="107.816" x2="119.158" y2="106.978" gradientUnits="userSpaceOnUse">
<stop stop-color="#5B0340"/>
<stop offset="0.018" stop-color="#600540"/>
<stop offset="0.1729" stop-color="#8A163E"/>
<stop offset="0.3313" stop-color="#AC253D"/>
<stop offset="0.4916" stop-color="#C7303B"/>
<stop offset="0.6546" stop-color="#DA383B"/>
<stop offset="0.8218" stop-color="#E53C3A"/>
<stop offset="1" stop-color="#E93E3A"/>
</linearGradient>
<linearGradient id="paint69_linear_219_17" x1="119.779" y1="106.954" x2="119.779" y2="106.539" gradientUnits="userSpaceOnUse">
<stop stop-color="#5B0340"/>
<stop offset="0.018" stop-color="#600540"/>
<stop offset="0.1729" stop-color="#8A163E"/>
<stop offset="0.3313" stop-color="#AC253D"/>
<stop offset="0.4916" stop-color="#C7303B"/>
<stop offset="0.6546" stop-color="#DA383B"/>
<stop offset="0.8218" stop-color="#E53C3A"/>
<stop offset="1" stop-color="#E93E3A"/>
</linearGradient>
<linearGradient id="paint70_linear_219_17" x1="118.233" y1="107.546" x2="118.233" y2="107.309" gradientUnits="userSpaceOnUse">
<stop stop-color="#5B0340"/>
<stop offset="0.018" stop-color="#600540"/>
<stop offset="0.1729" stop-color="#8A163E"/>
<stop offset="0.3313" stop-color="#AC253D"/>
<stop offset="0.4916" stop-color="#C7303B"/>
<stop offset="0.6546" stop-color="#DA383B"/>
<stop offset="0.8218" stop-color="#E53C3A"/>
<stop offset="1" stop-color="#E93E3A"/>
</linearGradient>
<linearGradient id="paint71_linear_219_17" x1="118.836" y1="106.924" x2="118.836" y2="106.569" gradientUnits="userSpaceOnUse">
<stop stop-color="#5B0340"/>
<stop offset="0.018" stop-color="#600540"/>
<stop offset="0.1729" stop-color="#8A163E"/>
<stop offset="0.3313" stop-color="#AC253D"/>
<stop offset="0.4916" stop-color="#C7303B"/>
<stop offset="0.6546" stop-color="#DA383B"/>
<stop offset="0.8218" stop-color="#E53C3A"/>
<stop offset="1" stop-color="#E93E3A"/>
</linearGradient>
<linearGradient id="paint72_linear_219_17" x1="119.384" y1="108.321" x2="119.384" y2="108.084" gradientUnits="userSpaceOnUse">
<stop stop-color="#5B0340"/>
<stop offset="0.018" stop-color="#600540"/>
<stop offset="0.1729" stop-color="#8A163E"/>
<stop offset="0.3313" stop-color="#AC253D"/>
<stop offset="0.4916" stop-color="#C7303B"/>
<stop offset="0.6546" stop-color="#DA383B"/>
<stop offset="0.8218" stop-color="#E53C3A"/>
<stop offset="1" stop-color="#E93E3A"/>
</linearGradient>
<linearGradient id="paint73_linear_219_17" x1="118.137" y1="108.388" x2="118.137" y2="108.151" gradientUnits="userSpaceOnUse">
<stop stop-color="#5B0340"/>
<stop offset="0.018" stop-color="#600540"/>
<stop offset="0.1729" stop-color="#8A163E"/>
<stop offset="0.3313" stop-color="#AC253D"/>
<stop offset="0.4916" stop-color="#C7303B"/>
<stop offset="0.6546" stop-color="#DA383B"/>
<stop offset="0.8218" stop-color="#E53C3A"/>
<stop offset="1" stop-color="#E93E3A"/>
</linearGradient>
<linearGradient id="paint74_linear_219_17" x1="118.379" y1="107.871" x2="118.379" y2="107.786" gradientUnits="userSpaceOnUse">
<stop stop-color="#5B0340"/>
<stop offset="0.018" stop-color="#600540"/>
<stop offset="0.1729" stop-color="#8A163E"/>
<stop offset="0.3313" stop-color="#AC253D"/>
<stop offset="0.4916" stop-color="#C7303B"/>
<stop offset="0.6546" stop-color="#DA383B"/>
<stop offset="0.8218" stop-color="#E53C3A"/>
<stop offset="1" stop-color="#E93E3A"/>
</linearGradient>
<linearGradient id="paint75_linear_219_17" x1="117.491" y1="107.184" x2="117.491" y2="107.098" gradientUnits="userSpaceOnUse">
<stop stop-color="#5B0340"/>
<stop offset="0.018" stop-color="#600540"/>
<stop offset="0.1729" stop-color="#8A163E"/>
<stop offset="0.3313" stop-color="#AC253D"/>
<stop offset="0.4916" stop-color="#C7303B"/>
<stop offset="0.6546" stop-color="#DA383B"/>
<stop offset="0.8218" stop-color="#E53C3A"/>
<stop offset="1" stop-color="#E93E3A"/>
</linearGradient>
<linearGradient id="paint76_linear_219_17" x1="117.525" y1="106.709" x2="117.525" y2="106.171" gradientUnits="userSpaceOnUse">
<stop stop-color="#5B0340"/>
<stop offset="0.018" stop-color="#600540"/>
<stop offset="0.1729" stop-color="#8A163E"/>
<stop offset="0.3313" stop-color="#AC253D"/>
<stop offset="0.4916" stop-color="#C7303B"/>
<stop offset="0.6546" stop-color="#DA383B"/>
<stop offset="0.8218" stop-color="#E53C3A"/>
<stop offset="1" stop-color="#E93E3A"/>
</linearGradient>
<linearGradient id="paint77_linear_219_17" x1="116.583" y1="106.314" x2="120.079" y2="106.314" gradientUnits="userSpaceOnUse">
<stop stop-color="white"/>
<stop offset="1" stop-color="white" stop-opacity="0"/>
</linearGradient>
<linearGradient id="paint78_linear_219_17" x1="119.526" y1="96.6982" x2="119.526" y2="107.107" gradientUnits="userSpaceOnUse">
<stop stop-color="white"/>
<stop offset="1" stop-color="white" stop-opacity="0"/>
</linearGradient>
<linearGradient id="paint79_linear_219_17" x1="127.924" y1="105.674" x2="127.924" y2="106.756" gradientUnits="userSpaceOnUse">
<stop stop-color="#FF663B"/>
<stop offset="0.1428" stop-color="#FE6F2E"/>
<stop offset="0.4168" stop-color="#FE7C1B"/>
<stop offset="0.6992" stop-color="#FD8310"/>
<stop offset="1" stop-color="#FD860C"/>
</linearGradient>
<linearGradient id="paint80_linear_219_17" x1="127.444" y1="114.955" x2="127.444" y2="106.771" gradientUnits="userSpaceOnUse">
<stop stop-color="#FFF33B"/>
<stop offset="0.1187" stop-color="#FFE130"/>
<stop offset="0.3289" stop-color="#FEC620"/>
<stop offset="0.544" stop-color="#FDB315"/>
<stop offset="0.7648" stop-color="#FDA80E"/>
<stop offset="1" stop-color="#FDA40C"/>
</linearGradient>
<linearGradient id="paint81_linear_219_17" x1="127.991" y1="107.816" x2="127.991" y2="106.978" gradientUnits="userSpaceOnUse">
<stop stop-color="#5B0340"/>
<stop offset="0.018" stop-color="#600540"/>
<stop offset="0.1729" stop-color="#8A163E"/>
<stop offset="0.3313" stop-color="#AC253D"/>
<stop offset="0.4916" stop-color="#C7303B"/>
<stop offset="0.6546" stop-color="#DA383B"/>
<stop offset="0.8218" stop-color="#E53C3A"/>
<stop offset="1" stop-color="#E93E3A"/>
</linearGradient>
<linearGradient id="paint82_linear_219_17" x1="128.612" y1="106.954" x2="128.612" y2="106.539" gradientUnits="userSpaceOnUse">
<stop stop-color="#5B0340"/>
<stop offset="0.018" stop-color="#600540"/>
<stop offset="0.1729" stop-color="#8A163E"/>
<stop offset="0.3313" stop-color="#AC253D"/>
<stop offset="0.4916" stop-color="#C7303B"/>
<stop offset="0.6546" stop-color="#DA383B"/>
<stop offset="0.8218" stop-color="#E53C3A"/>
<stop offset="1" stop-color="#E93E3A"/>
</linearGradient>
<linearGradient id="paint83_linear_219_17" x1="127.066" y1="107.546" x2="127.066" y2="107.309" gradientUnits="userSpaceOnUse">
<stop stop-color="#5B0340"/>
<stop offset="0.018" stop-color="#600540"/>
<stop offset="0.1729" stop-color="#8A163E"/>
<stop offset="0.3313" stop-color="#AC253D"/>
<stop offset="0.4916" stop-color="#C7303B"/>
<stop offset="0.6546" stop-color="#DA383B"/>
<stop offset="0.8218" stop-color="#E53C3A"/>
<stop offset="1" stop-color="#E93E3A"/>
</linearGradient>
<linearGradient id="paint84_linear_219_17" x1="127.669" y1="106.924" x2="127.669" y2="106.569" gradientUnits="userSpaceOnUse">
<stop stop-color="#5B0340"/>
<stop offset="0.018" stop-color="#600540"/>
<stop offset="0.1729" stop-color="#8A163E"/>
<stop offset="0.3313" stop-color="#AC253D"/>
<stop offset="0.4916" stop-color="#C7303B"/>
<stop offset="0.6546" stop-color="#DA383B"/>
<stop offset="0.8218" stop-color="#E53C3A"/>
<stop offset="1" stop-color="#E93E3A"/>
</linearGradient>
<linearGradient id="paint85_linear_219_17" x1="128.218" y1="108.321" x2="128.218" y2="108.084" gradientUnits="userSpaceOnUse">
<stop stop-color="#5B0340"/>
<stop offset="0.018" stop-color="#600540"/>
<stop offset="0.1729" stop-color="#8A163E"/>
<stop offset="0.3313" stop-color="#AC253D"/>
<stop offset="0.4916" stop-color="#C7303B"/>
<stop offset="0.6546" stop-color="#DA383B"/>
<stop offset="0.8218" stop-color="#E53C3A"/>
<stop offset="1" stop-color="#E93E3A"/>
</linearGradient>
<linearGradient id="paint86_linear_219_17" x1="126.971" y1="108.388" x2="126.971" y2="108.151" gradientUnits="userSpaceOnUse">
<stop stop-color="#5B0340"/>
<stop offset="0.018" stop-color="#600540"/>
<stop offset="0.1729" stop-color="#8A163E"/>
<stop offset="0.3313" stop-color="#AC253D"/>
<stop offset="0.4916" stop-color="#C7303B"/>
<stop offset="0.6546" stop-color="#DA383B"/>
<stop offset="0.8218" stop-color="#E53C3A"/>
<stop offset="1" stop-color="#E93E3A"/>
</linearGradient>
<linearGradient id="paint87_linear_219_17" x1="127.212" y1="107.871" x2="127.212" y2="107.786" gradientUnits="userSpaceOnUse">
<stop stop-color="#5B0340"/>
<stop offset="0.018" stop-color="#600540"/>
<stop offset="0.1729" stop-color="#8A163E"/>
<stop offset="0.3313" stop-color="#AC253D"/>
<stop offset="0.4916" stop-color="#C7303B"/>
<stop offset="0.6546" stop-color="#DA383B"/>
<stop offset="0.8218" stop-color="#E53C3A"/>
<stop offset="1" stop-color="#E93E3A"/>
</linearGradient>
<linearGradient id="paint88_linear_219_17" x1="126.324" y1="107.184" x2="126.324" y2="107.098" gradientUnits="userSpaceOnUse">
<stop stop-color="#5B0340"/>
<stop offset="0.018" stop-color="#600540"/>
<stop offset="0.1729" stop-color="#8A163E"/>
<stop offset="0.3313" stop-color="#AC253D"/>
<stop offset="0.4916" stop-color="#C7303B"/>
<stop offset="0.6546" stop-color="#DA383B"/>
<stop offset="0.8218" stop-color="#E53C3A"/>
<stop offset="1" stop-color="#E93E3A"/>
</linearGradient>
<linearGradient id="paint89_linear_219_17" x1="126.359" y1="106.709" x2="126.359" y2="106.171" gradientUnits="userSpaceOnUse">
<stop stop-color="#5B0340"/>
<stop offset="0.018" stop-color="#600540"/>
<stop offset="0.1729" stop-color="#8A163E"/>
<stop offset="0.3313" stop-color="#AC253D"/>
<stop offset="0.4916" stop-color="#C7303B"/>
<stop offset="0.6546" stop-color="#DA383B"/>
<stop offset="0.8218" stop-color="#E53C3A"/>
<stop offset="1" stop-color="#E93E3A"/>
</linearGradient>
<linearGradient id="paint90_linear_219_17" x1="125.417" y1="106.314" x2="128.912" y2="106.314" gradientUnits="userSpaceOnUse">
<stop stop-color="white"/>
<stop offset="1" stop-color="white" stop-opacity="0"/>
</linearGradient>
<linearGradient id="paint91_linear_219_17" x1="128.359" y1="96.6982" x2="128.359" y2="107.107" gradientUnits="userSpaceOnUse">
<stop stop-color="white"/>
<stop offset="1" stop-color="white" stop-opacity="0"/>
</linearGradient>
<linearGradient id="paint92_linear_219_17" x1="136.757" y1="105.674" x2="136.757" y2="106.756" gradientUnits="userSpaceOnUse">
<stop stop-color="#FF663B"/>
<stop offset="0.1428" stop-color="#FE6F2E"/>
<stop offset="0.4168" stop-color="#FE7C1B"/>
<stop offset="0.6992" stop-color="#FD8310"/>
<stop offset="1" stop-color="#FD860C"/>
</linearGradient>
<linearGradient id="paint93_linear_219_17" x1="136.278" y1="114.955" x2="136.278" y2="106.771" gradientUnits="userSpaceOnUse">
<stop stop-color="#FFF33B"/>
<stop offset="0.1187" stop-color="#FFE130"/>
<stop offset="0.3289" stop-color="#FEC620"/>
<stop offset="0.544" stop-color="#FDB315"/>
<stop offset="0.7648" stop-color="#FDA80E"/>
<stop offset="1" stop-color="#FDA40C"/>
</linearGradient>
<linearGradient id="paint94_linear_219_17" x1="136.825" y1="107.816" x2="136.825" y2="106.978" gradientUnits="userSpaceOnUse">
<stop stop-color="#5B0340"/>
<stop offset="0.018" stop-color="#600540"/>
<stop offset="0.1729" stop-color="#8A163E"/>
<stop offset="0.3313" stop-color="#AC253D"/>
<stop offset="0.4916" stop-color="#C7303B"/>
<stop offset="0.6546" stop-color="#DA383B"/>
<stop offset="0.8218" stop-color="#E53C3A"/>
<stop offset="1" stop-color="#E93E3A"/>
</linearGradient>
<linearGradient id="paint95_linear_219_17" x1="137.446" y1="106.954" x2="137.446" y2="106.539" gradientUnits="userSpaceOnUse">
<stop stop-color="#5B0340"/>
<stop offset="0.018" stop-color="#600540"/>
<stop offset="0.1729" stop-color="#8A163E"/>
<stop offset="0.3313" stop-color="#AC253D"/>
<stop offset="0.4916" stop-color="#C7303B"/>
<stop offset="0.6546" stop-color="#DA383B"/>
<stop offset="0.8218" stop-color="#E53C3A"/>
<stop offset="1" stop-color="#E93E3A"/>
</linearGradient>
<linearGradient id="paint96_linear_219_17" x1="135.9" y1="107.546" x2="135.9" y2="107.309" gradientUnits="userSpaceOnUse">
<stop stop-color="#5B0340"/>
<stop offset="0.018" stop-color="#600540"/>
<stop offset="0.1729" stop-color="#8A163E"/>
<stop offset="0.3313" stop-color="#AC253D"/>
<stop offset="0.4916" stop-color="#C7303B"/>
<stop offset="0.6546" stop-color="#DA383B"/>
<stop offset="0.8218" stop-color="#E53C3A"/>
<stop offset="1" stop-color="#E93E3A"/>
</linearGradient>
<linearGradient id="paint97_linear_219_17" x1="136.503" y1="106.924" x2="136.503" y2="106.569" gradientUnits="userSpaceOnUse">
<stop stop-color="#5B0340"/>
<stop offset="0.018" stop-color="#600540"/>
<stop offset="0.1729" stop-color="#8A163E"/>
<stop offset="0.3313" stop-color="#AC253D"/>
<stop offset="0.4916" stop-color="#C7303B"/>
<stop offset="0.6546" stop-color="#DA383B"/>
<stop offset="0.8218" stop-color="#E53C3A"/>
<stop offset="1" stop-color="#E93E3A"/>
</linearGradient>
<linearGradient id="paint98_linear_219_17" x1="137.051" y1="108.321" x2="137.051" y2="108.084" gradientUnits="userSpaceOnUse">
<stop stop-color="#5B0340"/>
<stop offset="0.018" stop-color="#600540"/>
<stop offset="0.1729" stop-color="#8A163E"/>
<stop offset="0.3313" stop-color="#AC253D"/>
<stop offset="0.4916" stop-color="#C7303B"/>
<stop offset="0.6546" stop-color="#DA383B"/>
<stop offset="0.8218" stop-color="#E53C3A"/>
<stop offset="1" stop-color="#E93E3A"/>
</linearGradient>
<linearGradient id="paint99_linear_219_17" x1="135.804" y1="108.388" x2="135.804" y2="108.151" gradientUnits="userSpaceOnUse">
<stop stop-color="#5B0340"/>
<stop offset="0.018" stop-color="#600540"/>
<stop offset="0.1729" stop-color="#8A163E"/>
<stop offset="0.3313" stop-color="#AC253D"/>
<stop offset="0.4916" stop-color="#C7303B"/>
<stop offset="0.6546" stop-color="#DA383B"/>
<stop offset="0.8218" stop-color="#E53C3A"/>
<stop offset="1" stop-color="#E93E3A"/>
</linearGradient>
<linearGradient id="paint100_linear_219_17" x1="136.046" y1="107.871" x2="136.046" y2="107.786" gradientUnits="userSpaceOnUse">
<stop stop-color="#5B0340"/>
<stop offset="0.018" stop-color="#600540"/>
<stop offset="0.1729" stop-color="#8A163E"/>
<stop offset="0.3313" stop-color="#AC253D"/>
<stop offset="0.4916" stop-color="#C7303B"/>
<stop offset="0.6546" stop-color="#DA383B"/>
<stop offset="0.8218" stop-color="#E53C3A"/>
<stop offset="1" stop-color="#E93E3A"/>
</linearGradient>
<linearGradient id="paint101_linear_219_17" x1="135.158" y1="107.184" x2="135.158" y2="107.098" gradientUnits="userSpaceOnUse">
<stop stop-color="#5B0340"/>
<stop offset="0.018" stop-color="#600540"/>
<stop offset="0.1729" stop-color="#8A163E"/>
<stop offset="0.3313" stop-color="#AC253D"/>
<stop offset="0.4916" stop-color="#C7303B"/>
<stop offset="0.6546" stop-color="#DA383B"/>
<stop offset="0.8218" stop-color="#E53C3A"/>
<stop offset="1" stop-color="#E93E3A"/>
</linearGradient>
<linearGradient id="paint102_linear_219_17" x1="135.192" y1="106.709" x2="135.192" y2="106.171" gradientUnits="userSpaceOnUse">
<stop stop-color="#5B0340"/>
<stop offset="0.018" stop-color="#600540"/>
<stop offset="0.1729" stop-color="#8A163E"/>
<stop offset="0.3313" stop-color="#AC253D"/>
<stop offset="0.4916" stop-color="#C7303B"/>
<stop offset="0.6546" stop-color="#DA383B"/>
<stop offset="0.8218" stop-color="#E53C3A"/>
<stop offset="1" stop-color="#E93E3A"/>
</linearGradient>
<linearGradient id="paint103_linear_219_17" x1="134.25" y1="106.314" x2="137.746" y2="106.314" gradientUnits="userSpaceOnUse">
<stop stop-color="white"/>
<stop offset="1" stop-color="white" stop-opacity="0"/>
</linearGradient>
<linearGradient id="paint104_linear_219_17" x1="137.193" y1="96.6982" x2="137.193" y2="107.107" gradientUnits="userSpaceOnUse">
<stop stop-color="white"/>
<stop offset="1" stop-color="white" stop-opacity="0"/>
</linearGradient>
</defs>
</svg>
