<svg width="18" height="14" viewBox="0 0 18 14" fill="none" xmlns="http://www.w3.org/2000/svg">
<path d="M0.30484 1.21685C0.30484 0.961529 0.37905 0.716662 0.511145 0.53612C0.64324 0.355578 0.822398 0.25415 1.00921 0.25415H16.5053C16.6921 0.25415 16.8713 0.355578 17.0034 0.53612C17.1355 0.716662 17.2097 0.961529 17.2097 1.21685C17.2097 1.47218 17.1355 1.71705 17.0034 1.89759C16.8713 2.07813 16.6921 2.17956 16.5053 2.17956H1.00921C0.822398 2.17956 0.64324 2.07813 0.511145 1.89759C0.37905 1.71705 0.30484 1.47218 0.30484 1.21685Z" fill="white"/>
<path d="M0.30484 1.21685C0.30484 0.961529 0.37905 0.716662 0.511145 0.53612C0.64324 0.355578 0.822398 0.25415 1.00921 0.25415H16.5053C16.6921 0.25415 16.8713 0.355578 17.0034 0.53612C17.1355 0.716662 17.2097 0.961529 17.2097 1.21685C17.2097 1.47218 17.1355 1.71705 17.0034 1.89759C16.8713 2.07813 16.6921 2.17956 16.5053 2.17956H1.00921C0.822398 2.17956 0.64324 2.07813 0.511145 1.89759C0.37905 1.71705 0.30484 1.47218 0.30484 1.21685Z" fill="white"/>
<path d="M0.30484 6.66583C0.30484 6.4105 0.37905 6.16564 0.511145 5.98509C0.64324 5.80455 0.822398 5.70312 1.00921 5.70312H16.5053C16.6921 5.70312 16.8713 5.80455 17.0034 5.98509C17.1355 6.16564 17.2097 6.4105 17.2097 6.66583C17.2097 6.92115 17.1355 7.16602 17.0034 7.34656C16.8713 7.5271 16.6921 7.62853 16.5053 7.62853H1.00921C0.822398 7.62853 0.64324 7.5271 0.511145 7.34656C0.37905 7.16602 0.30484 6.92115 0.30484 6.66583Z" fill="white"/>
<path d="M0.30484 6.66583C0.30484 6.4105 0.37905 6.16564 0.511145 5.98509C0.64324 5.80455 0.822398 5.70312 1.00921 5.70312H16.5053C16.6921 5.70312 16.8713 5.80455 17.0034 5.98509C17.1355 6.16564 17.2097 6.4105 17.2097 6.66583C17.2097 6.92115 17.1355 7.16602 17.0034 7.34656C16.8713 7.5271 16.6921 7.62853 16.5053 7.62853H1.00921C0.822398 7.62853 0.64324 7.5271 0.511145 7.34656C0.37905 7.16602 0.30484 6.92115 0.30484 6.66583Z" fill="white"/>
<path d="M0.30484 12.1148C0.30484 11.8595 0.37905 11.6146 0.511145 11.4341C0.64324 11.2535 0.822398 11.1521 1.00921 11.1521H16.5053C16.6921 11.1521 16.8713 11.2535 17.0034 11.4341C17.1355 11.6146 17.2097 11.8595 17.2097 12.1148C17.2097 12.3701 17.1355 12.615 17.0034 12.7955C16.8713 12.9761 16.6921 13.0775 16.5053 13.0775H1.00921C0.822398 13.0775 0.64324 12.9761 0.511145 12.7955C0.37905 12.615 0.30484 12.3701 0.30484 12.1148Z" fill="white"/>
<path d="M0.30484 12.1148C0.30484 11.8595 0.37905 11.6146 0.511145 11.4341C0.64324 11.2535 0.822398 11.1521 1.00921 11.1521H16.5053C16.6921 11.1521 16.8713 11.2535 17.0034 11.4341C17.1355 11.6146 17.2097 11.8595 17.2097 12.1148C17.2097 12.3701 17.1355 12.615 17.0034 12.7955C16.8713 12.9761 16.6921 13.0775 16.5053 13.0775H1.00921C0.822398 13.0775 0.64324 12.9761 0.511145 12.7955C0.37905 12.615 0.30484 12.3701 0.30484 12.1148Z" fill="white"/>
</svg>
