<svg width="162" height="155" viewBox="0 0 162 155" fill="none" xmlns="http://www.w3.org/2000/svg">
<path d="M35.312 78.3973L36.5565 79.8085L38.4266 79.5833L37.4669 81.2055L38.2614 82.9158L36.4229 82.5041L35.0448 83.785L34.8691 81.9093L33.2239 80.9944L34.9499 80.2448L35.312 78.3973Z" stroke="#BEA7FF" stroke-width="0.9076" stroke-miterlimit="10"/>
<path d="M110.552 13.8474L111.846 15.2163L113.705 14.9278L112.802 16.5817L113.652 18.2638L111.803 17.9154L110.467 19.2421L110.228 17.3735L108.555 16.5149L110.253 15.709L110.552 13.8474Z" stroke="#BEA7FF" stroke-width="0.9076" stroke-miterlimit="10"/>
<path d="M89.8814 76.7223L89.8497 78.0032L90.8833 78.7528L89.6564 79.1188L89.2627 80.3363L88.5385 79.2842H87.2589L88.0358 78.2672L87.6386 77.0496L88.8443 77.4754L89.8814 76.7223Z" stroke="#BEA7FF" stroke-width="0.6171" stroke-miterlimit="10"/>
<path d="M118.609 66.8126L118.546 69.4906L120.711 71.0636L118.145 71.8308L117.319 74.3786L115.8 72.1721L113.122 72.1757L114.749 70.0466L113.92 67.4988L116.444 68.3892L118.609 66.8126Z" stroke="#BEA7FF" stroke-width="1.2915" stroke-miterlimit="10"/>
<path d="M136.309 55.1223L137.487 55.9669L138.854 55.4742L138.415 56.8607L139.304 58.0079L137.852 58.015L137.037 59.2185L136.58 57.839L135.188 57.4343L136.355 56.5757L136.309 55.1223Z" stroke="#BEA7FF" stroke-width="0.6999" stroke-miterlimit="10"/>
<path d="M126.248 29.7887L126.213 31.2421L127.387 32.0937L125.995 32.5089L125.549 33.8919L124.726 32.6954H123.274L124.156 31.5412L123.706 30.1617L125.074 30.6438L126.248 29.7887Z" stroke="#BEA7FF" stroke-width="0.6999" stroke-miterlimit="10"/>
<path d="M73.2958 15.2129L73.2501 17.0956L74.7722 18.2006L72.9688 18.739L72.3888 20.5302L71.3201 18.9783L69.4394 18.9818L70.5819 17.4862L69.9983 15.695L71.7736 16.3214L73.2958 15.2129Z" stroke="#BEA7FF" stroke-width="0.9076" stroke-miterlimit="10"/>
<path d="M55.7821 30.8093L57.2551 31.9777L59.055 31.4216L58.4011 33.1882L59.4838 34.7295L57.6031 34.6521L56.4747 36.1583L55.9649 34.346L54.1862 33.7372L55.7505 32.692L55.7821 30.8093Z" stroke="#BEA7FF" stroke-width="0.9076" stroke-miterlimit="10"/>
<path d="M105.402 45.6702C104.685 52.2156 109.409 58.1065 115.948 58.8209C122.49 59.5352 128.371 54.8092 129.085 48.2637C129.802 41.7148 125.077 35.8274 118.539 35.113C112 34.3952 106.119 39.1248 105.402 45.6702Z" stroke="#BEA7FF" stroke-width="0.4707" stroke-miterlimit="10"/>
<path d="M105.402 45.6702C105.936 40.7753 109.357 36.9008 113.782 35.553C110.429 27.0123 102.122 20.963 92.4019 20.963C79.7149 20.963 69.4324 31.2597 69.4324 43.9565C69.4324 56.6567 79.7184 66.9499 92.4019 66.9499C100.153 66.9499 107.001 63.1036 111.164 57.2162C107.275 54.9077 104.878 50.4667 105.402 45.6702Z" stroke="#BEA7FF" stroke-width="0.9076" stroke-miterlimit="10"/>
<path d="M138.949 41.6691C138.559 40.0679 133.919 39.7196 127.331 40.5254L127.784 41.3665C132.748 40.6451 136.292 41.2292 136.499 42.0844C136.843 43.492 128.505 46.7401 117.878 49.3336C107.251 51.9271 98.3535 52.8878 98.0125 51.4802C97.8051 50.6251 100.6 48.489 105.363 46.8386V45.8884C99.1269 48.211 95.1545 50.6638 95.5447 52.265C96.1282 54.672 106.323 54.2497 118.307 51.3219C130.291 48.3975 139.533 44.0761 138.949 41.6691Z" stroke="#BEA7FF" stroke-width="0.9076" stroke-miterlimit="10"/>
<path d="M78.5161 56.6602C78.4704 56.4631 78.4564 56.266 78.4564 56.0655C78.4564 54.6684 78.7236 54.869 78.1927 54.869C75.6089 54.869 74.4945 52.1558 74.491 50.347C74.491 49.2772 75.1554 48.2321 76.3472 48.2321C77.7111 48.2321 78.0521 49.7804 79.7149 50.0444C81.9261 50.3928 81.4339 53.1024 82.5202 54.8584C83.9791 57.2162 88.4401 59.2502 88.4401 60.8478C88.4401 61.5587 87.2695 62.1393 86.257 62.1393C85.2622 62.1393 84.9282 61.4778 84.3482 61.4778C84.3411 61.4778 84.3306 61.4778 84.3236 61.4778C84.2005 61.4848 84.0775 61.4883 83.9544 61.4883C80.9699 61.4813 79.1559 59.391 78.5161 56.6602Z" stroke="#BEA7FF" stroke-width="0.9076" stroke-miterlimit="10"/>
<path d="M90.3349 55.6221C89.9763 55.33 89.7478 54.8796 89.7478 54.4643C89.7478 53.6162 90.7497 53.3347 91.3403 53.3347C92.4546 53.3347 93.2843 54.3095 93.2843 55.0555C93.2843 55.9001 92.5214 56.0162 91.6285 56.0162C91.161 56.0127 90.7005 55.9212 90.3349 55.6221Z" stroke="#BEA7FF" stroke-width="0.9076" stroke-miterlimit="10"/>
<path d="M73.2396 43.9916C73.0111 43.9072 72.7861 43.6995 72.7861 43.4497C72.7861 42.7037 73.9356 41.4825 75.0183 41.4825C75.4859 41.4825 75.6335 42.5347 75.6335 42.9993C75.6335 43.7383 75.2715 45.3183 74.5508 45.3183C73.8899 45.3183 73.222 44.523 73.222 44.1394C73.222 44.0937 73.2255 44.0444 73.2396 43.9916Z" stroke="#BEA7FF" stroke-width="0.9076" stroke-miterlimit="10"/>
<path d="M99.5171 34.7682C99.2007 34.3741 98.9406 33.7653 98.9406 33.2198C98.9406 32.4738 99.4573 32.0726 100.097 32.0726C101.552 32.0726 101.802 34.7682 101.802 35.1729C101.802 35.8978 101.426 36.7248 100.691 36.7248C100.41 36.7248 100.132 36.6016 99.9846 36.3412C99.6964 35.831 99.8862 35.2292 99.5171 34.7682Z" stroke="#BEA7FF" stroke-width="0.9076" stroke-miterlimit="10"/>
<path d="M85.8281 28.8526C85.8246 28.8351 85.8246 28.8175 85.8246 28.7999C85.8246 28.2403 87.2238 27.8884 87.8179 27.8884C88.7776 27.8884 89.7232 28.3987 89.7232 29.3664C89.7232 29.9154 89.2873 30.8867 87.3433 30.8867C86.9109 30.8867 86.4679 30.8585 86.0496 30.8585C85.8211 30.8585 85.6032 30.8655 85.3958 30.8937C85.3782 30.8972 85.3641 30.8972 85.3501 30.8972C85.0899 30.8972 84.9177 30.6016 84.9177 30.3236C84.9177 30.2427 84.9317 30.1617 84.9634 30.0914C85.1497 29.648 85.3922 29.1201 85.8281 28.8526Z" stroke="#BEA7FF" stroke-width="0.9076" stroke-miterlimit="10"/>
<path d="M94.9435 25.5095C94.81 25.777 94.7748 26.0444 94.7748 26.3119C94.7748 26.5793 94.81 26.8468 94.81 27.1142C94.81 27.3605 95.151 27.6561 95.4111 27.6561C95.4111 27.6561 96.2231 27.452 97.1477 27.452C99.5171 27.452 101.63 28.5676 104.027 28.9828C104.031 28.9828 104.038 28.9828 104.041 28.9828C104.171 28.9828 104.432 28.74 104.432 28.6098C104.432 28.5993 104.432 28.5887 104.428 28.5817C103.032 25.1506 93.9979 22.4409 93.46 22.4409C92.9679 22.4409 92.5847 22.6169 92.5847 23.1342C92.5847 23.2749 92.6128 23.4403 92.6726 23.6339C93.0171 24.7248 94.6729 24.1723 94.9435 25.5095Z" stroke="#BEA7FF" stroke-width="0.9076" stroke-miterlimit="10"/>
<path d="M75.1765 33.2621C75.5773 32.8961 77.5635 30.9325 77.5635 31.9143C77.5635 32.5864 77.9115 33.1952 77.9115 33.7899C77.9115 34.8773 76.4561 36.3096 74.7758 36.3096C74.15 36.3096 73.1868 36.0175 73.1868 35.4298C73.1868 34.7119 74.5473 33.8392 75.1765 33.2621Z" stroke="#BEA7FF" stroke-width="0.9076" stroke-miterlimit="10"/>
<path d="M90.8024 38.8784C91.1188 38.7377 91.4562 38.6708 91.7797 38.6708C93.6006 38.6708 95.2177 43.3617 95.2177 43.7629C95.2177 45.5329 93.344 47.2502 91.052 47.2502C88.6791 47.2502 86.5663 45.2022 86.5663 42.0737C86.5663 40.1066 87.3257 38.3682 89.2134 38.3682C89.7372 38.3717 90.2856 38.5336 90.8024 38.8784Z" stroke="#BEA7FF" stroke-width="0.9076" stroke-miterlimit="10"/>
<path d="M101.405 46.4937C101.194 46.4937 101.022 46.4585 100.888 46.3881L100.8 46.4163C100.786 46.3775 100.776 46.3388 100.761 46.3036C100.751 46.2931 100.74 46.2861 100.73 46.2755C100.519 46.0608 100.519 45.7512 100.522 45.4978V45.4309H100.565C100.554 45.3359 100.551 45.2409 100.551 45.1494C100.551 44.1817 101.099 43.1823 102.02 43.1823C102.477 43.1823 102.966 43.5236 102.966 44.2696C102.969 45.167 102.47 46.4937 101.405 46.4937ZM101.036 46.1031C101.124 46.1488 101.247 46.1734 101.405 46.1734C102.217 46.1734 102.649 45.0649 102.649 44.2661C102.649 43.7981 102.403 43.499 102.023 43.499C101.313 43.499 100.874 44.3541 100.874 45.1459C100.87 45.4274 100.92 45.723 101.036 46.1031Z" fill="#BEA7FF"/>
<path d="M92.8062 63.2091C92.8062 63.9129 94.2967 64.0044 94.7607 64.0044C96.5325 64.0044 97.3129 62.8889 97.3129 62.0584C97.3129 61.344 96.4481 61.0414 95.9665 61.0414C94.7888 61.0414 93.7272 62.3927 92.8062 63.2091Z" stroke="#BEA7FF" stroke-width="0.9076" stroke-miterlimit="10"/>
<path d="M81.3179 58.5324C81.8558 59.0074 82.4885 59.3171 83.1565 59.3171C83.7646 59.3171 84.204 59.1552 84.204 58.5394C84.204 58.001 83.1881 57.5118 82.2284 57.5118C81.6273 57.5118 81.1316 57.5541 81.1316 58.1206C81.1351 58.2649 81.1878 58.4162 81.3179 58.5324Z" stroke="#BEA7FF" stroke-width="0.9076" stroke-miterlimit="10"/>
<path d="M40.7152 27.8497C40.7152 27.8497 40.5992 28.3776 40.3988 29.2996C40.3461 29.5283 40.2898 29.7852 40.2266 30.0632C40.1598 30.3412 40.1387 30.6474 40.0895 30.9711C40.0473 31.2949 39.9981 31.6397 39.9524 32.0057C39.9278 32.1887 39.8996 32.3752 39.875 32.5653C39.8539 32.7553 39.8504 32.9559 39.8399 33.1565C39.8188 33.5576 39.7942 33.9764 39.7696 34.4128C39.759 34.6309 39.7379 34.8491 39.7379 35.0743C39.745 35.2996 39.752 35.5248 39.759 35.757C39.7731 36.218 39.7871 36.6896 39.8047 37.1752C39.8293 37.6573 39.9032 38.1465 39.9524 38.6497C40.0227 39.6561 40.2617 40.6661 40.4621 41.7042C40.5043 41.9646 40.5781 42.218 40.6554 42.4749C40.7293 42.7283 40.8031 42.9852 40.8769 43.242C41.0316 43.7523 41.1546 44.2766 41.3656 44.7693C41.5554 45.269 41.7417 45.7722 41.9315 46.272C42.1214 46.7541 42.378 47.2432 42.5924 47.7218C42.8033 48.2145 43.0811 48.6508 43.3271 49.1048C43.4537 49.33 43.5767 49.5517 43.7033 49.7734C43.8369 49.9881 43.981 50.1992 44.1181 50.4104C44.4028 50.8256 44.6489 51.2549 44.9477 51.635C45.2395 52.0221 45.5243 52.3986 45.802 52.7681C46.0867 53.1306 46.3961 53.4578 46.6773 53.7886C46.8214 53.9505 46.962 54.1124 47.0991 54.2707C47.2362 54.4291 47.3909 54.5663 47.5315 54.7071C48.1046 55.2702 48.6178 55.8051 49.131 56.2168C49.6302 56.6426 50.0521 57.0332 50.4423 57.2971C51.1981 57.8637 51.6305 58.1875 51.6305 58.1875C51.6305 58.1875 51.1805 57.8883 50.3966 57.364C49.9923 57.1141 49.5529 56.7446 49.0326 56.3364C48.7795 56.1253 48.4842 55.9282 48.2206 55.6713C47.9499 55.418 47.6651 55.154 47.3663 54.876C47.2187 54.7353 47.0605 54.6015 46.9163 54.4467C46.7722 54.2919 46.6281 54.1335 46.4769 53.9716C46.1851 53.6444 45.8617 53.3241 45.5664 52.9652C45.2747 52.5992 44.9759 52.2262 44.6735 51.8426C44.5153 51.6561 44.3747 51.452 44.2376 51.2408C44.097 51.0332 43.9564 50.8221 43.8158 50.6109C43.6752 50.3998 43.5275 50.1887 43.3904 49.9705C43.2603 49.7453 43.1303 49.5165 43.0002 49.2913C42.7436 48.8338 42.4553 48.3763 42.2444 47.8942C42.0194 47.4086 41.7698 46.9476 41.5624 46.4338C41.3656 45.9271 41.1722 45.4203 40.9753 44.9136C40.7644 44.4104 40.6449 43.879 40.4902 43.3582C40.4164 43.0978 40.3461 42.8374 40.2723 42.5769C40.1984 42.3165 40.1246 42.0596 40.0824 41.7957C39.8891 40.7435 39.6571 39.716 39.5938 38.6954C39.5516 38.1887 39.4743 37.6925 39.4637 37.1998C39.4602 36.7107 39.4602 36.2321 39.4567 35.7641C39.4567 35.5318 39.4532 35.2996 39.4532 35.0743C39.4602 34.8491 39.4848 34.6274 39.5024 34.4057C39.5376 33.9694 39.5727 33.5471 39.6043 33.1424C39.6219 32.9383 39.6325 32.7412 39.6571 32.5477C39.6887 32.3541 39.7239 32.1676 39.7555 31.9846C39.8223 31.6186 39.8821 31.2738 39.9418 30.95C40.0051 30.6263 40.0403 30.3166 40.1211 30.0456C40.1949 29.7711 40.2652 29.5178 40.325 29.2925C40.5711 28.367 40.7152 27.8497 40.7152 27.8497Z" fill="#BEA7FF"/>
<path d="M81.3074 9.70203C81.3074 9.70203 80.8082 9.50144 79.9293 9.14954C79.7114 9.06156 79.4688 8.96303 79.2052 8.85394C78.9415 8.74133 78.6427 8.67095 78.3333 8.5689C78.0205 8.47388 77.6865 8.37183 77.3385 8.26274C77.1627 8.20643 76.9834 8.15013 76.8006 8.09382C76.6143 8.04456 76.421 8.00585 76.2241 7.9601C75.8304 7.87212 75.4226 7.78063 74.9972 7.68561C74.7863 7.63987 74.5719 7.58356 74.3504 7.54837C74.1289 7.52022 73.904 7.48855 73.6755 7.45688C73.2185 7.39705 72.7509 7.33371 72.2693 7.26685C71.7877 7.21406 71.2955 7.20702 70.7928 7.17183C69.791 7.07682 68.7539 7.1472 67.6993 7.17183C67.4357 7.17183 67.172 7.2035 66.9083 7.23518C66.6447 7.26685 66.381 7.29852 66.1174 7.33019C65.5901 7.39705 65.0522 7.43224 64.5319 7.56245C64.0082 7.66802 63.4844 7.77007 62.9606 7.87564C62.4544 7.98473 61.9306 8.15717 61.4208 8.29089C60.9005 8.4211 60.4225 8.61816 59.9373 8.78708C59.6948 8.87505 59.4557 8.95951 59.2167 9.04749C58.9811 9.14602 58.7526 9.25159 58.5206 9.35364C58.0672 9.56479 57.6031 9.74074 57.1778 9.96948C56.7489 10.1947 56.3305 10.4129 55.9228 10.624C55.5185 10.8457 55.1459 11.0956 54.7768 11.3208C54.594 11.4334 54.4112 11.546 54.2319 11.6586C54.0526 11.7677 53.8944 11.8979 53.7292 12.014C53.0788 12.4891 52.4707 12.9079 51.9785 13.3442C51.4758 13.7665 51.0258 14.1184 50.6989 14.4598C50.0169 15.1108 49.6267 15.4838 49.6267 15.4838C49.6267 15.4838 49.9958 15.0897 50.6391 14.4C50.952 14.0445 51.3879 13.668 51.873 13.2246C52.1226 13.0099 52.3652 12.7495 52.664 12.5313C52.9558 12.3061 53.2651 12.0668 53.5885 11.8205C53.7503 11.7008 53.9084 11.5636 54.0877 11.4475C54.2635 11.3313 54.4428 11.2117 54.6291 11.0921C54.9982 10.8563 55.3673 10.5923 55.7716 10.3566C56.1794 10.1278 56.5977 9.89558 57.0266 9.6598C57.2375 9.53312 57.4625 9.43106 57.691 9.32901C57.9195 9.22696 58.148 9.12139 58.38 9.01582C58.612 8.91024 58.8441 8.80115 59.0831 8.6991C59.3257 8.6076 59.5717 8.51963 59.8178 8.42813C60.3135 8.25218 60.8091 8.04104 61.3189 7.91083C61.8356 7.77007 62.3278 7.59764 62.8692 7.47799C63.4 7.3689 63.9308 7.25629 64.4616 7.1472C64.9925 7.02051 65.5373 6.98884 66.0717 6.9255C66.3424 6.89735 66.6095 6.86568 66.8767 6.83752C67.1439 6.80585 67.411 6.7777 67.6782 6.7777C68.7469 6.7601 69.798 6.70028 70.8139 6.80585C71.3202 6.84808 71.8229 6.8516 72.308 6.9255C72.7896 7.00292 73.2642 7.08034 73.7247 7.15424C73.9532 7.19295 74.1817 7.22814 74.4031 7.26333C74.6246 7.30556 74.8391 7.3689 75.0535 7.42169C75.4789 7.52726 75.8902 7.63283 76.2839 7.73136C76.4807 7.78415 76.6741 7.82638 76.8604 7.88268C77.0432 7.94602 77.2225 8.00937 77.3983 8.07271C77.7463 8.19588 78.0767 8.31552 78.3896 8.42461C78.6989 8.54074 78.9978 8.6252 79.2509 8.74837C79.511 8.86802 79.7465 8.97711 79.961 9.07564C80.8152 9.47329 81.3074 9.70203 81.3074 9.70203Z" fill="#BEA7FF"/>
<path opacity="0.8" d="M140.285 133.365C140.285 131.961 137.743 130.824 134.608 130.824C131.472 130.824 128.93 131.961 128.93 133.365C128.93 134.769 131.472 135.906 134.608 135.906C137.743 135.906 140.285 134.769 140.285 133.365Z" fill="#F4F0FF"/>
<path opacity="0.8" d="M27.8981 146.234C39.0365 146.234 48.0659 143.719 48.0659 140.618C48.0659 137.516 39.0365 135.001 27.8981 135.001C16.7598 135.001 7.73035 137.516 7.73035 140.618C7.73035 143.719 16.7598 146.234 27.8981 146.234Z" fill="#5230B0"/>
<path opacity="0.8" d="M124.761 113.232C119.558 113.232 115.168 114.746 113.751 116.822L111.044 116.987C110.155 116.326 108.513 115.879 106.632 115.879C106.263 115.879 105.912 115.903 105.563 115.935C105.532 115.668 105.479 115.397 105.412 115.14C107.191 114.788 108.432 114.007 108.432 113.099C108.432 111.863 106.14 110.857 103.317 110.857C100.491 110.857 98.1988 111.86 98.1988 113.099C98.1988 114.337 100.491 115.34 103.317 115.34C103.605 115.34 103.887 115.326 104.161 115.309L104.537 116.09C103.152 116.364 102.09 116.896 101.693 117.55C100.821 117.248 99.7209 117.068 98.5257 117.068C96.7926 117.068 95.2634 117.445 94.3389 118.022L86.837 118.483L86.7913 117.336C88.4893 117.114 89.7337 116.428 89.7337 115.611C89.7337 114.619 87.8952 113.813 85.6277 113.813C85.459 113.813 85.2938 113.82 85.1321 113.827L89.6669 113.113L99.7315 107.546L77.3244 100.314C77.3244 100.314 64.8448 105.332 62.1907 106.807C61.3575 107.271 61.0306 107.693 60.9708 108.059L49.3595 109.312C47.3522 109.471 43.7419 109.759 40.891 109.984C40.0227 109.471 39.0911 109.048 38.1173 108.76C37.235 108.499 36.3948 108.362 35.6108 108.341C34.3066 108.306 29.9897 108.668 28.9773 108.703C28.5484 108.717 28.1406 108.767 27.754 108.844C26.8681 108.904 26.1123 108.957 25.7607 108.971C25.4373 108.981 25.1315 109.013 24.8362 109.059C23.3457 108.133 21.7251 107.387 20.0377 106.916C18.7511 106.553 17.5277 106.374 16.4028 106.363C14.522 106.342 8.342 106.979 6.89014 107.053C2.5381 107.278 -0.309365 109.724 0.0281122 113.553C0.478082 118.69 6.49291 124.374 13.4604 126.242C15.1302 126.689 16.7051 126.879 18.1253 126.834C19.8303 126.784 25.9365 126.172 27.3602 125.901C28.3797 125.707 29.2761 125.345 30.0284 124.842L53.4022 129.11C51.75 129.944 50.7516 131.021 50.7516 132.2C50.7516 134.853 55.8173 137.007 62.0641 137.007C68.311 137.007 73.3766 134.857 73.3766 132.2C73.3766 129.547 68.311 127.397 62.0641 127.397C60.324 127.397 58.6753 127.565 57.2023 127.861L31.8881 122.748C31.8951 122.73 31.9091 122.716 31.9162 122.699C33.2801 122.632 36.2893 122.421 37.7201 122.283C39.4496 122.164 41.8155 121.953 42.5256 121.833C44.2763 121.537 45.5699 120.566 46.0656 119.102C50.5618 118.719 56.6047 118.177 56.7524 118.17C57.2234 118.141 57.6593 118.078 58.0636 117.994L75.8726 119.201L75.1589 120.485L77.4017 120.355C74.9832 120.763 73.2641 121.791 73.2641 122.991C73.2641 124.557 76.1573 125.824 79.7289 125.824C83.0264 125.824 85.7438 124.74 86.141 123.339C86.8335 124.018 88.3873 124.493 90.1977 124.493C92.6515 124.493 94.6412 123.624 94.6412 122.547C94.6412 121.541 92.8941 120.714 90.6547 120.612C90.7004 120.26 90.6688 119.883 90.6196 119.588L93.4214 119.426C93.562 120.608 95.7907 121.551 98.5257 121.551C99.2042 121.551 99.8545 121.492 100.449 121.386C98.1531 121.981 96.6098 123.075 96.6098 124.328C96.6098 126.218 100.108 127.748 104.421 127.748C108.734 127.748 112.236 126.218 112.236 124.328C112.236 122.438 108.738 120.907 104.421 120.907C103.303 120.907 102.238 121.013 101.278 121.2C102.34 120.9 103.131 120.436 103.465 119.89C104.337 120.193 105.433 120.376 106.632 120.376C109.276 120.376 111.452 119.5 111.719 118.37L113.266 118.282C113.266 121.062 118.412 123.318 124.765 123.318C131.113 123.318 136.263 121.066 136.263 118.282C136.26 115.488 131.113 113.232 124.761 113.232ZM60.7107 116.568C61.4454 115.675 61.4911 114.492 60.6685 113.239C59.7721 111.874 58.0355 110.713 56.0212 109.984L61.9481 109.34C61.9727 109.351 61.9903 109.358 61.9903 109.358C61.9903 109.358 77.5178 113.292 79.6797 113.883C81.8417 114.475 82.2354 114.278 82.2354 114.278L83.4166 114.091C82.2776 114.411 81.5218 114.967 81.5218 115.604C81.5218 116.597 83.3603 117.402 85.6277 117.402C85.6699 117.402 85.7086 117.399 85.7508 117.399C85.807 117.79 85.9019 118.215 86.0707 118.522L80.7132 118.852L81.5745 117.462L60.7107 116.568ZM85.8703 122.1C85.0934 121.062 82.9842 120.288 80.4285 120.168L89.579 119.637L89.7337 120.608C87.8319 120.696 86.2886 121.302 85.8703 122.1Z" fill="#5230B0"/>
<path d="M58.257 125.064L57.1672 127.091L54.5025 125.725L55.7997 124.194L58.257 125.064Z" fill="#38220F"/>
<path d="M78.6708 113.796L76.6987 114.334L75.5808 115.784L79.1383 116.322L78.6708 113.796Z" fill="#38220F"/>
<path d="M83.9369 92.5158C83.3146 92.3434 82.6537 92.3715 82.0491 92.5932L67.7485 97.8155C67.6255 97.8612 67.5481 97.9844 67.5622 98.1146C67.5763 98.2448 67.6782 98.3504 67.8083 98.3644L68.9965 98.5123L70.8034 106.018L70.0968 106.564C69.9245 106.698 69.8402 106.919 69.8823 107.134C69.9245 107.349 70.0862 107.525 70.2972 107.581L89.5298 112.87C90.131 113.035 90.7743 112.944 91.3051 112.613C93.8186 111.054 101.264 106.437 102.832 105.417C103.714 104.843 104.818 101.971 103.936 99.7369C103.222 97.9175 87.9549 93.6208 83.9369 92.5158Z" fill="#684622"/>
<path d="M89.5369 112.873C90.138 113.039 90.7813 112.947 91.3121 112.617C93.8256 111.058 101.271 106.441 102.839 105.42C102.99 105.322 103.145 105.156 103.296 104.938C103.897 103.034 104.403 100.18 102.396 99.3216L72.54 96.063L67.7485 97.812C67.7028 97.8296 67.6747 97.8647 67.643 97.8964L67.7661 98.3398C67.7837 98.3433 67.7942 98.3609 67.8118 98.3609L69 98.5087L70.8069 106.015L70.5643 106.205L73.127 108.359L89.5369 112.873Z" fill="url(#paint0_linear_219_15)"/>
<path d="M103.637 104.354L90.1204 111.586L70.7893 105.941L70.8104 106.022L70.1038 106.567C69.9315 106.701 69.8472 106.923 69.8894 107.137C69.9315 107.352 70.0933 107.528 70.3042 107.584L89.5368 112.87C90.138 113.035 90.7813 112.944 91.3121 112.613C93.6147 111.188 100.037 107.201 102.312 105.754L103.335 104.885C103.437 104.734 103.539 104.554 103.637 104.354Z" fill="url(#paint1_linear_219_15)"/>
<path opacity="0.6" d="M90.1204 111.585L90.0396 109.045L103.447 100.152L103.061 99.3779L90.1485 106.726L67.9243 97.7521L67.7485 97.8154C67.6255 97.8612 67.5481 97.9843 67.5622 98.1145C67.5763 98.2447 67.6782 98.3503 67.8083 98.3644L68.9965 98.5122L70.8034 106.018L70.0968 106.564C69.9245 106.697 69.8402 106.919 69.8823 107.134C69.9245 107.349 70.0862 107.524 70.2972 107.581L86.8968 112.145L86.9425 112.134L90.1204 111.585Z" fill="#F4F0FF"/>
<path d="M103.598 99.3392C101.197 97.351 87.6843 93.5469 83.9369 92.5158C83.3146 92.3434 82.6537 92.3715 82.0491 92.5932L67.7485 97.8155C67.6255 97.8612 67.5481 97.9844 67.5622 98.1146C67.5763 98.2448 67.6782 98.3504 67.8083 98.3644L89.2978 107.261C90.1696 107.623 91.161 107.528 91.9519 107.007L103.598 99.3392Z" fill="url(#paint2_linear_219_15)"/>
<path d="M103.665 99.2688C101.264 97.2806 87.6843 93.2125 83.9369 92.185C83.3146 92.0125 82.6537 92.0407 82.0491 92.2624L67.7485 97.4847C67.6255 97.5304 67.5481 97.6536 67.5622 97.7838C67.5763 97.914 67.6782 98.0196 67.8083 98.0336L89.3259 106.944C90.1802 107.299 91.1575 107.215 91.9379 106.715L103.665 99.2688Z" fill="url(#paint3_linear_219_15)"/>
<path opacity="0.6" d="M102.396 102.915L98.2023 105.899L100.245 105.125L102.396 102.915Z" fill="#F4F0FF"/>
<path opacity="0.6" d="M86.6648 102.429L93.9733 97.358C94.3424 97.1011 94.8134 97.0448 95.2318 97.2032L98.4765 98.4348C98.6487 98.5017 98.7823 98.6354 98.8561 98.7973C98.8561 98.7762 98.8632 98.755 98.8597 98.7375C98.8386 98.477 98.6663 98.2518 98.4238 98.1603L95.179 96.9287C94.7607 96.7703 94.2897 96.8266 93.9205 97.0835L86.6121 102.154C86.3976 102.302 86.2851 102.556 86.3168 102.816C86.3238 102.883 86.3449 102.95 86.373 103.01C86.3695 102.781 86.475 102.563 86.6648 102.429Z" fill="#F4F0FF"/>
<path d="M86.6648 102.429C86.4503 102.577 86.3379 102.83 86.3695 103.09C86.4011 103.347 86.5734 103.566 86.8195 103.657L89.224 104.551C89.6353 104.702 90.0888 104.663 90.4684 104.442L98.5819 99.6594C98.8069 99.5257 98.937 99.2758 98.9124 99.0154C98.8913 98.755 98.719 98.5298 98.4765 98.4383L95.2318 97.2066C94.8134 97.0483 94.3424 97.1046 93.9733 97.3615L86.6648 102.429Z" fill="url(#paint4_linear_219_15)"/>
<path d="M52.9593 84.612L55.1669 131.912L58.3659 131.581L54.5025 83.0847L52.9593 84.612Z" fill="#F25136"/>
<path opacity="0.6" d="M53.6201 84.7422L52.9803 85.0448L54.8962 126.154L56.9316 126.278L53.6201 84.7422Z" fill="#F4F0FF"/>
<path d="M45.236 77.12L28.9035 114.679L31.9935 115.784L46.7792 78.0033L45.236 77.12Z" fill="#F25136"/>
<path opacity="0.6" d="M40.2898 94.5886L46.7792 78.0033L45.236 77.12L28.9035 114.679L30.5838 115.281L38.613 95.4578L40.2898 94.5886Z" fill="#F4F0FF"/>
<path d="M63.3332 86.843L77.458 118.655H80.1051L64.2155 85.5164L63.3332 86.843Z" fill="#F25136"/>
<path opacity="0.6" d="M77.8974 116.78L66.9716 92.6988L64.9045 86.9592L64.4581 86.0302L63.3648 86.9205L75.3523 113.922C76.4702 115.573 77.3806 116.663 77.8974 116.78Z" fill="#F4F0FF"/>
<path d="M56.4922 82.2014L60.9075 106.061C62.0114 106.17 62.8937 105.839 62.8937 105.839L58.039 81.9797L56.4922 82.2014Z" fill="#F25136"/>
<path opacity="0.6" d="M62.0852 106.029L59.3572 93.6912L59.881 91.066L58.6858 85.1962L56.9387 84.6508L60.8513 105.807L61.7477 106.068C61.8707 106.057 61.9832 106.047 62.0852 106.029Z" fill="#F4F0FF"/>
<path d="M73.2571 67.3476C72.8036 67.0661 61.2239 60.3411 60.7669 60.0174C59.1042 58.8385 56.4746 59.12 54.0244 60.9746C50.734 63.459 49.015 67.8332 50.1821 70.7435C50.4598 71.4402 50.8817 71.9892 51.4019 72.3868C52.0312 72.8654 65.0557 80.1921 65.2526 80.3153C68.5289 82.3422 72.9829 81.0859 75.1906 77.5035C77.4052 73.9212 76.5369 69.3745 73.2571 67.3476Z" fill="#DFCDD9"/>
<path d="M64.7112 60.5523C64.4124 59.8097 63.98 59.215 63.4351 58.7611C63.3964 58.7259 63.3437 58.6872 63.2945 58.652C63.4632 58.9194 63.6179 59.2045 63.7445 59.5212C65.2631 63.3781 62.718 69.4555 58.0636 73.0942C55.5325 75.0719 52.903 75.9164 50.7867 75.6595C53.0014 76.5323 56.1618 75.8355 59.1745 73.527C63.7128 70.0502 66.1912 64.2402 64.7112 60.5523Z" fill="#684622"/>
<path d="M63.9659 59.2186C63.6495 58.4127 63.1855 57.7652 62.609 57.269C61.6458 56.4456 57.7824 54.2321 56.9492 53.662C56.5942 53.4192 56.211 53.2256 55.8032 53.0708C55.0298 52.6028 54.3689 52.2016 54.0807 52.0045C51.5777 50.2907 47.6756 50.7729 44.0724 53.5881C39.2387 57.364 36.785 63.913 38.5884 68.2133C39.0208 69.2443 38.381 69.2479 39.1684 69.8285C39.8328 70.3176 43.183 72.3517 44.7087 73.1857C46.2203 74.1041 48.3506 75.3041 49.0712 75.6033C51.4336 76.5886 54.8294 75.8426 58.0706 73.3124C62.9008 69.5364 65.5408 63.2268 63.9659 59.2186Z" fill="#DFCDD9"/>
<path d="M45.8969 73.9176L44.6841 78.3375L53.1807 85.6255L64.089 88.1697L66.6447 80.7657L64.655 77.7815L55.9403 74.2484L50.4212 76.015L45.8969 73.9176Z" fill="#F25136"/>
<path opacity="0.6" d="M56.4043 74.4384L55.9403 74.2484L50.4212 76.015L45.8969 73.9176L44.6841 78.3375L53.0542 85.5199L56.1583 77.229L56.4043 74.4384Z" fill="#F4F0FF"/>
<path d="M55.0298 77.4895C55.2302 76.9335 55.0509 76.3599 54.6326 76.2086C54.2143 76.0572 53.7116 76.388 53.5112 76.944C53.3108 77.5 53.4901 78.0737 53.9084 78.225C54.3268 78.3763 54.8295 78.0455 55.0298 77.4895Z" fill="#F25136"/>
<path d="M53.0929 81.927C53.2967 81.3639 53.1139 80.7798 52.6921 80.6284C52.2667 80.4771 51.7605 80.8079 51.5566 81.3745C51.3563 81.9375 51.5355 82.5217 51.9609 82.673C52.3827 82.8243 52.8925 82.49 53.0929 81.927Z" fill="#F25136"/>
<path d="M46.7722 76.9898C46.969 76.4408 46.8706 75.9024 46.5507 75.7863C46.2308 75.6702 45.8125 76.0256 45.6156 76.5745C45.4187 77.1235 45.5172 77.6619 45.8371 77.7781C46.157 77.8907 46.5753 77.5388 46.7722 76.9898Z" fill="#F25136"/>
<path opacity="0.6" d="M51.3984 76.557L49.5107 81.1388L50.0063 81.4836L52.5726 76.015L51.3984 76.557Z" fill="#F4F0FF"/>
<path opacity="0.6" d="M48.4771 75.5997L47.194 78.9147L47.5667 79.2068L49.0572 76.015L48.4771 75.5997Z" fill="#F4F0FF"/>
<path opacity="0.7" d="M66.4443 81.3393L66.6446 80.7656L65.1119 78.3762L56.1336 74.8959L56.1582 77.229L66.4443 81.3393Z" fill="#FCEEB4"/>
<path d="M53.5744 85.4179L53.6201 85.4531L63.9061 87.8531L66.3072 80.8854L56.559 77.4086L53.5744 85.4179Z" fill="url(#paint5_linear_219_15)"/>
<path opacity="0.6" d="M65.4002 81.7721L63.3332 86.8431L64.4018 82.0255L57.0441 78.6261L64.5319 81.4413L65.4002 81.7721Z" fill="#F4F0FF"/>
<path d="M38.3388 60.4397L74.5894 78.1687C75.3206 76.5323 76.5862 73.1189 76.21 71.5247L64.9081 64.7435L64.6585 61.7594L44.3536 48.6157L38.3388 60.4397Z" fill="url(#paint6_linear_219_15)"/>
<path opacity="0.6" d="M33.3364 71.1974C35.2241 71.4508 37.3826 71.0954 39.6148 70.1347C40.7679 70.8877 43.4009 72.4748 44.7051 73.1892C46.2167 74.1077 48.3471 75.3077 49.0677 75.6068C50.8465 76.3493 53.2053 76.11 55.645 74.8678C59.6771 77.1692 65.126 80.2379 65.2525 80.3153C68.5289 82.3422 72.9829 81.086 75.1905 77.5036C75.2714 77.3734 75.3382 77.2396 75.4085 77.1094L46.5542 62.0972L33.3364 71.1974Z" fill="url(#paint7_linear_219_15)"/>
<path opacity="0.6" d="M51.6621 53.8943C51.6621 53.8943 46.614 72.123 47.5245 73.696C48.4349 75.269 48.4349 75.269 48.4349 75.269L36.1873 67.9775L51.6621 53.8943Z" fill="url(#paint8_linear_219_15)"/>
<path d="M52.5163 46.4022C52.0241 45.248 51.3246 44.326 50.4703 43.6327C49.0396 42.482 43.3517 39.4275 42.1178 38.6322C38.4196 36.2498 32.7844 37.1084 27.6766 41.3348C20.8251 47.004 17.5312 56.5934 20.3189 62.7517C20.9868 64.2262 21.9465 65.3734 23.1101 66.1828C24.5092 67.154 30.1057 70.1875 31.5892 70.7575C35.0554 72.0913 39.9488 70.8702 44.5364 67.0696C51.3914 61.4004 54.963 52.1453 52.5163 46.4022Z" fill="#BCA6B6"/>
<path d="M21.3806 64.0819C21.8868 64.6766 22.4633 65.1904 23.1101 65.5986C24.5092 66.4784 30.1057 69.2267 31.5892 69.744C34.5949 70.7927 38.6692 70.0959 42.6943 67.6502L24.9311 59.9435L21.3806 64.0819Z" fill="url(#paint9_linear_219_15)"/>
<path d="M33.8707 54.0702L48.1608 62.2977C49.2646 60.8303 50.1997 59.2784 50.9203 57.7018L41.1476 51.269L42.2163 47.7113L52.1296 54.3165C52.2492 53.8626 52.3511 53.4086 52.432 52.9617C52.6605 51.7019 38.8977 42.218 38.8977 42.218L33.8707 54.0702Z" fill="#DFCDD9"/>
<path d="M41.1476 51.2691L50.9204 57.7019C51.4336 56.5758 51.8344 55.4391 52.1296 54.3166L42.2163 47.7113L41.1476 51.2691Z" fill="#FFFAF8"/>
<path d="M36.7112 62.4666C43.8122 57.0508 47.6686 47.7817 45.3239 41.7746C42.9826 35.7641 35.3261 35.282 28.225 40.7049C21.1239 46.1207 17.2676 55.3898 19.6088 61.3969C21.9571 67.4074 29.6101 67.886 36.7112 62.4666Z" fill="#FFFAF8"/>
<path d="M36.1417 61.8438C43.2005 56.4597 47.1307 47.37 44.9196 41.553C42.7084 35.7325 35.196 35.3806 28.1371 40.7718C21.0782 46.1559 17.148 55.2456 19.3592 61.0591C21.5669 66.8831 29.0792 67.235 36.1417 61.8438Z" fill="#DFCDD9"/>
<path d="M29.596 60.5276C30.1515 61.9881 31.0549 63.0825 32.2009 63.825C33.4629 63.2373 34.7461 62.4631 36.0116 61.4989C42.8385 56.2907 46.6386 47.5037 44.5013 41.8767C43.9493 40.4198 43.0424 39.3219 41.8999 38.5793C40.6378 39.167 39.3582 39.9412 38.0892 40.909C31.2588 46.1136 27.4552 54.9007 29.596 60.5276Z" fill="#FFFAF8"/>
<path d="M35.6776 59.574C41.2214 54.4327 44.0196 46.6415 41.935 42.1723C39.8469 37.7031 33.6633 38.2486 28.1231 43.3934C22.5793 48.5348 19.781 56.3259 21.8657 60.7916C23.9538 65.2608 30.1374 64.7189 35.6776 59.574Z" fill="#A597A2"/>
<path d="M21.8657 60.7951C21.9149 60.9007 21.9782 60.9886 22.0309 61.0872L27.427 63.7898C28.8613 63.6737 30.4397 63.1458 32.0462 62.2449L21.3876 55.1329C21.0185 57.2549 21.138 59.2291 21.8657 60.7951Z" fill="#BFACBB"/>
<path d="M29.7753 44.2661C24.2315 49.4074 21.4333 57.1986 23.5214 61.6643C23.9081 62.4912 24.4319 63.1423 25.0717 63.6279C27.9227 64.3387 31.8353 62.9593 35.4772 59.5775C41.0175 54.4361 43.8192 46.645 41.7346 42.1793C41.3479 41.3523 40.8206 40.7013 40.1843 40.2157C37.3298 39.5048 33.4172 40.8843 29.7753 44.2661Z" fill="#684622"/>
<path opacity="0.7" d="M35.0308 56.9031C36.212 53.4439 34.9042 50.2802 32.1025 49.8368C29.3042 49.3934 26.0771 51.8392 24.8924 55.2949C23.7113 58.7541 25.0225 61.9177 27.8207 62.3611C30.6225 62.8045 33.8496 60.3588 35.0308 56.9031Z" fill="#FCEEB4"/>
<path opacity="0.7" d="M28.7383 51.825C30.2815 48.401 35.4069 43.3617 34.0887 43.1541C32.7739 42.9464 26.9735 48.1828 25.6482 51.7159C24.3792 55.0977 23.771 60.3868 25.9224 61.5516C27.0931 62.1851 27.2513 55.1188 28.7383 51.825Z" fill="#FCEEB4"/>
<path opacity="0.7" d="M36.8025 54.2919C36.3983 55.14 35.8428 55.9775 35.1327 56.7411C32.4153 59.669 28.5308 60.4784 26.4532 58.5464C25.5463 57.7018 25.135 56.4772 25.1842 55.1153C24.0452 57.5153 24.1612 60.035 25.6939 61.4637C27.7715 63.3956 31.656 62.5863 34.3734 59.6584C35.9061 58.0115 36.7393 56.0408 36.8025 54.2919Z" fill="#FCEEB4"/>
<path opacity="0.6" d="M29.6663 46.2544C33.3082 42.8726 37.2209 41.4931 40.0718 42.2039C40.7081 42.6896 41.2354 43.3441 41.6221 44.1676C42.051 45.0896 42.2654 46.1558 42.2971 47.3066C42.5607 45.3887 42.4025 43.6116 41.7311 42.1793C41.3444 41.3523 40.8171 40.7013 40.1808 40.2157C37.3298 39.5048 33.4172 40.8843 29.7753 44.2661C25.3775 48.3447 22.7164 54.0913 22.8429 58.5253C23.4089 54.4608 25.9013 49.7453 29.6663 46.2544Z" fill="url(#paint10_linear_219_15)"/>
<path d="M77.6548 130.75C77.4826 129.445 75.1062 128.663 72.3431 129.008C69.5835 129.353 67.4813 130.694 67.6571 132.003C67.8293 133.312 70.2057 134.09 72.9688 133.745C75.7284 133.4 77.8271 132.059 77.6548 130.75Z" fill="#684622"/>
<path opacity="0.8" d="M71.7947 131.088C71.7068 130.384 72.3291 129.67 73.3626 129.135C72.9653 129.131 72.554 129.156 72.1322 129.209C69.6363 129.533 67.738 130.761 67.8926 131.957C68.0473 133.154 70.1917 133.861 72.6876 133.541C73.7141 133.407 74.6387 133.119 75.3593 132.746C73.4223 132.735 71.9213 132.08 71.7947 131.088Z" fill="#F4F0FF"/>
<path d="M53.7327 131.69C53.7327 131.69 54.1721 127.826 54.506 125.725C57.0442 126.943 58.257 125.063 58.257 125.063L60.4646 132.242C60.4611 132.242 55.4974 135.997 53.7327 131.69Z" fill="#684622"/>
<path opacity="0.6" d="M58.2288 125.549L58.1761 125.373C58.1761 125.373 57.0477 127.119 54.6889 125.989C54.3795 127.939 53.9717 131.532 53.9717 131.532C54.6221 133.119 55.7399 133.527 56.8543 133.442C56.6821 130.434 57.6734 127.129 58.2288 125.549Z" fill="url(#paint11_linear_219_15)"/>
<path d="M30.2253 110.481L33.8672 112.691L32.3204 117.11C32.3204 117.11 26.9138 117.994 27.3532 115.566C28.3516 113.465 30.2253 110.481 30.2253 110.481Z" fill="#684622"/>
<path d="M60.0217 104.072L63.0027 103.52L63.9976 106.504C63.9976 106.504 62.2328 108.383 60.3556 107.057C60.1306 105.512 60.0217 104.072 60.0217 104.072Z" fill="#684622"/>
<path d="M75.5808 115.784L76.2417 119.539C76.2417 119.539 80.2141 120.753 81.3179 119.539C80.8363 116.942 79.4301 114.499 78.6708 113.796C77.5248 115.038 75.5808 115.784 75.5808 115.784Z" fill="#684622"/>
<path d="M78.1927 119.732C79.2789 119.898 80.5585 119.936 81.0999 119.338C80.6535 116.942 79.3563 114.686 78.6532 114.035C78.6321 114.059 78.6075 114.081 78.5864 114.102C78.2138 115.098 77.9923 116.312 77.9923 117.628C77.9923 118.37 78.0661 119.078 78.1927 119.732Z" fill="url(#paint12_linear_219_15)"/>
<path d="M127.521 99.2195L127.408 98.3046L106.129 103.133C105.943 103.175 105.75 103.14 105.592 103.031C105.433 102.925 105.328 102.76 105.296 102.57L104.892 100.134L103.191 99.8494L104.27 104.234C104.323 104.442 104.453 104.621 104.635 104.73C104.818 104.839 105.04 104.875 105.244 104.822L127.521 99.2195Z" fill="url(#paint13_linear_219_15)"/>
<path opacity="0.8" d="M106.129 103.133C105.943 103.175 105.75 103.14 105.592 103.031C105.433 102.925 105.328 102.76 105.296 102.57L104.892 100.134L103.191 99.8494L104.27 104.234C104.319 104.442 104.453 104.621 104.635 104.73C104.804 104.832 105.008 104.86 105.201 104.822L106.47 103.048L106.129 103.133Z" fill="#F4F0FF"/>
<path opacity="0.6" d="M127.521 99.2195L127.408 98.3046L125.461 98.7444L125.215 99.8002L127.521 99.2195Z" fill="#F4F0FF"/>
<path d="M136.91 87.7123L136.857 89.1199C136.843 89.4612 136.58 89.7428 136.239 89.7744L129.429 90.4325L129.141 91.0694L136.608 90.6999C137.093 90.6753 137.501 90.3375 137.613 89.8659L138.186 87.5046L136.91 87.7123Z" fill="url(#paint14_linear_219_15)"/>
<path opacity="0.6" d="M138.186 87.5258L138.179 87.5082L136.91 87.7123L136.861 89.1199C136.847 89.4613 136.583 89.7428 136.246 89.7744L134.759 89.9187L135.16 90.7739L135.634 90.7492L137.856 88.9017L138.186 87.5258Z" fill="#F4F0FF"/>
<path d="M158.659 89.4366L158.897 92.2519L128.331 94.1592L128.22 94.958L158.803 93.7686C159.223 93.751 159.602 93.4941 159.786 93.1L161.5 89.4366H158.659Z" fill="url(#paint15_linear_219_15)"/>
<path d="M147.625 102.988L148.04 100.222L146.743 100.388L146.732 101.493C146.732 101.669 146.651 101.838 146.518 101.954C146.384 102.07 146.208 102.119 146.033 102.095L128.631 99.5996L128.551 100.261L146.855 103.682C147.034 103.717 147.221 103.671 147.365 103.559C147.509 103.446 147.6 103.281 147.615 103.098L147.625 102.988Z" fill="url(#paint16_linear_219_15)"/>
<path d="M140.383 109.21L140.317 110.305C140.306 110.456 140.222 110.593 140.088 110.671C139.955 110.744 139.793 110.748 139.656 110.678L128.276 104.73L128.213 105.234L139.923 112.296C140.151 112.434 140.426 112.462 140.675 112.374C140.925 112.286 141.125 112.092 141.22 111.846L142.159 109.375L140.383 109.21Z" fill="url(#paint17_linear_219_15)"/>
<path opacity="0.6" d="M139.93 112.296C140.158 112.434 140.433 112.462 140.682 112.377C140.932 112.289 141.132 112.096 141.227 111.849L142.124 109.625L141.318 109.298L140.383 109.21L140.317 110.305C140.306 110.456 140.222 110.597 140.088 110.67C139.955 110.748 139.793 110.748 139.659 110.678L138.555 110.1L138.84 111.638L139.93 112.296Z" fill="#F4F0FF"/>
<path d="M119.839 110.741C119.716 110.804 119.569 110.801 119.453 110.727C119.337 110.653 119.266 110.526 119.266 110.385L119.298 108.506L117.519 108.341L118.12 111.73C118.163 111.969 118.317 112.17 118.539 112.272C118.757 112.374 119.013 112.363 119.224 112.24L127.893 107.218V106.557L119.839 110.741Z" fill="url(#paint18_linear_219_15)"/>
<path opacity="0.6" d="M127.89 107.222V106.56L125.415 107.845L125.517 108.598L127.89 107.222Z" fill="#F4F0FF"/>
<path opacity="0.6" d="M119.266 110.389L119.298 108.51L117.519 108.344L118.12 111.733C118.124 111.761 118.135 111.783 118.145 111.811L119.386 110.66C119.312 110.583 119.263 110.491 119.266 110.389Z" fill="#F4F0FF"/>
<path d="M127.391 96.6155C127.391 96.6155 120.862 96.9709 119.224 97.0589C119.017 97.0695 118.834 96.9252 118.799 96.7211C118.711 96.2143 118.581 95.514 118.581 95.514L117.414 95.5809L118.542 97.731C118.651 97.9387 118.876 98.0583 119.108 98.0302L127.746 97.0448L127.391 96.6155Z" fill="url(#paint19_linear_219_15)"/>
<path opacity="0.6" d="M119.228 97.0589C119.02 97.0695 118.841 96.9252 118.802 96.7211C118.715 96.2143 118.584 95.514 118.584 95.514L117.417 95.5809L118.546 97.731C118.655 97.9387 118.88 98.0548 119.112 98.0302L119.295 98.009L120.546 96.9885C119.991 97.0167 119.527 97.0448 119.228 97.0589Z" fill="#F4F0FF"/>
<path opacity="0.6" d="M127.749 97.0448L127.391 96.6155C127.391 96.6155 126.695 96.6542 125.7 96.707L125.953 97.2489L127.749 97.0448Z" fill="#F4F0FF"/>
<path d="M127.858 90.2283L108.168 84.4606C107.817 84.3586 107.571 84.0454 107.546 83.6829L107.42 81.7298L105.556 81.4413L106.393 85.08C106.46 85.365 106.678 85.5867 106.959 85.6536L128.027 90.8442L127.858 90.2283Z" fill="url(#paint20_linear_219_15)"/>
<path opacity="0.6" d="M128.027 90.8442L127.858 90.2284L117.08 87.0718L116.584 88.0254L128.027 90.8442Z" fill="#F4F0FF"/>
<path opacity="0.6" d="M107.543 83.6865L107.416 81.7334L105.553 81.4448L106.39 85.0835C106.407 85.1609 106.439 85.2313 106.477 85.2947L107.595 83.9293C107.567 83.8483 107.55 83.7674 107.543 83.6865Z" fill="#F4F0FF"/>
<path d="M138.942 87.3287C138.942 86.5087 138.225 85.8436 137.343 85.8436C136.457 85.8436 135.743 86.5087 135.743 87.3287C135.743 88.1486 136.46 88.8137 137.343 88.8137C138.225 88.8137 138.942 88.1486 138.942 87.3287Z" fill="url(#paint21_linear_219_15)"/>
<path d="M143.681 108.281C143.681 107.141 142.682 106.212 141.452 106.212C140.222 106.212 139.223 107.137 139.223 108.281C139.223 109.421 140.222 110.35 141.452 110.35C142.682 110.35 143.681 109.421 143.681 108.281Z" fill="url(#paint22_linear_219_15)"/>
<path opacity="0.6" d="M140.531 107.62C140.531 107.236 140.647 106.881 140.83 106.564C140.053 106.807 139.49 107.479 139.49 108.281C139.49 109.284 140.369 110.1 141.452 110.1C141.842 110.1 142.201 109.991 142.507 109.812C141.385 109.622 140.531 108.714 140.531 107.62Z" fill="url(#paint23_linear_219_15)"/>
<path d="M121.798 106.564C121.798 104.759 120.219 103.295 118.275 103.295C116.331 103.295 114.753 104.759 114.753 106.564C114.753 108.369 116.331 109.833 118.275 109.833C120.219 109.833 121.798 108.369 121.798 106.564Z" fill="url(#paint24_linear_219_15)"/>
<path d="M120.233 94.775C120.233 93.758 119.344 92.9346 118.251 92.9346C117.154 92.9346 116.264 93.758 116.264 94.775C116.264 95.792 117.154 96.6155 118.251 96.6155C119.344 96.6155 120.233 95.792 120.233 94.775Z" fill="url(#paint25_linear_219_15)"/>
<path opacity="0.6" d="M119.463 95.9117C118.49 95.9117 117.699 95.1797 117.699 94.2753C117.699 93.8355 117.888 93.4343 118.194 93.1422C117.245 93.1704 116.482 93.8847 116.482 94.7715C116.482 95.6759 117.273 96.4079 118.247 96.4079C118.746 96.4079 119.193 96.2143 119.516 95.9047C119.498 95.9082 119.481 95.9117 119.463 95.9117Z" fill="url(#paint26_linear_219_15)"/>
<path d="M112.197 94.1592C112.197 89.8343 108.414 86.3258 103.753 86.3258C99.0952 86.3258 95.3091 89.8343 95.3091 94.1592C95.3091 98.4841 99.0917 101.993 103.753 101.993C108.411 101.993 112.197 98.4841 112.197 94.1592Z" fill="url(#paint27_linear_219_15)"/>
<g opacity="0.6">
<path opacity="0.6" d="M101.697 87.0331C98.3535 87.8812 95.8892 90.714 95.8892 94.0852C95.8892 98.1286 99.4256 101.405 103.778 101.405C104.305 101.405 104.822 101.356 105.321 101.264C103.212 98.016 101.12 93.1421 101.697 87.0331Z" fill="url(#paint28_linear_219_15)"/>
</g>
<path d="M110.777 79.0625C110.84 76.8561 108.959 75.0121 106.583 74.9452C104.207 74.8784 102.227 76.6133 102.164 78.8197C102.101 81.0261 103.982 82.8701 106.358 82.937C108.734 83.0038 110.714 81.269 110.777 79.0625Z" fill="url(#paint29_linear_219_15)"/>
<path opacity="0.3" d="M105.687 78.5522C105.722 77.2748 106.147 76.1241 106.808 75.2619C106.731 75.2548 106.653 75.2478 106.576 75.2443C104.375 75.1845 102.544 76.7892 102.488 78.8267C102.431 80.8677 104.168 82.5745 106.365 82.6343C106.646 82.6413 106.92 82.6237 107.188 82.578C106.235 81.649 105.641 80.185 105.687 78.5522Z" fill="url(#paint30_linear_219_15)"/>
<path d="M111.666 93.8566C111.666 90.151 107.62 86.8959 104.604 86.8959C101.588 86.8959 100.41 90.341 100.41 94.0501C100.41 97.7557 102.027 101.257 105.047 101.257C108.063 101.257 111.666 97.5621 111.666 93.8566Z" fill="url(#paint31_linear_219_15)"/>
<path d="M110.467 78.802C110.467 76.9052 108.474 75.2407 106.987 75.2407C105.5 75.2407 104.92 77.0038 104.92 78.9005C104.92 80.7973 105.718 82.5885 107.202 82.5885C108.692 82.5885 110.467 80.6988 110.467 78.802Z" fill="url(#paint32_linear_219_15)"/>
<path d="M138.731 86.7657C138.626 86.171 137.768 85.8613 137.29 85.9739C136.812 86.0865 136.808 86.8009 136.949 87.3886C137.086 87.9762 137.452 88.6026 137.93 88.49C138.408 88.3809 138.872 87.5645 138.731 86.7657Z" fill="url(#paint33_linear_219_15)"/>
<path d="M143.312 107.595C143.175 106.814 142.043 106.405 141.413 106.553C140.784 106.701 140.781 107.644 140.963 108.418C141.143 109.193 141.624 110.019 142.254 109.872C142.886 109.724 143.495 108.651 143.312 107.595Z" fill="url(#paint34_linear_219_15)"/>
<path d="M119.948 94.1205C119.822 93.4061 118.792 93.0366 118.219 93.1703C117.646 93.3041 117.642 94.1662 117.808 94.87C117.973 95.5739 118.409 96.3304 118.985 96.1967C119.558 96.0595 120.117 95.0812 119.948 94.1205Z" fill="url(#paint35_linear_219_15)"/>
<path d="M118.641 108.988L118.894 106.356L116.57 106.965L118.641 108.988Z" fill="#B7CE55"/>
<path d="M116.974 104.283L116.215 105.346L117.379 106.409L118.539 106.054C118.539 106.054 119.446 104.737 118.743 104.079L116.974 104.283Z" fill="#B7CE55"/>
<path d="M120.409 106.307L120.054 108.38L121.295 107.574C121.418 107.257 121.495 106.919 121.495 106.564C121.495 105.73 121.126 104.977 120.536 104.435L119.548 104.385L120.409 106.307Z" fill="#B7CE55"/>
<path opacity="0.6" d="M117.428 105.642C117.428 104.825 117.779 104.086 118.345 103.544C118.31 103.544 118.275 103.534 118.24 103.534C116.437 103.534 114.974 104.889 114.974 106.564C114.974 108.239 116.437 109.594 118.24 109.594C119.165 109.594 119.994 109.235 120.588 108.661C118.834 108.608 117.428 107.282 117.428 105.642Z" fill="url(#paint36_linear_219_15)"/>
<path d="M121.488 105.842C121.256 104.519 119.252 103.446 118.187 103.696C117.122 103.946 117.119 105.543 117.424 106.849C117.73 108.154 118.542 109.555 119.607 109.305C120.673 109.052 121.801 107.619 121.488 105.842Z" fill="url(#paint37_linear_219_15)"/>
<path opacity="0.6" d="M146.068 103.52C146.156 103.537 147.365 102.689 147.832 101.862C147.941 100.673 148.04 100.219 148.04 100.219L146.743 100.384L146.732 101.489C146.729 101.665 146.651 101.834 146.518 101.95C146.384 102.066 146.208 102.116 146.033 102.091L138.506 101.014C138.545 101.415 138.636 101.806 138.784 102.176L146.068 103.52Z" fill="#F4F0FF"/>
<path d="M153.981 94.7468C153.981 91.3791 151.031 88.6483 147.407 88.6483C143.779 88.6483 140.833 91.3791 140.833 94.7468C140.833 98.1181 143.779 100.849 147.407 100.849C151.031 100.845 153.981 98.1181 153.981 94.7468Z" fill="url(#paint38_linear_219_15)"/>
<path opacity="0.6" d="M145.164 93.2513C145.164 91.7803 145.583 90.4184 146.282 89.3099C143.445 89.7287 141.273 92.002 141.273 94.7504C141.273 97.7979 143.937 100.265 147.217 100.265C148.068 100.265 148.873 100.096 149.608 99.7967C147.052 99.0401 145.164 96.4008 145.164 93.2513Z" fill="url(#paint39_linear_219_15)"/>
<path d="M153.71 94.3175C153.71 91.4284 150.557 88.8947 148.205 88.8947C145.853 88.8947 144.936 91.5797 144.936 94.4688C144.936 97.358 146.198 100.085 148.55 100.085C150.901 100.085 153.71 97.2066 153.71 94.3175Z" fill="url(#paint40_linear_219_15)"/>
<path d="M139.779 117.051C139.779 114.003 134.358 111.529 127.672 111.529C120.985 111.529 115.565 114.003 115.565 117.051C115.565 120.102 120.985 122.572 127.672 122.572C134.358 122.572 139.779 120.102 139.779 117.051Z" fill="#7F5475"/>
<path opacity="0.6" d="M115.565 117.051C115.565 119.619 119.414 121.77 124.62 122.389V111.716C119.414 112.332 115.565 114.485 115.565 117.051Z" fill="#F4F0FF"/>
<path d="M124.177 118.873V122.336C125.285 122.487 126.455 122.572 127.672 122.572C129.029 122.572 130.326 122.466 131.546 122.276V118.873H124.177Z" fill="url(#paint41_linear_219_15)"/>
<path d="M134.608 121.573C136.523 120.96 138.032 120.102 138.91 119.095V115.009C138.805 114.89 138.685 114.77 138.562 114.654H134.608V121.573Z" fill="url(#paint42_linear_219_15)"/>
<path d="M139.779 116.438C139.779 113.729 134.358 111.529 127.672 111.529C120.985 111.529 115.565 113.729 115.565 116.438C115.565 119.151 120.985 121.351 127.672 121.351C134.358 121.351 139.779 119.151 139.779 116.438Z" fill="url(#paint43_linear_219_15)"/>
<path d="M139.005 116.561C138.893 118.49 135.747 119.82 131.978 119.532C128.206 119.243 125.239 117.445 125.352 115.52C125.464 113.591 128.61 112.261 132.379 112.55C136.151 112.838 139.114 114.637 139.005 116.561Z" fill="url(#paint44_linear_219_15)"/>
<path opacity="0.6" d="M134.836 119.771C128.494 119.771 123.358 117.687 123.358 115.115C123.358 115.01 128.276 114.566 128.276 114.566L127.401 113.88L124.525 113.739C124.8 113.602 126.487 111.92 126.8 111.793C120.697 111.902 115.828 113.936 115.828 116.438C115.828 119.011 120.968 121.094 127.306 121.094C130.438 121.094 133.272 120.584 135.346 119.76C135.17 119.764 135.005 119.771 134.836 119.771Z" fill="url(#paint45_linear_219_15)"/>
<path d="M127.408 86.9838L126.951 114.425L128.322 114.654L129.693 85.8401L127.408 86.9838Z" fill="url(#paint46_linear_219_15)"/>
<path opacity="0.6" d="M129.521 89.4542L129.693 85.8401L127.408 86.9838L126.951 114.425L127.57 114.527L128.551 91.5374L129.521 89.4542Z" fill="#F4F0FF"/>
<path d="M135.033 76.1135C132.709 72.6859 127.784 71.9786 124.03 74.5299C120.275 77.0812 119.115 81.927 121.435 85.351C123.759 88.775 128.684 89.4859 132.439 86.9346C136.197 84.3868 137.357 79.541 135.033 76.1135Z" fill="url(#paint47_linear_219_15)"/>
<path opacity="0.6" d="M126.839 82.9545C124.933 80.1428 124.627 76.7892 125.766 74.2097C125.225 74.4279 124.698 74.6989 124.195 75.0402C120.736 77.3909 119.664 81.8566 121.805 85.0167C123.872 88.0642 128.174 88.7715 131.584 86.7023C129.774 86.0548 128.076 84.7774 126.839 82.9545Z" fill="url(#paint48_linear_219_15)"/>
<path d="M135.202 77.7499C134.636 74.5299 129.985 72.8513 127.394 73.4601C124.803 74.0689 124.793 77.9504 125.541 81.1352C126.29 84.3199 128.266 87.7264 130.857 87.114C133.448 86.5052 135.965 82.0818 135.202 77.7499Z" fill="url(#paint49_linear_219_15)"/>
<path d="M121.017 129.026C121.017 129.026 120.753 128.846 120.666 128.213C120.606 127.766 120.634 127.618 120.405 127.361C120.177 127.105 120.054 126.524 119.941 126.225C119.818 125.898 121.97 127.963 122.082 128.065C122.191 128.174 120.996 128.695 121.017 129.026Z" fill="#555F70"/>
<path d="M119.713 125.947C119.917 126.232 120.261 126.805 120.486 127.062C120.711 127.319 120.746 127.58 120.666 128.213C120.585 128.847 121.017 129.026 121.017 129.026C121.003 128.787 121.611 128.452 121.917 128.241L120.026 126.179C119.794 125.982 119.657 125.873 119.713 125.947Z" fill="url(#paint50_linear_219_15)"/>
<path opacity="0.8" d="M134.133 144.714C134.161 144.668 134.186 144.619 134.21 144.57C134.277 144.436 134.33 144.295 134.372 144.137C134.379 144.109 134.383 144.073 134.39 144.042C134.428 143.855 134.453 143.655 134.453 143.429C134.453 141.441 122.487 129.526 121.21 128.959C121.126 128.92 121.042 128.903 120.954 128.889C120.929 128.885 120.905 128.885 120.877 128.882C120.81 128.878 120.743 128.878 120.676 128.889C120.652 128.892 120.627 128.892 120.606 128.896C120.567 128.903 120.528 128.917 120.49 128.928C120.149 128.604 119.607 128.097 119.2 127.745C119.034 127.594 118.876 127.453 118.75 127.344C118.521 127.143 118.384 127.034 118.437 127.108C118.511 127.214 118.609 127.358 118.708 127.509C118.809 127.823 118.933 128.294 119.133 128.523C119.358 128.78 119.33 128.928 119.393 129.374C119.368 129.571 119.397 129.723 119.442 129.839C119.382 129.955 119.337 130.075 119.305 130.201C119.168 130.793 121.471 134.801 124.104 138.644C124.107 138.647 124.107 138.647 124.107 138.651C126.761 142.518 129.746 146.213 130.916 146.083C131.138 146.058 131.356 146.03 131.567 145.995C132.193 145.9 132.748 145.752 133.205 145.527C133.363 145.449 133.504 145.358 133.634 145.256C133.669 145.228 133.704 145.203 133.736 145.175C133.796 145.122 133.855 145.066 133.908 145.006C133.996 144.918 134.07 144.82 134.133 144.714Z" fill="#F4F0FF"/>
<path d="M120.578 129.04C120.3 130.23 129.858 145.178 132.193 144.922C134.179 144.7 135.722 144.26 135.722 142.272C135.722 140.283 123.756 128.368 122.48 127.801C121.738 127.464 120.778 128.174 120.578 129.04Z" fill="url(#paint51_linear_219_15)"/>
<path d="M128.656 134.055C125.636 130.508 122.56 128.167 121.783 128.825C121.01 129.487 122.831 132.897 125.851 136.448C128.87 139.995 131.95 142.339 132.723 141.677C133.5 141.015 131.679 137.605 128.656 134.055Z" fill="url(#paint52_linear_219_15)"/>
<path d="M135.722 142.268C135.722 140.28 123.756 128.364 122.48 127.798C121.963 127.569 121.351 127.844 120.954 128.315L134.481 144.362C135.24 143.985 135.722 143.366 135.722 142.268Z" fill="url(#paint53_linear_219_15)"/>
<path opacity="0.6" d="M135.694 142.564C135.704 142.465 135.725 142.377 135.725 142.268C135.725 142.205 135.711 142.131 135.687 142.047L130.565 143.971C130.73 144.123 130.885 144.256 131.036 144.376L135.694 142.564Z" fill="url(#paint54_linear_219_15)"/>
<path opacity="0.6" d="M128.6 135.976C129.194 135.677 129.799 135.473 130.379 135.346C130.157 135.11 129.932 134.871 129.707 134.635C129.148 134.766 128.568 134.97 127.995 135.258C126.839 135.842 125.928 136.645 125.376 137.479C125.559 137.746 125.745 138.014 125.932 138.278C126.473 137.412 127.405 136.578 128.6 135.976Z" fill="#F4F0FF"/>
<path opacity="0.6" d="M125.935 138.204C126.487 137.366 127.398 136.564 128.554 135.983C129.127 135.695 129.707 135.491 130.266 135.36C130.357 135.455 130.14 135.163 129.915 134.924C129.356 135.054 128.776 135.258 128.203 135.547C127.046 136.127 126.136 136.933 125.584 137.767C125.766 138.038 126.012 138.316 125.935 138.204Z" fill="#F4F0FF"/>
<path d="M70.1812 130.831C70.1812 131.788 72.2658 132.563 74.8355 132.563C74.9797 132.563 75.1203 132.559 75.2609 132.556C76.6459 132.063 77.5213 131.313 77.4123 130.578C77.2963 129.807 76.1362 129.262 74.5402 129.114C72.1076 129.167 70.1812 129.916 70.1812 130.831Z" fill="url(#paint55_linear_219_15)"/>
<path d="M71.0846 125.609L71.6998 131.387L72.9724 131.222L72.656 124.483L71.0846 125.609Z" fill="#684622"/>
<path opacity="0.8" d="M72.7122 125.672L71.1233 125.957L71.4537 129.086L72.8282 128.111L72.7122 125.672Z" fill="#F4F0FF"/>
<path d="M78.72 114.594C76.8147 110.913 71.4748 109.896 66.7993 112.325C62.1239 114.753 59.874 119.704 61.7829 123.385C63.6882 127.066 69.0281 128.083 73.7036 125.658C78.379 123.227 80.6254 118.275 78.72 114.594Z" fill="url(#paint56_linear_219_15)"/>
<path d="M67.4075 120.915L68.1387 117.564L70.2304 114.946L64.3702 115.889L63.639 119.556C65.9416 122.276 67.4075 120.915 67.4075 120.915Z" fill="#B7CE55"/>
<path d="M68.6344 121.752L67.0665 121.675L65.6533 122.382C66.1244 124.11 69.1828 125.447 69.1828 125.447L70.5151 125.211L70.2796 122.934L68.6344 121.752Z" fill="#B7CE55"/>
<path d="M69.7347 119.317L68.6344 120.496L69.341 121.045L69.7347 119.317Z" fill="#B7CE55"/>
<path d="M70.5186 112.406L66.9892 113.979L71.1479 114.369C72.0865 113.507 70.5186 112.406 70.5186 112.406Z" fill="#B7CE55"/>
<path d="M73.9707 114.605L74.1289 117.747C75.1484 118.532 75.855 117.512 75.855 117.512L76.7971 116.569L77.8166 117.04C77.0326 118.219 76.4034 119.317 76.4034 119.317L76.2452 121.91L77.6056 121.267C78.8149 119.169 79.0575 116.804 78.0345 114.823C77.69 114.158 77.2225 113.584 76.667 113.106C76.4948 114.489 76.0132 115.157 76.0132 115.157C74.9902 115.548 73.9707 114.605 73.9707 114.605Z" fill="#B7CE55"/>
<path d="M75.5386 114.292L76.1257 112.691C75.5034 112.265 74.7933 111.945 74.0235 111.733L73.9707 112.645L75.5386 114.292Z" fill="#B7CE55"/>
<path opacity="0.6" d="M67.5341 120.327C66.2615 117.867 66.1666 115.126 67.0384 112.764C67.0349 112.764 67.0314 112.768 67.0279 112.768C62.6653 115.031 60.5666 119.655 62.3454 123.086C64.1242 126.52 69.1055 127.471 73.468 125.204C73.5102 125.183 73.5454 125.158 73.5876 125.137C71.0952 124.525 68.8383 122.843 67.5341 120.327Z" fill="url(#paint57_linear_219_15)"/>
<path d="M68.434 118.194C68.7012 121.847 70.5256 125.183 73.4575 124.968C74.3363 124.905 75.2433 124.504 76.0729 123.881C78.5267 121.706 79.7254 118.719 79.1383 116.09C79.1278 116.051 79.1172 116.013 79.1067 115.974C79.0962 115.932 79.0821 115.893 79.0715 115.851C78.5267 114.264 77.2822 112.902 75.855 112.001C74.3644 111.255 72.5329 110.987 70.6276 111.255C68.782 112.3 68.2125 115.186 68.434 118.194Z" fill="url(#paint58_linear_219_15)"/>
<path d="M72.2025 128.554L72.3677 131.222H72.9724L72.8282 128.111L72.2025 128.554Z" fill="url(#paint59_linear_219_15)"/>
<path opacity="0.6" d="M105.247 104.825L116.18 102.073L105.954 103.773C105.957 103.77 105.184 104.843 105.247 104.825Z" fill="#F4F0FF"/>
<path d="M74.368 139.259L72.7122 141.744L76.7936 143.732L71.06 142.448L74.368 139.259Z" fill="white"/>
<path d="M70.7331 74.2554C71.0846 73.2454 70.7085 72.1932 69.8859 71.9047C69.0668 71.6196 68.1141 72.2073 67.7626 73.2173C67.411 74.2273 67.7872 75.2795 68.6063 75.568C69.4324 75.8566 70.3815 75.2689 70.7331 74.2554Z" fill="#684622"/>
<path opacity="0.6" d="M69.8788 75.0155C69.0597 74.7305 68.6801 73.6783 69.0351 72.6648C69.1476 72.3376 69.3304 72.0631 69.5448 71.8378C68.8207 71.7921 68.0719 72.3446 67.7661 73.2173C67.4145 74.2273 67.7907 75.2795 68.6098 75.568C69.1652 75.7616 69.7733 75.5504 70.2233 75.0824C70.1108 75.0754 69.9948 75.0543 69.8788 75.0155Z" fill="#F4F0FF"/>
<path d="M70.828 74.1992C71.0846 73.4637 70.8104 72.6966 70.2128 72.4889C69.6152 72.2813 68.9227 72.7071 68.666 73.4461C68.4094 74.1816 68.6836 74.9488 69.2812 75.1564C69.8788 75.3605 70.5714 74.9347 70.828 74.1992Z" fill="url(#paint60_linear_219_15)"/>
<path d="M68.6098 75.5681L72.0513 89.3839L73.1552 89.5493L69.2918 75.5751L68.6098 75.5681Z" fill="#684622"/>
<path opacity="0.6" d="M68.6098 75.5681L72.0513 89.3839L72.8458 89.5L69.0457 75.5716L68.6098 75.5681Z" fill="#F4F0FF"/>
<path d="M76.1608 86.2906L73.0989 86.734C72.3994 86.734 71.8299 87.561 71.8299 88.5815C71.8299 89.6056 72.3994 90.4326 73.0989 90.4326C73.1727 90.4326 73.243 90.4185 73.3134 90.4009L75.9112 90.9815C75.9921 91.0167 76.0765 91.0378 76.1643 91.0378C76.8182 91.0378 77.349 89.9751 77.349 88.6625C77.349 87.3534 76.8147 86.2906 76.1608 86.2906Z" fill="#684622"/>
<path d="M75.4894 90.89L75.9077 90.9851C75.9885 91.0202 76.0729 91.0414 76.1608 91.0414C76.8147 91.0414 77.3455 89.9786 77.3455 88.666C77.3455 87.3534 76.8147 86.2906 76.1608 86.2906L75.173 86.4314C75.1519 86.7868 75.1378 87.1528 75.1378 87.5329C75.1413 88.8384 75.2749 90.0208 75.4894 90.89Z" fill="url(#paint61_linear_219_15)"/>
<path opacity="0.6" d="M76.0237 86.6213L71.8439 88.3773C71.8369 88.4442 71.8299 88.5111 71.8299 88.5815C71.8299 89.6055 72.3994 90.4325 73.0989 90.4325C73.1727 90.4325 73.243 90.4184 73.3134 90.4008L75.9112 90.9814C75.9921 91.0166 76.0765 91.0377 76.1643 91.0377C76.2065 91.0377 76.2452 91.0237 76.2874 91.0131C75.7038 89.6161 76.0237 86.6213 76.0237 86.6213Z" fill="#F4F0FF"/>
<path opacity="0.8" d="M68.666 148.726C67.8047 148.539 67.1228 147.888 66.8872 147.04C66.6517 146.192 66.9048 145.28 67.5446 144.679L86.1972 127.08C86.9038 126.411 87.8706 126.091 88.8338 126.2L106.035 128.146C106.773 128.231 107.437 128.639 107.848 129.262C108.256 129.885 108.369 130.659 108.151 131.37L101.827 152.093C101.204 154.134 99.1198 155.359 97.0352 154.905L68.666 148.726Z" fill="#F4F0FF"/>
<path d="M71.4256 147.621C70.5643 147.434 69.8823 146.783 69.6468 145.935C69.4113 145.087 69.6644 144.175 70.3042 143.574L88.9568 125.975C89.6634 125.306 90.6301 124.986 91.5934 125.095L108.794 127.041C109.532 127.126 110.197 127.534 110.608 128.157C111.016 128.78 111.128 129.554 110.91 130.265L104.586 150.988C103.964 153.029 101.879 154.254 99.7948 153.8L71.4256 147.621Z" fill="#555F70"/>
<path opacity="0.8" d="M70.4764 145.956C70.4764 144.031 71.4678 143.31 71.6928 142.265L70.3042 143.574C69.6644 144.179 69.4113 145.087 69.6468 145.935C69.8823 146.783 70.5678 147.431 71.4256 147.621L99.7912 153.8C101.138 154.092 102.481 153.684 103.433 152.811L102.111 152.336L70.4764 145.956Z" fill="#F4F0FF"/>
<path d="M102.864 148.483L109.94 127.488C109.603 127.252 109.212 127.09 108.794 127.041L91.5933 125.095C90.6266 124.986 89.6634 125.306 88.9533 125.975L70.3007 143.574C70.1671 143.7 70.0546 143.845 69.9526 143.992L99.7877 150.239C101.113 150.52 102.431 149.764 102.864 148.483Z" fill="#BFD8D6"/>
<path opacity="0.4" d="M93.8362 148.55L92.7077 125.764L91.523 125.63C90.5985 125.524 89.674 125.834 88.9955 126.475L83.856 131.327L81.3284 145.931L93.8362 148.55Z" fill="#F2FFC4"/>
<path opacity="0.4" d="M99.3729 149.711C100.638 149.975 101.904 149.253 102.315 148.025L104.228 142.353L98.248 126.394L94.6271 125.985L97.6012 149.341L99.3729 149.711Z" fill="#F2FFC4"/>
<path d="M74.3047 141.631C74.1184 141.811 74.0481 142.082 74.1219 142.331C74.1957 142.581 74.3996 142.768 74.6562 142.817L99.7842 147.835C100.153 147.909 100.522 147.709 100.663 147.36L108.024 129.047C108.105 128.843 108.088 128.614 107.979 128.424C107.866 128.234 107.676 128.107 107.458 128.079L90.8165 125.908C90.5915 125.88 90.363 125.954 90.2013 126.112L74.3047 141.631Z" fill="#394354"/>
<path d="M74.6773 141.698C74.5297 141.842 74.4734 142.057 74.5332 142.254C74.593 142.451 74.7547 142.599 74.9586 142.641L99.517 147.533C99.953 147.621 100.389 147.385 100.554 146.97L107.634 129.35C107.718 129.139 107.701 128.899 107.588 128.706C107.472 128.509 107.275 128.378 107.051 128.347L90.929 126.246C90.704 126.218 90.4755 126.292 90.3102 126.45L74.6773 141.698Z" fill="#515A6D"/>
<path d="M91.5934 125.095C90.6266 124.986 89.6634 125.306 88.9533 125.975L86.0074 128.751L70.3007 143.57C70.2409 143.626 69.8929 144.38 69.5062 145.224C69.8296 145.833 70.4026 146.283 71.0916 146.435L99.4573 152.614C101.542 153.068 103.627 151.847 104.249 149.802L110.573 129.079C110.654 128.815 110.678 128.547 110.668 128.28C110.643 128.238 110.629 128.192 110.601 128.153C110.401 127.847 110.141 127.597 109.842 127.411C109.43 127.245 109.089 127.115 108.903 127.066C108.864 127.059 108.829 127.045 108.791 127.041L91.5934 125.095Z" fill="url(#paint62_linear_219_15)"/>
<path opacity="0.4" d="M90.9325 126.851C90.718 126.823 90.5071 126.893 90.3489 127.045L84.654 132.601L83.0017 143.7L83.5185 143.834L92.4265 145.608L91.9097 126.978L90.9325 126.851Z" fill="#F2FFC4"/>
<path opacity="0.4" d="M95.0033 127.383L97.7066 146.66L99.0354 146.924C99.4467 147.005 99.858 146.783 100.013 146.392L102.414 140.421C101.531 137.992 98.7085 130.244 97.7242 127.738L95.0033 127.383Z" fill="#F2FFC4"/>
<path opacity="0.8" d="M99.5592 151.755C99.5592 151.305 99.3061 150.939 98.9932 150.939C98.6804 150.939 98.4272 151.305 98.4272 151.755C98.4272 152.206 98.6804 152.572 98.9932 152.572C99.3061 152.572 99.5592 152.206 99.5592 151.755Z" fill="#F4F0FF"/>
<path opacity="0.8" d="M97.4359 151.365C97.4359 150.914 97.1828 150.548 96.87 150.548C96.5571 150.548 96.304 150.914 96.304 151.365C96.304 151.815 96.5571 152.181 96.87 152.181C97.1793 152.181 97.4359 151.815 97.4359 151.365Z" fill="#F4F0FF"/>
<path d="M110.105 130.032L110.52 130.448L109.568 133.843L108.949 134.093L110.105 130.032Z" fill="#555F70"/>
<path opacity="0.4" d="M110.105 130.075L110.728 130.655L109.817 133.706L108.949 133.97L110.105 130.075Z" fill="#F2FFC4"/>
<path opacity="0.6" d="M110.105 130.075L110.397 130.254L109.321 133.928L108.949 133.97L110.105 130.075Z" fill="#F4F0FF"/>
<path opacity="0.6" d="M30.2253 110.481L33.8672 112.691L32.3204 117.11C32.3204 117.11 26.9138 117.994 27.3532 115.566C28.3516 113.465 30.2253 110.481 30.2253 110.481Z" fill="url(#paint63_linear_219_15)"/>
<path opacity="0.4" d="M60.0217 104.072L63.0027 103.52L63.9976 106.504C63.9976 106.504 62.2328 108.383 60.3556 107.057C60.1306 105.512 60.0217 104.072 60.0217 104.072Z" fill="#F4F0FF"/>
<path d="M24.0593 124.441C20.5369 124.441 17.6789 127.734 17.6789 131.795C17.6789 135.856 20.5369 139.15 24.0593 139.15C27.5817 139.15 30.4397 135.856 30.4397 131.795C30.4397 127.734 27.5817 124.441 24.0593 124.441ZM24.8995 136.437C22.6743 136.437 20.8709 134.357 20.8709 131.795C20.8709 129.23 22.6743 127.154 24.8995 127.154C27.1247 127.154 28.9281 129.233 28.9281 131.795C28.9281 134.357 27.1247 136.437 24.8995 136.437Z" fill="#BCA6B6"/>
<path opacity="0.6" d="M24.8362 126.056C22.0415 126.056 19.7705 128.667 19.7705 131.89C19.7705 135.114 22.038 137.725 24.8362 137.725C27.6345 137.725 29.9019 135.114 29.9019 131.89C29.8984 128.667 27.6309 126.056 24.8362 126.056ZM24.6464 136.613C22.3825 136.613 20.551 134.498 20.551 131.89C20.551 129.283 22.386 127.171 24.6464 127.171C26.9103 127.171 28.7418 129.286 28.7418 131.89C28.7418 134.498 26.9068 136.613 24.6464 136.613Z" fill="url(#paint64_linear_219_15)"/>
<path opacity="0.6" d="M24.0593 124.441C20.5369 124.441 17.6789 127.734 17.6789 131.795C17.6789 135.856 20.5369 139.15 24.0593 139.15C27.5817 139.15 30.4397 135.856 30.4397 131.795C30.4397 127.734 27.5817 124.441 24.0593 124.441ZM24.8995 136.437C22.6743 136.437 20.8709 134.357 20.8709 131.795C20.8709 129.23 22.6743 127.154 24.8995 127.154C27.1247 127.154 28.9281 129.233 28.9281 131.795C28.9281 134.357 27.1247 136.437 24.8995 136.437Z" fill="url(#paint65_linear_219_15)"/>
<path d="M47.5315 122.368C47.5315 120.116 42.508 118.289 36.3139 118.289C30.1198 118.289 25.0963 120.116 25.0963 122.368C25.0963 123.892 25.0963 138.693 25.0963 140.417C25.0963 142.965 30.1198 145.031 36.3139 145.031C42.508 145.031 47.5315 142.965 47.5315 140.417C47.5315 138.693 47.5315 123.892 47.5315 122.368Z" fill="#BCA6B6"/>
<path d="M47.5315 122.378C47.5315 120.119 42.5678 118.289 36.4475 118.289C30.3272 118.289 25.3635 120.119 25.3635 122.378C25.3635 123.906 25.3635 138.746 25.3635 140.473C25.3635 143.028 30.3272 145.097 36.4475 145.097C42.5678 145.097 47.5315 143.028 47.5315 140.473C47.5315 138.746 47.5315 123.906 47.5315 122.378Z" fill="url(#paint66_linear_219_15)"/>
<path d="M141.03 130.683C140.615 128.924 138.376 127.946 136.028 128.498C133.683 129.054 132.115 130.93 132.53 132.689C132.945 134.449 135.184 135.427 137.532 134.871C139.881 134.322 141.445 132.443 141.03 130.683Z" fill="#BCA6B6"/>
<path d="M138.489 128.815L149.98 124.092L150.469 124.958L140.116 128.952L138.489 128.815Z" fill="#7F5475"/>
<path d="M139.979 133.717L151.306 133.052L150.785 132.225L140.823 133.017L139.979 133.717Z" fill="#7F5475"/>
<path d="M138.879 131.51L153.605 129.424L153.014 128.312L140.039 130.441L138.879 131.51Z" fill="#7F5475"/>
<path d="M138.879 131.51L153.605 129.424L153.014 128.312L140.039 130.441L138.879 131.51Z" fill="url(#paint67_linear_219_15)"/>
<path d="M138.489 128.815L149.98 124.092L150.469 124.958L140.116 128.952L138.489 128.815Z" fill="url(#paint68_linear_219_15)"/>
<path d="M139.979 133.717L151.306 133.052L150.785 132.225L140.823 133.017L139.979 133.717Z" fill="url(#paint69_linear_219_15)"/>
<path opacity="0.8" d="M46.5964 121.967C46.5964 120.601 41.9913 119.493 36.3139 119.493C30.6331 119.493 26.0314 120.601 26.0314 121.967C26.0314 123.332 30.6366 124.441 36.3139 124.441C41.9913 124.441 46.5964 123.336 46.5964 121.967Z" fill="#F4F0FF"/>
<path opacity="0.8" d="M36.3139 121.337C31.6033 121.337 27.7294 122.132 27.2759 123.149C29.0195 123.92 32.4119 124.441 36.3139 124.441C40.216 124.441 43.6084 123.916 45.352 123.149C44.895 122.132 41.0246 121.337 36.3139 121.337Z" fill="#F4F0FF"/>
<path opacity="0.6" d="M36.3139 125.655C31.0479 125.655 26.5904 124.451 25.0963 122.79C25.0963 125.623 25.0963 138.851 25.0963 140.473C25.0963 143.028 30.2323 145.097 36.5635 145.097C38.0821 145.097 39.527 144.978 40.8523 144.763V125.338C39.4567 125.542 37.9204 125.655 36.3139 125.655Z" fill="url(#paint70_linear_219_15)"/>
<path opacity="0.6" d="M35.4457 136.374L34.957 138.246L36.2261 139.71L34.2961 139.826L33.2977 141.483L32.5876 139.682L30.7069 139.245L32.1974 138.014L32.0322 136.085L33.6633 137.127L35.4457 136.374Z" fill="#F4F0FF"/>
<path opacity="0.6" d="M42.958 133.066L41.3796 133.175L40.5746 134.54L39.984 133.073L38.4407 132.728L39.65 131.711L39.4989 130.134L40.8417 130.975L42.2901 130.342L41.9104 131.88L42.958 133.066Z" fill="#F4F0FF"/>
<path opacity="0.6" d="M35.544 129.754L35.182 130.676L35.7339 131.496L34.7496 131.44L34.1414 132.218L33.8918 131.261L32.9637 130.923L33.7969 130.388L33.8285 129.399L34.5949 130.029L35.544 129.754Z" fill="#F4F0FF"/>
<path opacity="0.6" d="M136.478 132.003C136.102 130.402 138.081 128.322 135.95 128.829C133.82 129.332 132.396 131.039 132.773 132.636C133.149 134.234 135.184 135.124 137.314 134.618C139.445 134.114 136.854 133.601 136.478 132.003Z" fill="url(#paint71_linear_219_15)"/>
<path d="M140.475 130.814C140.127 129.343 138.257 128.526 136.299 128.987C134.34 129.452 133.033 131.018 133.381 132.489C133.729 133.96 135.595 134.776 137.557 134.312C139.512 133.854 140.819 132.285 140.475 130.814Z" fill="url(#paint72_linear_219_15)"/>
<path d="M136.386 133.516C137.396 133.516 138.214 132.697 138.214 131.686C138.214 130.676 137.396 129.856 136.386 129.856C135.377 129.856 134.558 130.676 134.558 131.686C134.558 132.697 135.377 133.516 136.386 133.516Z" fill="#421E14"/>
<path d="M136.386 133.016C137.12 133.016 137.715 132.421 137.715 131.686C137.715 130.952 137.12 130.356 136.386 130.356C135.653 130.356 135.058 130.952 135.058 131.686C135.058 132.421 135.653 133.016 136.386 133.016Z" fill="#BCA6B6"/>
<path d="M39.0876 122.896C39.0524 122.034 35.6425 121.9 33.7934 121.9C31.9443 121.9 28.5027 122.192 28.4676 122.977C28.4395 123.617 31.8494 123.973 33.6985 123.973C35.5476 123.973 39.1333 124.025 39.0876 122.896Z" fill="url(#paint73_linear_219_15)"/>
<path opacity="0.8" d="M40.0508 120.932C40.0508 120.932 41.6538 117.825 41.0527 115.516C40.9156 114.995 39.2493 109.9 39.3512 108.798C39.4497 107.697 40.7539 103.083 41.0527 102.883C41.3515 102.682 35.6952 107.398 38.6482 113.31C39.8504 115.717 40.5535 118.627 40.0508 120.932Z" fill="#F2FFC4"/>
<path opacity="0.8" d="M36.4264 120.805C36.4264 120.805 37.249 117.702 37.249 116.421C37.249 115.143 36.0643 113.313 35.8815 111.124C35.6987 108.932 34.7882 114.594 35.4245 116.15C36.0608 117.698 36.4264 120.805 36.4264 120.805Z" fill="#F2FFC4"/>
<path d="M94.6412 9.58589L94.6025 9.57885C93.6464 9.36067 93.33 9.05099 93.3159 9.04044L93.2948 9.01932L93.2878 8.99117C93.2737 8.9419 92.0293 3.8604 95.3689 1.07683C96.2267 0.362462 96.9543 0 97.5414 0C99.046 0 99.0741 2.32609 99.0741 2.34721C99.0776 2.38591 99.3659 7.00291 94.6728 9.56477L94.6412 9.58589ZM93.4811 8.91023C93.5585 8.97357 93.8749 9.19527 94.6131 9.37123C99.1585 6.86566 98.8773 2.40351 98.8737 2.35776C98.8737 2.32961 98.8456 0.204105 97.5449 0.204105C97.0071 0.204105 96.3216 0.548972 95.5025 1.23167C92.3984 3.82169 93.3827 8.48794 93.4811 8.91023Z" fill="#BEA7FF"/>
<path d="M95.8786 5.58826C95.4603 5.58826 95.1228 5.24692 95.1228 4.83167C95.1228 4.4129 95.4638 4.07507 95.8786 4.07507C96.2969 4.07507 96.6379 4.41642 96.6379 4.83167C96.6344 5.24692 96.2969 5.58826 95.8786 5.58826ZM95.8786 4.27566C95.5728 4.27566 95.3267 4.52551 95.3267 4.83167C95.3267 5.13783 95.5763 5.38416 95.8786 5.38416C96.1844 5.38416 96.434 5.13431 96.434 4.83167C96.4305 4.52551 96.1844 4.27566 95.8786 4.27566Z" fill="#BEA7FF"/>
<path d="M95.0385 1.5204L94.9554 1.70679L98.8237 3.43477L98.9068 3.24839L95.0385 1.5204Z" fill="#BEA7FF"/>
<path d="M90.943 7.99884L93.4038 5.02173L93.2983 7.78418L90.943 7.99884ZM93.1753 5.61293L91.4105 7.74899L93.0979 7.59415L93.1753 5.61293Z" fill="#BEA7FF"/>
<path d="M97.1617 10.8492L95.3759 9.00524L97.4887 7.0592L97.1617 10.8492ZM95.6677 9.01228L96.9965 10.3847L97.2391 7.56243L95.6677 9.01228Z" fill="#BEA7FF"/>
<path d="M91.1329 19.2914L90.7391 19.228C91.2735 15.9096 92.3597 12.7847 93.3546 10.163L93.7307 10.3037C92.7394 12.9078 91.6637 16.0081 91.1329 19.2914Z" fill="#BEA7FF"/>
<path d="M42.4307 26.9242L38.4865 26.7658L41.8788 20.6568L44.554 20.333L42.4307 26.9242ZM38.9645 26.4984L42.2233 26.6286L44.1392 20.6744L42.0581 20.9277L38.9645 26.4984Z" fill="#BEA7FF"/>
<path d="M44.7825 23.0708L43.8966 21.3782L44.1392 20.7096L42.8807 20.6427L41.4147 17.7078L44.9899 15.6069L47.405 21.8779L44.7825 23.0708ZM44.213 21.3571L44.9125 22.6943L47.0429 21.7266L44.8458 16.0257L41.7944 17.8169L43.067 20.3612L44.5469 20.4386L44.213 21.3571Z" fill="#BEA7FF"/>
<path d="M46.73 18.021L45.3344 15.3114L46.3961 13.031L46.4488 13.0099C47.7038 12.4926 49.2822 11.6621 49.3138 11.6445L49.5248 11.8205C49.5177 11.8381 49.5107 11.8557 49.4966 11.8733C49.247 12.3906 46.73 18.021 46.73 18.021ZM45.6543 15.3079L46.7089 17.3595C47.0816 16.529 48.1854 14.0586 48.8111 12.6756L48.7338 12.7671L49.022 12.1829C48.3119 12.5524 47.0218 13.0909 46.6105 13.2598L45.6543 15.3079Z" fill="#BEA7FF"/>
<defs>
<linearGradient id="paint0_linear_219_15" x1="32.2122" y1="104.51" x2="116.433" y2="104.51" gradientUnits="userSpaceOnUse">
<stop stop-color="#70367A"/>
<stop offset="0.4701" stop-color="#D9C0A6"/>
<stop offset="0.7994" stop-color="#EAD7AD"/>
</linearGradient>
<linearGradient id="paint1_linear_219_15" x1="99.3241" y1="102.48" x2="71.3376" y2="112.908" gradientUnits="userSpaceOnUse">
<stop stop-color="#FF6C45"/>
<stop offset="1" stop-color="#AF3723"/>
</linearGradient>
<linearGradient id="paint2_linear_219_15" x1="84.7433" y1="99.328" x2="91.9177" y2="101.422" gradientUnits="userSpaceOnUse">
<stop stop-color="#FF6C45"/>
<stop offset="1" stop-color="#AF3723"/>
</linearGradient>
<linearGradient id="paint3_linear_219_15" x1="97.9218" y1="95.3844" x2="72.1978" y2="104.969" gradientUnits="userSpaceOnUse">
<stop stop-color="#FF6C45"/>
<stop offset="1" stop-color="#AF3723"/>
</linearGradient>
<linearGradient id="paint4_linear_219_15" x1="78.8247" y1="100.879" x2="91.3755" y2="100.879" gradientUnits="userSpaceOnUse">
<stop stop-color="#70367A"/>
<stop offset="0.4701" stop-color="#D9C0A6"/>
<stop offset="0.686" stop-color="#EAD7AD"/>
<stop offset="0.7994" stop-color="#EAD7AD"/>
<stop offset="0.8416" stop-color="#EAD7AD"/>
</linearGradient>
<linearGradient id="paint5_linear_219_15" x1="42.3564" y1="82.6312" x2="58.5089" y2="82.6312" gradientUnits="userSpaceOnUse">
<stop stop-color="#70367A"/>
<stop offset="1" stop-color="#FCEEB4"/>
</linearGradient>
<linearGradient id="paint6_linear_219_15" x1="35.3835" y1="80.9795" x2="64.4826" y2="59.7799" gradientUnits="userSpaceOnUse">
<stop stop-color="#70367A"/>
<stop offset="1" stop-color="#FCEEB4"/>
</linearGradient>
<linearGradient id="paint7_linear_219_15" x1="61.4591" y1="65.4219" x2="44.4437" y2="86.6142" gradientUnits="userSpaceOnUse">
<stop offset="0.2651" stop-color="#70367A"/>
<stop offset="1" stop-color="#FCEEB4"/>
</linearGradient>
<linearGradient id="paint8_linear_219_15" x1="34.7588" y1="62.366" x2="65.051" y2="66.748" gradientUnits="userSpaceOnUse">
<stop offset="0.2651" stop-color="#70367A"/>
<stop offset="0.7987" stop-color="#BF9E9B"/>
<stop offset="1" stop-color="#FCEEB4"/>
</linearGradient>
<linearGradient id="paint9_linear_219_15" x1="17.9779" y1="65.0795" x2="47.7727" y2="65.0795" gradientUnits="userSpaceOnUse">
<stop stop-color="#70367A"/>
<stop offset="1" stop-color="#FCEEB4"/>
</linearGradient>
<linearGradient id="paint10_linear_219_15" x1="30.932" y1="38.1765" x2="36.0187" y2="78.7152" gradientUnits="userSpaceOnUse">
<stop offset="0.2651" stop-color="#70367A"/>
<stop offset="1" stop-color="#FCEEB4"/>
</linearGradient>
<linearGradient id="paint11_linear_219_15" x1="58.2736" y1="129.307" x2="50.2761" y2="130.331" gradientUnits="userSpaceOnUse">
<stop offset="0.2651" stop-color="#70367A"/>
<stop offset="1" stop-color="#FCEEB4"/>
</linearGradient>
<linearGradient id="paint12_linear_219_15" x1="74.0186" y1="116.937" x2="80.4368" y2="116.937" gradientUnits="userSpaceOnUse">
<stop stop-color="#70367A"/>
<stop offset="1" stop-color="#FCEEB4"/>
</linearGradient>
<linearGradient id="paint13_linear_219_15" x1="90.4474" y1="101.576" x2="114.776" y2="101.576" gradientUnits="userSpaceOnUse">
<stop stop-color="#CC9C23"/>
<stop offset="0.8118" stop-color="#EBBF3C"/>
</linearGradient>
<linearGradient id="paint14_linear_219_15" x1="129.145" y1="89.2867" x2="138.192" y2="89.2867" gradientUnits="userSpaceOnUse">
<stop stop-color="#CC9C23"/>
<stop offset="0.8118" stop-color="#EBBF3C"/>
</linearGradient>
<linearGradient id="paint15_linear_219_15" x1="128.22" y1="92.1994" x2="161.5" y2="92.1994" gradientUnits="userSpaceOnUse">
<stop stop-color="#CC9C23"/>
<stop offset="0.8118" stop-color="#EBBF3C"/>
</linearGradient>
<linearGradient id="paint16_linear_219_15" x1="128.552" y1="101.647" x2="148.04" y2="101.647" gradientUnits="userSpaceOnUse">
<stop stop-color="#CC9C23"/>
<stop offset="0.8118" stop-color="#EBBF3C"/>
</linearGradient>
<linearGradient id="paint17_linear_219_15" x1="128.219" y1="108.578" x2="142.165" y2="108.578" gradientUnits="userSpaceOnUse">
<stop stop-color="#CC9C23"/>
<stop offset="0.8118" stop-color="#EBBF3C"/>
</linearGradient>
<linearGradient id="paint18_linear_219_15" x1="112.771" y1="109.451" x2="123.143" y2="109.451" gradientUnits="userSpaceOnUse">
<stop stop-color="#CC9C23"/>
<stop offset="0.8118" stop-color="#EBBF3C"/>
</linearGradient>
<linearGradient id="paint19_linear_219_15" x1="117.418" y1="96.7745" x2="127.75" y2="96.7745" gradientUnits="userSpaceOnUse">
<stop stop-color="#CC9C23"/>
<stop offset="0.8118" stop-color="#EBBF3C"/>
</linearGradient>
<linearGradient id="paint20_linear_219_15" x1="105.555" y1="86.1432" x2="128.026" y2="86.1432" gradientUnits="userSpaceOnUse">
<stop stop-color="#CC9C23"/>
<stop offset="0.8118" stop-color="#EBBF3C"/>
</linearGradient>
<linearGradient id="paint21_linear_219_15" x1="135.741" y1="87.3273" x2="138.943" y2="87.3273" gradientUnits="userSpaceOnUse">
<stop stop-color="#A93400"/>
<stop offset="1" stop-color="#540025"/>
</linearGradient>
<linearGradient id="paint22_linear_219_15" x1="139.221" y1="108.281" x2="143.68" y2="108.281" gradientUnits="userSpaceOnUse">
<stop stop-color="#D15611"/>
<stop offset="1" stop-color="#8656A5"/>
</linearGradient>
<linearGradient id="paint23_linear_219_15" x1="141.657" y1="108.175" x2="139.176" y2="109.484" gradientUnits="userSpaceOnUse">
<stop offset="0.2651" stop-color="#70367A"/>
<stop offset="1" stop-color="#FCEEB4"/>
</linearGradient>
<linearGradient id="paint24_linear_219_15" x1="114.751" y1="106.564" x2="121.796" y2="106.564" gradientUnits="userSpaceOnUse">
<stop stop-color="#278F91"/>
<stop offset="1" stop-color="#6EDDE0"/>
</linearGradient>
<linearGradient id="paint25_linear_219_15" x1="116.264" y1="94.7737" x2="120.233" y2="94.7737" gradientUnits="userSpaceOnUse">
<stop stop-color="#D89C23"/>
<stop offset="1" stop-color="#96582A"/>
</linearGradient>
<linearGradient id="paint26_linear_219_15" x1="118.432" y1="94.6662" x2="115.508" y2="96.3865" gradientUnits="userSpaceOnUse">
<stop offset="0.2651" stop-color="#70367A"/>
<stop offset="1" stop-color="#FCEEB4"/>
</linearGradient>
<linearGradient id="paint27_linear_219_15" x1="95.3089" y1="94.1602" x2="112.195" y2="94.1602" gradientUnits="userSpaceOnUse">
<stop offset="0.00537634" stop-color="#703E67"/>
<stop offset="1" stop-color="#CC9562"/>
</linearGradient>
<linearGradient id="paint28_linear_219_15" x1="95.6613" y1="97.0025" x2="105.153" y2="93.5293" gradientUnits="userSpaceOnUse">
<stop offset="0.2651" stop-color="#70367A"/>
<stop offset="1" stop-color="#FCEEB4"/>
</linearGradient>
<linearGradient id="paint29_linear_219_15" x1="102.163" y1="78.821" x2="110.775" y2="79.0629" gradientUnits="userSpaceOnUse">
<stop stop-color="#5D84AF"/>
<stop offset="1" stop-color="#457CAF"/>
</linearGradient>
<linearGradient id="paint30_linear_219_15" x1="105.786" y1="78.9421" x2="100.023" y2="78.9421" gradientUnits="userSpaceOnUse">
<stop offset="0.2651" stop-color="#70367A"/>
<stop offset="1" stop-color="#FCEEB4"/>
</linearGradient>
<linearGradient id="paint31_linear_219_15" x1="93.7966" y1="94.0765" x2="112.091" y2="94.0765" gradientUnits="userSpaceOnUse">
<stop stop-color="#70367A"/>
<stop offset="1" stop-color="#FCEEB4"/>
</linearGradient>
<linearGradient id="paint32_linear_219_15" x1="101.664" y1="78.9153" x2="110.675" y2="78.9153" gradientUnits="userSpaceOnUse">
<stop stop-color="#70367A"/>
<stop offset="1" stop-color="#FCEEB4"/>
</linearGradient>
<linearGradient id="paint33_linear_219_15" x1="135.008" y1="87.8447" x2="137.98" y2="87.1468" gradientUnits="userSpaceOnUse">
<stop stop-color="#70367A"/>
<stop offset="1" stop-color="#FCEEB4"/>
</linearGradient>
<linearGradient id="paint34_linear_219_15" x1="138.404" y1="109.019" x2="142.32" y2="108.099" gradientUnits="userSpaceOnUse">
<stop stop-color="#70367A"/>
<stop offset="1" stop-color="#FCEEB4"/>
</linearGradient>
<linearGradient id="paint35_linear_219_15" x1="115.476" y1="95.4186" x2="119.045" y2="94.5808" gradientUnits="userSpaceOnUse">
<stop stop-color="#70367A"/>
<stop offset="1" stop-color="#FCEEB4"/>
</linearGradient>
<linearGradient id="paint36_linear_219_15" x1="120.56" y1="105.751" x2="112.337" y2="108.618" gradientUnits="userSpaceOnUse">
<stop offset="0.2651" stop-color="#70367A"/>
<stop offset="1" stop-color="#FCEEB4"/>
</linearGradient>
<linearGradient id="paint37_linear_219_15" x1="115.032" y1="107.409" x2="121.655" y2="105.854" gradientUnits="userSpaceOnUse">
<stop stop-color="#70367A"/>
<stop offset="1" stop-color="#FCEEB4"/>
</linearGradient>
<linearGradient id="paint38_linear_219_15" x1="135.534" y1="94.7467" x2="148.684" y2="94.7467" gradientUnits="userSpaceOnUse">
<stop stop-color="#7E8C53"/>
<stop offset="1" stop-color="#BC9C42"/>
</linearGradient>
<linearGradient id="paint39_linear_219_15" x1="146.365" y1="95.1116" x2="138.289" y2="98.5111" gradientUnits="userSpaceOnUse">
<stop offset="0.2651" stop-color="#70367A"/>
<stop offset="1" stop-color="#FCEEB4"/>
</linearGradient>
<linearGradient id="paint40_linear_219_15" x1="139.783" y1="94.4905" x2="154.041" y2="94.4905" gradientUnits="userSpaceOnUse">
<stop stop-color="#70367A"/>
<stop offset="1" stop-color="#FCEEB4"/>
</linearGradient>
<linearGradient id="paint41_linear_219_15" x1="120.206" y1="120.723" x2="127.572" y2="120.723" gradientUnits="userSpaceOnUse">
<stop stop-color="#70367A"/>
<stop offset="1" stop-color="#FCEEB4"/>
</linearGradient>
<linearGradient id="paint42_linear_219_15" x1="132.287" y1="118.112" x2="136.59" y2="118.112" gradientUnits="userSpaceOnUse">
<stop stop-color="#70367A"/>
<stop offset="1" stop-color="#FCEEB4"/>
</linearGradient>
<linearGradient id="paint43_linear_219_15" x1="115.565" y1="116.44" x2="139.779" y2="116.44" gradientUnits="userSpaceOnUse">
<stop stop-color="#B07FC9"/>
<stop offset="1" stop-color="#E5C06E"/>
</linearGradient>
<linearGradient id="paint44_linear_219_15" x1="118.019" y1="119.799" x2="134.828" y2="114.553" gradientUnits="userSpaceOnUse">
<stop stop-color="#70367A"/>
<stop offset="1" stop-color="#FCEEB4"/>
</linearGradient>
<linearGradient id="paint45_linear_219_15" x1="132.275" y1="114.629" x2="109.537" y2="122.898" gradientUnits="userSpaceOnUse">
<stop offset="0.2651" stop-color="#70367A"/>
<stop offset="1" stop-color="#FCEEB4"/>
</linearGradient>
<linearGradient id="paint46_linear_219_15" x1="126.951" y1="100.247" x2="129.692" y2="100.247" gradientUnits="userSpaceOnUse">
<stop stop-color="#CC9C23"/>
<stop offset="0.8118" stop-color="#EBBF3C"/>
</linearGradient>
<linearGradient id="paint47_linear_219_15" x1="120.184" y1="80.3511" x2="136.218" y2="79.6164" gradientUnits="userSpaceOnUse">
<stop stop-color="#D16615"/>
<stop offset="1" stop-color="#EBBF3C"/>
</linearGradient>
<linearGradient id="paint48_linear_219_15" x1="137.964" y1="79.6733" x2="115.584" y2="82.4297" gradientUnits="userSpaceOnUse">
<stop offset="0.2651" stop-color="#70367A"/>
<stop offset="1" stop-color="#FCEEB4"/>
</linearGradient>
<linearGradient id="paint49_linear_219_15" x1="119.714" y1="82.5018" x2="135.831" y2="78.7178" gradientUnits="userSpaceOnUse">
<stop stop-color="#70367A"/>
<stop offset="1" stop-color="#FCEEB4"/>
</linearGradient>
<linearGradient id="paint50_linear_219_15" x1="119.098" y1="128.162" x2="121.506" y2="126.854" gradientUnits="userSpaceOnUse">
<stop stop-color="#70367A"/>
<stop offset="1" stop-color="#FCEEB4"/>
</linearGradient>
<linearGradient id="paint51_linear_219_15" x1="124.081" y1="137.293" x2="139.754" y2="132.662" gradientUnits="userSpaceOnUse">
<stop stop-color="#632E7F"/>
<stop offset="1" stop-color="#9EEFEF"/>
</linearGradient>
<linearGradient id="paint52_linear_219_15" x1="119.058" y1="144.57" x2="129.665" y2="132.54" gradientUnits="userSpaceOnUse">
<stop stop-color="#70367A"/>
<stop offset="1" stop-color="#FCEEB4"/>
</linearGradient>
<linearGradient id="paint53_linear_219_15" x1="115.836" y1="149.986" x2="132.571" y2="131.006" gradientUnits="userSpaceOnUse">
<stop stop-color="#70367A"/>
<stop offset="1" stop-color="#FCEEB4"/>
</linearGradient>
<linearGradient id="paint54_linear_219_15" x1="136.126" y1="142.32" x2="129.945" y2="144.305" gradientUnits="userSpaceOnUse">
<stop offset="0.2651" stop-color="#70367A"/>
<stop offset="1" stop-color="#FCEEB4"/>
</linearGradient>
<linearGradient id="paint55_linear_219_15" x1="67.1818" y1="130.837" x2="76.4904" y2="130.837" gradientUnits="userSpaceOnUse">
<stop stop-color="#70367A"/>
<stop offset="1" stop-color="#FCEEB4"/>
</linearGradient>
<linearGradient id="paint56_linear_219_15" x1="61.1023" y1="118.988" x2="79.3985" y2="118.988" gradientUnits="userSpaceOnUse">
<stop stop-color="#278F91"/>
<stop offset="1" stop-color="#6EDDE0"/>
</linearGradient>
<linearGradient id="paint57_linear_219_15" x1="70.6293" y1="118.655" x2="56.4357" y2="128.783" gradientUnits="userSpaceOnUse">
<stop offset="0.2651" stop-color="#70367A"/>
<stop offset="1" stop-color="#FCEEB4"/>
</linearGradient>
<linearGradient id="paint58_linear_219_15" x1="55.6298" y1="119.304" x2="75.8298" y2="117.821" gradientUnits="userSpaceOnUse">
<stop stop-color="#70367A"/>
<stop offset="1" stop-color="#FCEEB4"/>
</linearGradient>
<linearGradient id="paint59_linear_219_15" x1="76.752" y1="127.962" x2="72.7346" y2="129.736" gradientUnits="userSpaceOnUse">
<stop stop-color="#70367A"/>
<stop offset="1" stop-color="#FCEEB4"/>
</linearGradient>
<linearGradient id="paint60_linear_219_15" x1="66.0877" y1="73.82" x2="68.4414" y2="73.82" gradientUnits="userSpaceOnUse">
<stop stop-color="#70367A"/>
<stop offset="1" stop-color="#FCEEB4"/>
</linearGradient>
<linearGradient id="paint61_linear_219_15" x1="74.7851" y1="88.6648" x2="77.2681" y2="88.6648" gradientUnits="userSpaceOnUse">
<stop stop-color="#70367A"/>
<stop offset="1" stop-color="#FCEEB4"/>
</linearGradient>
<linearGradient id="paint62_linear_219_15" x1="51.2173" y1="148.46" x2="97.6199" y2="138.527" gradientUnits="userSpaceOnUse">
<stop stop-color="#70367A"/>
<stop offset="1" stop-color="#FCEEB4"/>
</linearGradient>
<linearGradient id="paint63_linear_219_15" x1="34.8441" y1="113.873" x2="41.3808" y2="113.873" gradientUnits="userSpaceOnUse">
<stop offset="0.2651" stop-color="#70367A"/>
<stop offset="1" stop-color="#FCEEB4"/>
</linearGradient>
<linearGradient id="paint64_linear_219_15" x1="18.2686" y1="131.891" x2="28.3968" y2="131.891" gradientUnits="userSpaceOnUse">
<stop offset="0.2651" stop-color="#70367A"/>
<stop offset="1" stop-color="#FCEEB4"/>
</linearGradient>
<linearGradient id="paint65_linear_219_15" x1="30.9276" y1="129.465" x2="14.0012" y2="135.192" gradientUnits="userSpaceOnUse">
<stop stop-color="#3D367A"/>
<stop offset="1" stop-color="#FCEEB4"/>
</linearGradient>
<linearGradient id="paint66_linear_219_15" x1="8.34586" y1="148.417" x2="41.5919" y2="128.53" gradientUnits="userSpaceOnUse">
<stop stop-color="#70367A"/>
<stop offset="1" stop-color="#FCEEB4"/>
</linearGradient>
<linearGradient id="paint67_linear_219_15" x1="138.878" y1="129.911" x2="153.605" y2="129.911" gradientUnits="userSpaceOnUse">
<stop stop-color="#BCA6B6"/>
<stop offset="1" stop-color="#FCEEB4"/>
</linearGradient>
<linearGradient id="paint68_linear_219_15" x1="138.49" y1="126.523" x2="150.47" y2="126.523" gradientUnits="userSpaceOnUse">
<stop stop-color="#70367A"/>
<stop offset="1" stop-color="#FCEEB4"/>
</linearGradient>
<linearGradient id="paint69_linear_219_15" x1="139.98" y1="132.971" x2="151.307" y2="132.971" gradientUnits="userSpaceOnUse">
<stop stop-color="#70367A"/>
<stop offset="1" stop-color="#FCEEB4"/>
</linearGradient>
<linearGradient id="paint70_linear_219_15" x1="24.2618" y1="133.904" x2="41.0894" y2="134.004" gradientUnits="userSpaceOnUse">
<stop offset="0.2651" stop-color="#70367A"/>
<stop offset="1" stop-color="#FCEEB4"/>
</linearGradient>
<linearGradient id="paint71_linear_219_15" x1="137" y1="131.588" x2="132.177" y2="133.315" gradientUnits="userSpaceOnUse">
<stop stop-color="#2C4991"/>
<stop offset="1" stop-color="#FCEEB4"/>
</linearGradient>
<linearGradient id="paint72_linear_219_15" x1="129.64" y1="131.587" x2="140.35" y2="131.493" gradientUnits="userSpaceOnUse">
<stop stop-color="#70367A"/>
<stop offset="1" stop-color="#FCEEB4"/>
</linearGradient>
<linearGradient id="paint73_linear_219_15" x1="60.5213" y1="121.857" x2="43.48" y2="122.558" gradientUnits="userSpaceOnUse">
<stop stop-color="#70367A"/>
<stop offset="1" stop-color="#FCEEB4"/>
</linearGradient>
</defs>
</svg>
